<svg fill="none" height="100%" width="100%" viewBox="0 0 500 500" xmlns:xlink="http://www.w3.org/1999/xlink" xmlns="http://www.w3.org/2000/svg"><defs><clipPath id="i0"><rect height="500" width="500" y="0" x="0" /></clipPath><linearGradient id="i1" gradientUnits="userSpaceOnUse" spreadMethod="pad" x2="63.45" y2="-50.802" x1="-96.755" y1="76.98"><stop offset="0%" stop-color="#1d81f3" /><stop offset="50%" stop-color="#11c0e2" /><stop offset="100%" stop-color="#05ffd3" /></linearGradient><g id="i2"><g id="i3"><g transform="translate(257.5,238.06)"><animateTransform repeatCount="indefinite" type="translate" attributeName="transform" dur="2.5s" begin="0s" calcMode="spline" values="257.5 238.06; 257.5 238.06; 263.326 210.447; 256.5 167.56; 256.5 167.56" keyTimes="0; 0.326667; 0.480834; 0.686667; 1" keySplines="0 0 1 1; 0.333 0 0.667 0.532; 0.333 0.405 0.667 1; 0 0 1 1" fill="freeze" /><g transform="scale(0,0)"><animateTransform repeatCount="indefinite" type="scale" attributeName="transform" dur="2.5s" begin="0s" calcMode="spline" values="0 0; 0 0; 0.7 0.7; 0 0; 0 0" keyTimes="0; 0.373333; 0.526667; 0.686666; 1" keySplines="0 0 1 1; 0.275 0.013 0.317 0.969; 0.394 0 0.593 1; 0 0 1 1" fill="freeze" /><g transform="translate(-22.4,-22.4)"><g id="i4" transform="matrix(1,0,0,1,22.4,22.4)"><path fill="#10c4e1" d="M22.15,0C22.15,12.233,12.233,22.15,0,22.15C-12.233,22.15,-22.15,12.233,-22.15,0C-22.15,-12.233,-12.233,-22.15,0,-22.15C12.233,-22.15,22.15,-12.233,22.15,0Z" /></g></g></g></g></g><g id="i5"><g transform="translate(244,246.06)"><animateTransform repeatCount="indefinite" type="translate" attributeName="transform" dur="2.5s" begin="0s" calcMode="spline" values="244 246.06; 244 246.06; 254.326 221.947; 256 163.56" keyTimes="0; 0.626667; 0.765; 1" keySplines="0 0 1 1; 0.333 0 0.667 0.548; 0.333 0.345 0.667 1" fill="freeze" /><g transform="scale(0,0)"><animateTransform repeatCount="indefinite" type="scale" attributeName="transform" dur="2.5s" begin="0s" calcMode="spline" values="0 0; 0 0; 0.6 0.6; 0 0" keyTimes="0; 0.673333; 0.84; 1" keySplines="0 0 1 1; 0.275 0.016 0.317 0.96; 0.394 0 0.593 1" fill="freeze" /><g transform="translate(-22.4,-22.4)"><g id="i4" transform="matrix(1,0,0,1,22.4,22.4)"><path fill="#11c0e2" d="M22.15,0C22.15,12.233,12.233,22.15,0,22.15C-12.233,22.15,-22.15,12.233,-22.15,0C-22.15,-12.233,-12.233,-22.15,0,-22.15C12.233,-22.15,22.15,-12.233,22.15,0Z" /></g></g></g></g></g><g id="i6"><g transform="translate(294,261.924)"><animateTransform repeatCount="indefinite" type="translate" attributeName="transform" dur="2.5s" begin="0s" calcMode="spline" values="294 261.924; 294 261.924; 303.208 223.227; 308 172.424; 308 172.424" keyTimes="0; 0.466667; 0.698334; 0.94; 1" keySplines="0 0 1 1; 0.349 0 0.669 0.404; 0.307 0.446 0.625 1; 0 0 1 1" fill="freeze" /><g transform="rotate(0)"><animateTransform repeatCount="indefinite" type="rotate" attributeName="transform" dur="2.5s" begin="0s" calcMode="spline" values="0; 0; -330; -330" keyTimes="0; 0.533333; 0.9; 1" keySplines="0 0 1 1; 0 0 1 1; 0 0 1 1" fill="freeze" /><g transform="scale(0,0)"><animateTransform repeatCount="indefinite" type="scale" attributeName="transform" dur="2.5s" begin="0s" calcMode="spline" values="0 0; 0 0; 0.85 0.85; 0 0; 0 0" keyTimes="0; 0.506667; 0.72; 0.92; 1" keySplines="0 0 1 1; 0.429 0 0.623 1; 0.44 0 0.61 1; 0 0 1 1" fill="freeze" /><g transform="translate(-25.285,-21.931)"><g id="i4" transform="matrix(1,0,0,1,25.285,21.93)"><path fill="#0bdcdb" d="M-4.33,-18.347C-4.33,-18.347,-23.11,14.18,-23.11,14.18C-25.035,17.514,-22.629,21.68,-18.78,21.68C-18.78,21.68,18.78,21.68,18.78,21.68C22.629,21.68,25.035,17.514,23.111,14.18C23.111,14.18,4.33,-18.347,4.33,-18.347C2.406,-21.68,-2.406,-21.68,-4.33,-18.347C-4.33,-18.347,-23.11,14.18,-23.11,14.18C-25.035,17.514,-22.629,21.68,-18.78,21.68C-18.78,21.68,18.78,21.68,18.78,21.68C22.629,21.68,25.035,17.514,23.111,14.18C23.111,14.18,4.33,-18.347,4.33,-18.347C2.406,-21.68,-2.406,-21.68,-4.33,-18.347Z" /></g></g></g></g></g></g><g id="i7"><g transform="translate(231.5,234.262)"><animateTransform repeatCount="indefinite" type="translate" attributeName="transform" dur="2.5s" begin="0s" calcMode="spline" values="231.5 234.262; 231.5 234.262; 217 209.262; 218.5 167.262; 218.5 167.262" keyTimes="0; 0.186667; 0.358527; 0.58; 1" keySplines="0 0 1 1; 0.333 0 0.667 1; 0.333 0 0.667 1; 0 0 1 1" fill="freeze" /><g transform="rotate(0)"><animateTransform repeatCount="indefinite" type="rotate" attributeName="transform" dur="2.5s" begin="0s" calcMode="spline" values="0; 0; 270; 270" keyTimes="0; 0.186667; 0.58; 1" keySplines="0 0 1 1; 0 0 1 1; 0 0 1 1" fill="freeze" /><g transform="scale(0,0)"><animateTransform repeatCount="indefinite" type="scale" attributeName="transform" dur="2.5s" begin="0s" calcMode="spline" values="0 0; 0 0; 1 1; 0 0; 0 0" keyTimes="0; 0.186667; 0.36; 0.58; 1" keySplines="0 0 1 1; 0.333 0 0.311 1; 0.742 0 0.667 1; 0 0 1 1" fill="freeze" /><g transform="translate(-26.551,-26.551)"><g id="i4" transform="matrix(1,0,0,1,26.551,26.551)"><path fill="#11bde3" d="M18.782,-7.519C18.782,-7.519,7.519,-7.519,7.519,-7.519C7.519,-7.519,7.519,-18.782,7.519,-18.782C7.519,-22.935,4.153,-26.301,0,-26.301C-4.153,-26.301,-7.519,-22.935,-7.519,-18.782C-7.519,-18.782,-7.519,-7.519,-7.519,-7.519C-7.519,-7.519,-18.782,-7.519,-18.782,-7.519C-22.935,-7.519,-26.301,-4.153,-26.301,0C-26.301,4.153,-22.935,7.519,-18.782,7.519C-18.782,7.519,-7.519,7.519,-7.519,7.519C-7.519,7.519,-7.519,18.782,-7.519,18.782C-7.519,22.935,-4.153,26.301,0,26.301C4.153,26.301,7.519,22.935,7.519,18.782C7.519,18.782,7.519,7.519,7.519,7.519C7.519,7.519,18.782,7.519,18.782,7.519C22.935,7.519,26.301,4.153,26.301,0C26.301,-4.153,22.935,-7.519,18.782,-7.519Z" /></g></g></g></g></g></g><g id="i8"><g transform="translate(210,297)"><animateTransform repeatCount="indefinite" type="translate" attributeName="transform" dur="2.5s" begin="0s" calcMode="spline" values="210 297; 290 297; 210 297; 210 297" keyTimes="0; 0.5; 0.993333; 1" keySplines="0.507 0 0.52 1; 0.46 0 0.505 1; 0 0 1 1" fill="freeze" /><g transform="rotate(-7)"><animateTransform repeatCount="indefinite" type="rotate" attributeName="transform" dur="2.5s" begin="0s" calcMode="spline" values="-7; 7; -7; -7" keyTimes="0; 0.5; 0.993333; 1" keySplines="0.69 0 0.555 1; 0.748 0 0.452 1; 0 0 1 1" fill="freeze" /><g transform="scale(0.9,0.9)"><animateTransform repeatCount="indefinite" type="scale" attributeName="transform" dur="2.5s" begin="0s" calcMode="spline" values="0.9 0.9; 1 1; 0.9 0.9; 1 1; 0.9 0.9; 0.9 0.9" keyTimes="0; 0.253334; 0.5; 0.753333; 0.993333; 1" keySplines="0.724 0 0.667 0.778; 0.424 0 0.667 1; 0.689 0 0.663 0.773; 0.482 0 0.667 1; 0 0 1 1" fill="freeze" /><g transform="translate(-49.41,-96.409)"><g id="i4" transform="matrix(1,0,0,1,49.41,49.41)"><path d="M5.141,-44.719C5.141,-44.719,16.507,-19.346,16.507,-19.346C17.073,-18.084,18.083,-17.073,19.345,-16.507C19.345,-16.507,44.719,-5.141,44.719,-5.141C49.16,-3.152,49.16,3.152,44.719,5.141C44.719,5.141,19.345,16.508,19.345,16.508C18.083,17.073,17.073,18.083,16.507,19.346C16.507,19.346,5.141,44.719,5.141,44.719C3.152,49.16,-3.152,49.16,-5.141,44.719C-5.141,44.719,-16.508,19.346,-16.508,19.346C-17.073,18.083,-18.083,17.073,-19.346,16.508C-19.346,16.508,-44.719,5.141,-44.719,5.141C-49.16,3.152,-49.16,-3.152,-44.719,-5.141C-44.719,-5.141,-19.346,-16.507,-19.346,-16.507C-18.083,-17.073,-17.073,-18.084,-16.508,-19.346C-16.508,-19.346,-5.141,-44.719,-5.141,-44.719C-3.152,-49.159,3.152,-49.159,5.141,-44.719Z" fill="url(#i1)"><animate repeatCount="indefinite" attributeName="d" dur="2.5s" begin="0s" calcMode="spline" values="M5.141,-44.719C5.141,-44.719,16.507,-19.346,16.507,-19.346C17.073,-18.084,18.083,-17.073,19.345,-16.507C19.345,-16.507,44.719,-5.141,44.719,-5.141C49.16,-3.152,49.16,3.152,44.719,5.141C44.719,5.141,19.345,16.508,19.345,16.508C18.083,17.073,17.073,18.083,16.507,19.346C16.507,19.346,5.141,44.719,5.141,44.719C3.152,49.16,-3.152,49.16,-5.141,44.719C-5.141,44.719,-16.508,19.346,-16.508,19.346C-17.073,18.083,-18.083,17.073,-19.346,16.508C-19.346,16.508,-44.719,5.141,-44.719,5.141C-49.16,3.152,-49.16,-3.152,-44.719,-5.141C-44.719,-5.141,-19.346,-16.507,-19.346,-16.507C-18.083,-17.073,-17.073,-18.084,-16.508,-19.346C-16.508,-19.346,-5.141,-44.719,-5.141,-44.719C-3.152,-49.159,3.152,-49.159,5.141,-44.719Z; M-3.394,-44.085C-3.394,-44.085,14.009,-19.453,14.009,-19.453C14.575,-18.191,15.585,-17.181,16.847,-16.615C16.847,-16.615,39.874,-8.853,39.874,-8.853C44.315,-6.864,44.315,-0.56,39.874,1.429C39.874,1.429,19.345,16.508,19.345,16.508C18.083,17.073,17.073,18.083,16.507,19.346C16.507,19.346,1.142,43.299,1.142,43.299C-0.847,47.74,-7.151,47.74,-9.14,43.299C-9.14,43.299,-16.508,19.346,-16.508,19.346C-17.073,18.083,-18.083,17.073,-19.346,16.508C-19.346,16.508,-44.327,7.66,-44.327,7.66C-48.768,5.671,-48.768,-0.633,-44.327,-2.622C-44.327,-2.622,-21.844,-16.615,-21.844,-16.615C-20.581,-17.181,-19.571,-18.191,-19.006,-19.453C-19.006,-19.453,-13.676,-44.085,-13.676,-44.085C-11.687,-48.525,-5.383,-48.525,-3.394,-44.085Z; M5.141,-44.719C5.141,-44.719,16.507,-19.346,16.507,-19.346C17.073,-18.084,18.083,-17.073,19.345,-16.507C19.345,-16.507,44.719,-5.141,44.719,-5.141C49.16,-3.152,49.16,3.152,44.719,5.141C44.719,5.141,19.345,16.508,19.345,16.508C18.083,17.073,17.073,18.083,16.507,19.346C16.507,19.346,5.141,44.719,5.141,44.719C3.152,49.16,-3.152,49.16,-5.141,44.719C-5.141,44.719,-16.508,19.346,-16.508,19.346C-17.073,18.083,-18.083,17.073,-19.346,16.508C-19.346,16.508,-44.719,5.141,-44.719,5.141C-49.16,3.152,-49.16,-3.152,-44.719,-5.141C-44.719,-5.141,-19.346,-16.507,-19.346,-16.507C-18.083,-17.073,-17.073,-18.084,-16.508,-19.346C-16.508,-19.346,-5.141,-44.719,-5.141,-44.719C-3.152,-49.159,3.152,-49.159,5.141,-44.719Z; M12.174,-43.987C12.174,-43.987,18.006,-19.403,18.006,-19.403C18.572,-18.141,19.582,-17.131,20.844,-16.565C20.844,-16.565,44.296,-3.124,44.296,-3.124C48.737,-1.135,48.737,5.169,44.296,7.158C44.296,7.158,19.345,16.508,19.345,16.508C18.083,17.073,17.073,18.083,16.507,19.346C16.507,19.346,7.088,43.301,7.088,43.301C5.099,47.742,-1.205,47.742,-3.194,43.301C-3.194,43.301,-16.508,19.346,-16.508,19.346C-17.073,18.083,-18.083,17.073,-19.346,16.508C-19.346,16.508,-40.913,-0.008,-40.913,-0.008C-45.354,-1.997,-45.354,-8.301,-40.913,-10.29C-40.913,-10.29,-17.847,-16.565,-17.847,-16.565C-16.584,-17.131,-15.574,-18.141,-15.009,-19.403C-15.009,-19.403,1.892,-43.987,1.892,-43.987C3.881,-48.427,10.185,-48.427,12.174,-43.987Z; M5.141,-44.719C5.141,-44.719,16.507,-19.346,16.507,-19.346C17.073,-18.084,18.083,-17.073,19.345,-16.507C19.345,-16.507,44.719,-5.141,44.719,-5.141C49.16,-3.152,49.16,3.152,44.719,5.141C44.719,5.141,19.345,16.508,19.345,16.508C18.083,17.073,17.073,18.083,16.507,19.346C16.507,19.346,5.141,44.719,5.141,44.719C3.152,49.16,-3.152,49.16,-5.141,44.719C-5.141,44.719,-16.508,19.346,-16.508,19.346C-17.073,18.083,-18.083,17.073,-19.346,16.508C-19.346,16.508,-44.719,5.141,-44.719,5.141C-49.16,3.152,-49.16,-3.152,-44.719,-5.141C-44.719,-5.141,-19.346,-16.507,-19.346,-16.507C-18.083,-17.073,-17.073,-18.084,-16.508,-19.346C-16.508,-19.346,-5.141,-44.719,-5.141,-44.719C-3.152,-49.159,3.152,-49.159,5.141,-44.719Z; M5.141,-44.719C5.141,-44.719,16.507,-19.346,16.507,-19.346C17.073,-18.084,18.083,-17.073,19.345,-16.507C19.345,-16.507,44.719,-5.141,44.719,-5.141C49.16,-3.152,49.16,3.152,44.719,5.141C44.719,5.141,19.345,16.508,19.345,16.508C18.083,17.073,17.073,18.083,16.507,19.346C16.507,19.346,5.141,44.719,5.141,44.719C3.152,49.16,-3.152,49.16,-5.141,44.719C-5.141,44.719,-16.508,19.346,-16.508,19.346C-17.073,18.083,-18.083,17.073,-19.346,16.508C-19.346,16.508,-44.719,5.141,-44.719,5.141C-49.16,3.152,-49.16,-3.152,-44.719,-5.141C-44.719,-5.141,-19.346,-16.507,-19.346,-16.507C-18.083,-17.073,-17.073,-18.084,-16.508,-19.346C-16.508,-19.346,-5.141,-44.719,-5.141,-44.719C-3.152,-49.159,3.152,-49.159,5.141,-44.719Z" keyTimes="0; 0.253334; 0.5; 0.753333; 0.993333; 1" keySplines="0.333 0 0.667 1; 0.333 0 0.667 1; 0.333 0 0.667 1; 0.333 0 0.667 1; 0 0 1 1" fill="freeze" /></path></g></g></g></g></g></g></g></defs><g transform="matrix(1,0,0,1,0,0)" id="i9"><g clip-path="url(#i0)"><g><g transform="translate(257.5,238.06)"><animateTransform repeatCount="indefinite" type="translate" attributeName="transform" dur="2.5s" begin="0s" calcMode="spline" values="257.5 238.06; 257.5 238.06; 263.326 210.447; 256.5 167.56; 256.5 167.56" keyTimes="0; 0.326667; 0.480834; 0.686667; 1" keySplines="0 0 1 1; 0.333 0 0.667 0.532; 0.333 0.405 0.667 1; 0 0 1 1" fill="freeze" /><g transform="scale(0,0)"><animateTransform repeatCount="indefinite" type="scale" attributeName="transform" dur="2.5s" begin="0s" calcMode="spline" values="0 0; 0 0; 0.7 0.7; 0 0; 0 0" keyTimes="0; 0.373333; 0.526667; 0.686666; 1" keySplines="0 0 1 1; 0.275 0.013 0.317 0.969; 0.394 0 0.593 1; 0 0 1 1" fill="freeze" /><g transform="translate(-22.4,-22.4)"><g transform="matrix(1,0,0,1,22.4,22.4)"><path fill="#10c4e1" d="M22.15,0C22.15,12.233,12.233,22.15,0,22.15C-12.233,22.15,-22.15,12.233,-22.15,0C-22.15,-12.233,-12.233,-22.15,0,-22.15C12.233,-22.15,22.15,-12.233,22.15,0Z" /></g></g></g></g></g><g><g transform="translate(244,246.06)"><animateTransform repeatCount="indefinite" type="translate" attributeName="transform" dur="2.5s" begin="0s" calcMode="spline" values="244 246.06; 244 246.06; 254.326 221.947; 256 163.56" keyTimes="0; 0.626667; 0.765; 1" keySplines="0 0 1 1; 0.333 0 0.667 0.548; 0.333 0.345 0.667 1" fill="freeze" /><g transform="scale(0,0)"><animateTransform repeatCount="indefinite" type="scale" attributeName="transform" dur="2.5s" begin="0s" calcMode="spline" values="0 0; 0 0; 0.6 0.6; 0 0" keyTimes="0; 0.673333; 0.84; 1" keySplines="0 0 1 1; 0.275 0.016 0.317 0.96; 0.394 0 0.593 1" fill="freeze" /><g transform="translate(-22.4,-22.4)"><g transform="matrix(1,0,0,1,22.4,22.4)"><path fill="#11c0e2" d="M22.15,0C22.15,12.233,12.233,22.15,0,22.15C-12.233,22.15,-22.15,12.233,-22.15,0C-22.15,-12.233,-12.233,-22.15,0,-22.15C12.233,-22.15,22.15,-12.233,22.15,0Z" /></g></g></g></g></g><g><g transform="translate(294,261.924)"><animateTransform repeatCount="indefinite" type="translate" attributeName="transform" dur="2.5s" begin="0s" calcMode="spline" values="294 261.924; 294 261.924; 303.208 223.227; 308 172.424; 308 172.424" keyTimes="0; 0.466667; 0.698334; 0.94; 1" keySplines="0 0 1 1; 0.349 0 0.669 0.404; 0.307 0.446 0.625 1; 0 0 1 1" fill="freeze" /><g transform="rotate(0)"><animateTransform repeatCount="indefinite" type="rotate" attributeName="transform" dur="2.5s" begin="0s" calcMode="spline" values="0; 0; -330; -330" keyTimes="0; 0.533333; 0.9; 1" keySplines="0 0 1 1; 0 0 1 1; 0 0 1 1" fill="freeze" /><g transform="scale(0,0)"><animateTransform repeatCount="indefinite" type="scale" attributeName="transform" dur="2.5s" begin="0s" calcMode="spline" values="0 0; 0 0; 0.85 0.85; 0 0; 0 0" keyTimes="0; 0.506667; 0.72; 0.92; 1" keySplines="0 0 1 1; 0.429 0 0.623 1; 0.44 0 0.61 1; 0 0 1 1" fill="freeze" /><g transform="translate(-25.285,-21.931)"><g transform="matrix(1,0,0,1,25.285,21.93)"><path fill="#0bdcdb" d="M-4.33,-18.347C-4.33,-18.347,-23.11,14.18,-23.11,14.18C-25.035,17.514,-22.629,21.68,-18.78,21.68C-18.78,21.68,18.78,21.68,18.78,21.68C22.629,21.68,25.035,17.514,23.111,14.18C23.111,14.18,4.33,-18.347,4.33,-18.347C2.406,-21.68,-2.406,-21.68,-4.33,-18.347C-4.33,-18.347,-23.11,14.18,-23.11,14.18C-25.035,17.514,-22.629,21.68,-18.78,21.68C-18.78,21.68,18.78,21.68,18.78,21.68C22.629,21.68,25.035,17.514,23.111,14.18C23.111,14.18,4.33,-18.347,4.33,-18.347C2.406,-21.68,-2.406,-21.68,-4.33,-18.347Z" /></g></g></g></g></g></g><g><g transform="translate(231.5,234.262)"><animateTransform repeatCount="indefinite" type="translate" attributeName="transform" dur="2.5s" begin="0s" calcMode="spline" values="231.5 234.262; 231.5 234.262; 217 209.262; 218.5 167.262; 218.5 167.262" keyTimes="0; 0.186667; 0.358527; 0.58; 1" keySplines="0 0 1 1; 0.333 0 0.667 1; 0.333 0 0.667 1; 0 0 1 1" fill="freeze" /><g transform="rotate(0)"><animateTransform repeatCount="indefinite" type="rotate" attributeName="transform" dur="2.5s" begin="0s" calcMode="spline" values="0; 0; 270; 270" keyTimes="0; 0.186667; 0.58; 1" keySplines="0 0 1 1; 0 0 1 1; 0 0 1 1" fill="freeze" /><g transform="scale(0,0)"><animateTransform repeatCount="indefinite" type="scale" attributeName="transform" dur="2.5s" begin="0s" calcMode="spline" values="0 0; 0 0; 1 1; 0 0; 0 0" keyTimes="0; 0.186667; 0.36; 0.58; 1" keySplines="0 0 1 1; 0.333 0 0.311 1; 0.742 0 0.667 1; 0 0 1 1" fill="freeze" /><g transform="translate(-26.551,-26.551)"><g transform="matrix(1,0,0,1,26.551,26.551)"><path fill="#11bde3" d="M18.782,-7.519C18.782,-7.519,7.519,-7.519,7.519,-7.519C7.519,-7.519,7.519,-18.782,7.519,-18.782C7.519,-22.935,4.153,-26.301,0,-26.301C-4.153,-26.301,-7.519,-22.935,-7.519,-18.782C-7.519,-18.782,-7.519,-7.519,-7.519,-7.519C-7.519,-7.519,-18.782,-7.519,-18.782,-7.519C-22.935,-7.519,-26.301,-4.153,-26.301,0C-26.301,4.153,-22.935,7.519,-18.782,7.519C-18.782,7.519,-7.519,7.519,-7.519,7.519C-7.519,7.519,-7.519,18.782,-7.519,18.782C-7.519,22.935,-4.153,26.301,0,26.301C4.153,26.301,7.519,22.935,7.519,18.782C7.519,18.782,7.519,7.519,7.519,7.519C7.519,7.519,18.782,7.519,18.782,7.519C22.935,7.519,26.301,4.153,26.301,0C26.301,-4.153,22.935,-7.519,18.782,-7.519Z" /></g></g></g></g></g></g><g><g transform="translate(210,297)"><animateTransform repeatCount="indefinite" type="translate" attributeName="transform" dur="2.5s" begin="0s" calcMode="spline" values="210 297; 290 297; 210 297; 210 297" keyTimes="0; 0.5; 0.993333; 1" keySplines="0.507 0 0.52 1; 0.46 0 0.505 1; 0 0 1 1" fill="freeze" /><g transform="rotate(-7)"><animateTransform repeatCount="indefinite" type="rotate" attributeName="transform" dur="2.5s" begin="0s" calcMode="spline" values="-7; 7; -7; -7" keyTimes="0; 0.5; 0.993333; 1" keySplines="0.69 0 0.555 1; 0.748 0 0.452 1; 0 0 1 1" fill="freeze" /><g transform="scale(0.9,0.9)"><animateTransform repeatCount="indefinite" type="scale" attributeName="transform" dur="2.5s" begin="0s" calcMode="spline" values="0.9 0.9; 1 1; 0.9 0.9; 1 1; 0.9 0.9; 0.9 0.9" keyTimes="0; 0.253334; 0.5; 0.753333; 0.993333; 1" keySplines="0.724 0 0.667 0.778; 0.424 0 0.667 1; 0.689 0 0.663 0.773; 0.482 0 0.667 1; 0 0 1 1" fill="freeze" /><g transform="translate(-49.41,-96.409)"><g transform="matrix(1,0,0,1,49.41,49.41)"><path d="M5.141,-44.719C5.141,-44.719,16.507,-19.346,16.507,-19.346C17.073,-18.084,18.083,-17.073,19.345,-16.507C19.345,-16.507,44.719,-5.141,44.719,-5.141C49.16,-3.152,49.16,3.152,44.719,5.141C44.719,5.141,19.345,16.508,19.345,16.508C18.083,17.073,17.073,18.083,16.507,19.346C16.507,19.346,5.141,44.719,5.141,44.719C3.152,49.16,-3.152,49.16,-5.141,44.719C-5.141,44.719,-16.508,19.346,-16.508,19.346C-17.073,18.083,-18.083,17.073,-19.346,16.508C-19.346,16.508,-44.719,5.141,-44.719,5.141C-49.16,3.152,-49.16,-3.152,-44.719,-5.141C-44.719,-5.141,-19.346,-16.507,-19.346,-16.507C-18.083,-17.073,-17.073,-18.084,-16.508,-19.346C-16.508,-19.346,-5.141,-44.719,-5.141,-44.719C-3.152,-49.159,3.152,-49.159,5.141,-44.719Z" fill="url(#i1)"><animate repeatCount="indefinite" attributeName="d" dur="2.5s" begin="0s" calcMode="spline" values="M5.141,-44.719C5.141,-44.719,16.507,-19.346,16.507,-19.346C17.073,-18.084,18.083,-17.073,19.345,-16.507C19.345,-16.507,44.719,-5.141,44.719,-5.141C49.16,-3.152,49.16,3.152,44.719,5.141C44.719,5.141,19.345,16.508,19.345,16.508C18.083,17.073,17.073,18.083,16.507,19.346C16.507,19.346,5.141,44.719,5.141,44.719C3.152,49.16,-3.152,49.16,-5.141,44.719C-5.141,44.719,-16.508,19.346,-16.508,19.346C-17.073,18.083,-18.083,17.073,-19.346,16.508C-19.346,16.508,-44.719,5.141,-44.719,5.141C-49.16,3.152,-49.16,-3.152,-44.719,-5.141C-44.719,-5.141,-19.346,-16.507,-19.346,-16.507C-18.083,-17.073,-17.073,-18.084,-16.508,-19.346C-16.508,-19.346,-5.141,-44.719,-5.141,-44.719C-3.152,-49.159,3.152,-49.159,5.141,-44.719Z; M-3.394,-44.085C-3.394,-44.085,14.009,-19.453,14.009,-19.453C14.575,-18.191,15.585,-17.181,16.847,-16.615C16.847,-16.615,39.874,-8.853,39.874,-8.853C44.315,-6.864,44.315,-0.56,39.874,1.429C39.874,1.429,19.345,16.508,19.345,16.508C18.083,17.073,17.073,18.083,16.507,19.346C16.507,19.346,1.142,43.299,1.142,43.299C-0.847,47.74,-7.151,47.74,-9.14,43.299C-9.14,43.299,-16.508,19.346,-16.508,19.346C-17.073,18.083,-18.083,17.073,-19.346,16.508C-19.346,16.508,-44.327,7.66,-44.327,7.66C-48.768,5.671,-48.768,-0.633,-44.327,-2.622C-44.327,-2.622,-21.844,-16.615,-21.844,-16.615C-20.581,-17.181,-19.571,-18.191,-19.006,-19.453C-19.006,-19.453,-13.676,-44.085,-13.676,-44.085C-11.687,-48.525,-5.383,-48.525,-3.394,-44.085Z; M5.141,-44.719C5.141,-44.719,16.507,-19.346,16.507,-19.346C17.073,-18.084,18.083,-17.073,19.345,-16.507C19.345,-16.507,44.719,-5.141,44.719,-5.141C49.16,-3.152,49.16,3.152,44.719,5.141C44.719,5.141,19.345,16.508,19.345,16.508C18.083,17.073,17.073,18.083,16.507,19.346C16.507,19.346,5.141,44.719,5.141,44.719C3.152,49.16,-3.152,49.16,-5.141,44.719C-5.141,44.719,-16.508,19.346,-16.508,19.346C-17.073,18.083,-18.083,17.073,-19.346,16.508C-19.346,16.508,-44.719,5.141,-44.719,5.141C-49.16,3.152,-49.16,-3.152,-44.719,-5.141C-44.719,-5.141,-19.346,-16.507,-19.346,-16.507C-18.083,-17.073,-17.073,-18.084,-16.508,-19.346C-16.508,-19.346,-5.141,-44.719,-5.141,-44.719C-3.152,-49.159,3.152,-49.159,5.141,-44.719Z; M12.174,-43.987C12.174,-43.987,18.006,-19.403,18.006,-19.403C18.572,-18.141,19.582,-17.131,20.844,-16.565C20.844,-16.565,44.296,-3.124,44.296,-3.124C48.737,-1.135,48.737,5.169,44.296,7.158C44.296,7.158,19.345,16.508,19.345,16.508C18.083,17.073,17.073,18.083,16.507,19.346C16.507,19.346,7.088,43.301,7.088,43.301C5.099,47.742,-1.205,47.742,-3.194,43.301C-3.194,43.301,-16.508,19.346,-16.508,19.346C-17.073,18.083,-18.083,17.073,-19.346,16.508C-19.346,16.508,-40.913,-0.008,-40.913,-0.008C-45.354,-1.997,-45.354,-8.301,-40.913,-10.29C-40.913,-10.29,-17.847,-16.565,-17.847,-16.565C-16.584,-17.131,-15.574,-18.141,-15.009,-19.403C-15.009,-19.403,1.892,-43.987,1.892,-43.987C3.881,-48.427,10.185,-48.427,12.174,-43.987Z; M5.141,-44.719C5.141,-44.719,16.507,-19.346,16.507,-19.346C17.073,-18.084,18.083,-17.073,19.345,-16.507C19.345,-16.507,44.719,-5.141,44.719,-5.141C49.16,-3.152,49.16,3.152,44.719,5.141C44.719,5.141,19.345,16.508,19.345,16.508C18.083,17.073,17.073,18.083,16.507,19.346C16.507,19.346,5.141,44.719,5.141,44.719C3.152,49.16,-3.152,49.16,-5.141,44.719C-5.141,44.719,-16.508,19.346,-16.508,19.346C-17.073,18.083,-18.083,17.073,-19.346,16.508C-19.346,16.508,-44.719,5.141,-44.719,5.141C-49.16,3.152,-49.16,-3.152,-44.719,-5.141C-44.719,-5.141,-19.346,-16.507,-19.346,-16.507C-18.083,-17.073,-17.073,-18.084,-16.508,-19.346C-16.508,-19.346,-5.141,-44.719,-5.141,-44.719C-3.152,-49.159,3.152,-49.159,5.141,-44.719Z; M5.141,-44.719C5.141,-44.719,16.507,-19.346,16.507,-19.346C17.073,-18.084,18.083,-17.073,19.345,-16.507C19.345,-16.507,44.719,-5.141,44.719,-5.141C49.16,-3.152,49.16,3.152,44.719,5.141C44.719,5.141,19.345,16.508,19.345,16.508C18.083,17.073,17.073,18.083,16.507,19.346C16.507,19.346,5.141,44.719,5.141,44.719C3.152,49.16,-3.152,49.16,-5.141,44.719C-5.141,44.719,-16.508,19.346,-16.508,19.346C-17.073,18.083,-18.083,17.073,-19.346,16.508C-19.346,16.508,-44.719,5.141,-44.719,5.141C-49.16,3.152,-49.16,-3.152,-44.719,-5.141C-44.719,-5.141,-19.346,-16.507,-19.346,-16.507C-18.083,-17.073,-17.073,-18.084,-16.508,-19.346C-16.508,-19.346,-5.141,-44.719,-5.141,-44.719C-3.152,-49.159,3.152,-49.159,5.141,-44.719Z" keyTimes="0; 0.253334; 0.5; 0.753333; 0.993333; 1" keySplines="0.333 0 0.667 1; 0.333 0 0.667 1; 0.333 0 0.667 1; 0.333 0 0.667 1; 0 0 1 1" fill="freeze" /></path></g></g></g></g></g></g></g></g></svg>