<svg fill="none" height="100%" width="100%" viewBox="0 0 1080 1080" xmlns:xlink="http://www.w3.org/1999/xlink" xmlns="http://www.w3.org/2000/svg"><defs><filter id="i0"><feComponentTransfer in="SourceGraphic"><feFuncA tableValues="1 0" type="table" /></feComponentTransfer></filter><mask height="20000" width="20000" y="-10000" x="-10000" maskContentUnits="userSpaceOnUse" maskUnits="userSpaceOnUse" style="mask-type: alpha" mask-type="alpha" id="i1"><g filter="url(#i0)"><rect opacity="0" fill="#ffffff" height="1080" width="1080" y="0" x="0" /><g transform="matrix(1,0,0,1,-540,-535)"><g transform="matrix(1,0,0,1,540,504)"><g id="i2" transform="matrix(1,0,0,1,61.977,491.945)"><rect height="303.891" width="835.953" y="-151.946" x="-417.976" stroke-width="8" stroke="#ffffff" fill="#ff0000" /></g></g></g></g></mask></defs><g id="i3"><g transform="translate(237,879.955)"><g transform="scale(0,1)"><animateTransform repeatCount="indefinite" type="scale" attributeName="transform" dur="1.333s" begin="0s" calcMode="spline" values="0 1; 1 1; 1 1" keyTimes="0; 0.25; 1" keySplines="0.724 0 0.239 1; 0 0 1 1" fill="freeze" /><g transform="translate(303,-345.955)"><g id="i2" transform="matrix(1,0,0,1,4.305,345.955)"><rect height="29.91" width="614.609" y="-14.955" x="-307.305" stroke-width="8" stroke="#ffffff" fill="#00d4bd" /></g></g></g></g></g><g mask="url(#i1)" transform="matrix(1,0,0,1,540,535)" id="i4"><g><g id="i2" transform="translate(192.02,500)"><animateTransform repeatCount="indefinite" type="translate" attributeName="transform" dur="1.333s" begin="0s" calcMode="spline" values="192.02 500; 192.02 500; 192.02 123.711; 192.02 123.711" keyTimes="0; 0.28125; 0.4375; 1" keySplines="0 0 1 1; 0.2 0 0.6 1; 0 0 1 1" fill="freeze" /><rect height="373.422" width="168.039" y="-186.711" x="-84.019" stroke-width="8" stroke="#ffffff" fill="#e54281" /></g></g><g><g id="i5" transform="translate(1.02,500)"><animateTransform repeatCount="indefinite" type="translate" attributeName="transform" dur="1.333s" begin="0s" calcMode="spline" values="1.02 500; 1.02 500; 1.02 229.711; 1.02 229.711" keyTimes="0; 0.203125; 0.359374; 1" keySplines="0 0 1 1; 0.2 0 0.6 1; 0 0 1 1" fill="freeze" /><rect height="373.422" width="168.039" y="-186.711" x="-84.019" stroke-width="8" stroke="#ffffff" fill="#f88951" /></g></g><g><g id="i6" transform="translate(-189.98,500)"><animateTransform repeatCount="indefinite" type="translate" attributeName="transform" dur="1.333s" begin="0s" calcMode="spline" values="-189.98 500; -189.98 500; -189.98 317.711; -189.98 317.711" keyTimes="0; 0.125; 0.28125; 1" keySplines="0 0 1 1; 0.2 0 0.6 1; 0 0 1 1" fill="freeze" /><rect height="373.422" width="168.039" y="-186.711" x="-84.019" stroke-width="8" stroke="#ffffff" fill="#ffb64d" /></g></g></g><g display="none" transform="matrix(1,0,0,1,540,504)" id="i7"><g id="i2" transform="matrix(1,0,0,1,61.977,491.945)"><rect height="303.891" width="835.953" y="-151.946" x="-417.976" stroke-width="8" stroke="#ffffff" fill="#ff0000" /></g></g><g id="i8"><g transform="translate(231.122,474)"><animateTransform repeatCount="indefinite" type="translate" attributeName="transform" dur="1.333s" begin="0s" calcMode="spline" values="231.122 474; 231.122 474; 285.122 496.194; 285.122 496.194" keyTimes="0; 0.375; 0.725; 1" keySplines="0 0 1 1; 0 0 1 1; 0 0 1 1" fill="freeze" /><g transform="rotate(30)"><animateTransform repeatCount="indefinite" type="rotate" attributeName="transform" dur="1.333s" begin="0s" calcMode="spline" values="30; 30; 0; 0" keyTimes="0; 0.375; 0.75; 1" keySplines="0 0 1 1; 0.2 0 0.6 1; 0 0 1 1" fill="freeze" /><g transform="scale(0,0)"><animateTransform repeatCount="indefinite" type="scale" attributeName="transform" dur="1.333s" begin="0s" calcMode="spline" values="0 0; 0 0; 0.75 0.75; 0.75 0.75" keyTimes="0; 0.375; 0.75; 1" keySplines="0 0 1 1; 0.2 0 0.6 1; 0 0 1 1" fill="freeze" /><g id="f9"><g transform="translate(-16,-420)"><g id="i10" transform="matrix(1,0,0,1,330.343,249.956)"><path fill="#009ef7" d="M120.048,-174.759C120.048,-174.759,187.234,-141.965,187.234,-141.965C42.686,200.647,-330.094,170.842,-330.094,170.842C32.112,249.706,174.298,61.1,264.268,-91.832C264.268,-91.832,330.094,-52.335,330.094,-52.335C330.094,-52.335,296.719,-249.707,296.719,-249.707C296.719,-249.707,120.048,-174.759,120.048,-174.759Z" /></g></g></g></g></g></g></g></svg>