<svg fill="none" height="100%" width="100%" viewBox="0 0 2000 2000" xmlns:xlink="http://www.w3.org/1999/xlink" xmlns="http://www.w3.org/2000/svg"><g id="i0"><g transform="translate(616,1208)"><g transform="rotate(0)"><animateTransform repeatCount="indefinite" type="rotate" attributeName="transform" dur="2s" begin="0s" calcMode="spline" values="0; 8; -5; -5; 8; 0; 0" keyTimes="0; 0.1; 0.2; 0.5; 0.6; 0.7; 1" keySplines="0.333 0 0.667 1; 0.333 0 0.667 1; 0.333 0 0.667 1; 0.333 0 0.667 1; 0.333 0 0.667 1; 0 0 1 1" fill="freeze" /><g transform="scale(1,1)"><animateTransform repeatCount="indefinite" type="scale" attributeName="transform" dur="2s" begin="0s" calcMode="spline" values="1 1; 0.91 0.91; 1 1; 0.91 0.91; 1 1; 1 1; 0.91 0.91; 1 1; 0.91 0.91; 1 1; 1 1" keyTimes="0; 0.06; 0.12; 0.18; 0.24; 0.5; 0.56; 0.62; 0.68; 0.74; 1" keySplines="0.333 0 0.667 1; 0.333 0 0.667 1; 0.333 0 0.667 1; 0.333 0 0.667 1; 0.333 0 0.667 1; 0.333 0 0.667 1; 0.333 0 0.667 1; 0.333 0 0.667 1; 0.333 0 0.667 1; 0 0 1 1" fill="freeze" /><g transform="translate(-616,-1208)"><g id="i1" transform="matrix(1,0,0,1,1283.565,1321.472)"><path fill="#92c7c2" d="M-173.703,-101.841C-193.344,-73.447,-157.22,46.736,-57.88,99.185C36.786,149.167,116.415,144.259,164.16,81.254C207.973,23.438,149.166,-73.913,49.409,-112.753C-25.219,-141.809,-146.705,-140.871,-173.703,-101.841Z" /></g><g id="i2" transform="matrix(1,0,0,1,1323.99,1128)"><path fill="#92c7c2" d="M-204.811,81.828C-197.092,119.01,-68.373,171.18,48.755,131.837C160.374,94.345,231.358,-5.017,197.04,-73.98C161.493,-145.414,54.319,-169.365,-52.286,-119.367C-132.037,-81.963,-215.422,30.718,-204.811,81.828Z" /></g><g id="i3" transform="matrix(1,0,0,1,1326.52,1132.98)"><path fill="#ffffff" d="M-169.803,68.454C-169.803,68.454,-88.681,31.412,-0.877,-3.987C84.528,-38.42,168.971,-71.592,169.779,-68.47C171.416,-62.138,95.703,-33.404,6.701,3.584C-82.302,40.572,-168.236,71.603,-169.803,68.454Z" /></g><g id="i4" transform="matrix(1,0,0,1,1288.78,1316.99)"><path fill="#ffffff" d="M-153.52,-81.288C-153.52,-81.288,-127.192,-72.783,-49.681,-33.942C25.713,3.837,155.274,78.566,153.557,81.037C150.074,86.047,28.868,14.62,-50.481,-24.074C-129.829,-62.768,-154.802,-78.277,-153.52,-81.288Z" /></g></g></g></g></g></g><g id="i5"><g transform="translate(632,1212)"><g transform="rotate(0)"><animateTransform repeatCount="indefinite" type="rotate" attributeName="transform" dur="2s" begin="0s" calcMode="spline" values="0; 8; -5; -5; 8; 0; 0" keyTimes="0; 0.1; 0.2; 0.5; 0.6; 0.7; 1" keySplines="0.333 0 0.667 1; 0.333 0 0.667 1; 0.333 0 0.667 1; 0.333 0 0.667 1; 0.333 0 0.667 1; 0 0 1 1" fill="freeze" /><g transform="scale(1,1)"><animateTransform repeatCount="indefinite" type="scale" attributeName="transform" dur="2s" begin="0s" calcMode="spline" values="1 1; 0.91 0.91; 1 1; 0.91 0.91; 1 1; 1 1; 0.91 0.91; 1 1; 0.91 0.91; 1 1; 1 1" keyTimes="0; 0.06; 0.12; 0.18; 0.24; 0.5; 0.56; 0.62; 0.68; 0.74; 1" keySplines="0.333 0 0.667 1; 0.333 0 0.667 1; 0.333 0 0.667 1; 0.333 0 0.667 1; 0.333 0 0.667 1; 0.333 0 0.667 1; 0.333 0 0.667 1; 0.333 0 0.667 1; 0.333 0 0.667 1; 0 0 1 1" fill="freeze" /><g transform="translate(-632,-1212)"><g id="i1" transform="matrix(1,0,0,1,446.733,1272.631)"><path fill="#92c7c2" d="M189.751,-45.954C200.504,-13.146,131.687,91.798,21.533,113.824C-83.44,134.815,-158.384,107.461,-186.236,33.477C-211.794,-34.412,-127.725,-111.016,-21.042,-119.877C58.769,-126.506,174.97,-91.051,189.751,-45.954Z" /></g><g id="i2" transform="matrix(1,0,0,1,451.523,1077.202)"><path fill="#92c7c2" d="M178.818,137.426C160.842,170.877,22.601,184.279,-78.499,113.246C-174.843,45.553,-214.633,-69.895,-162.117,-126.248C-107.72,-184.62,1.84,-177.098,89.82,-98.842C155.639,-40.299,203.528,91.445,178.818,137.426Z" /></g><g id="i3" transform="matrix(1,0,0,1,452.941,1071.752)"><path fill="#ffffff" d="M139.69,107.268C139.69,107.268,75.925,52.994,1.818,-5.918C-70.266,-63.221,-137.897,-110.02,-139.559,-107.257C-142.929,-101.652,-81.217,-57.157,-6.412,3.619C68.394,64.394,137.292,109.841,139.69,107.268Z" /></g><g id="i4" transform="matrix(1,0,0,1,437.281,1269.326)"><path fill="#ffffff" d="M170.283,-34.467C170.283,-34.467,142.623,-33.802,57.266,-18.613C-25.76,-3.838,-171.224,30.951,-170.281,33.808C-168.367,39.603,-31.851,5.601,55.226,-8.925C142.303,-23.451,170.655,-31.216,170.283,-34.467Z" /></g></g></g></g></g></g><g id="i6"><g transform="translate(860,1698)"><animateTransform repeatCount="indefinite" type="translate" attributeName="transform" dur="2s" begin="0s" calcMode="spline" values="860 1698; 831 1698; 883 1698; 883 1698; 831 1698; 860 1698; 860 1698" keyTimes="0; 0.1; 0.2; 0.5; 0.6; 0.7; 1" keySplines="0.333 0 0.667 1; 0.333 0 0.667 1; 0 0 1 1; 0.333 0 0.667 1; 0.333 0 0.667 1; 0 0 1 1" fill="freeze" /><g transform="scale(1,1) translate(-860,-1708)"><g id="i4" transform="matrix(1,0,0,1,874.918,1756.263)"><path fill="#402f2d" d="M-104.833,-63.371C-104.833,-63.371,-13.823,51.297,-13.823,51.297C-4.24,63.371,14.16,63.152,23.452,50.854C23.452,50.854,104.833,-56.86,104.833,-56.86C104.833,-56.86,-9.158,-27.252,-104.833,-63.371Z" /></g></g></g></g><g id="i7"><g transform="translate(592,1220)"><g transform="rotate(0)"><animateTransform repeatCount="indefinite" type="rotate" attributeName="transform" dur="2s" begin="0s" calcMode="spline" values="0; 4; -6; -6; 4; 0; 0" keyTimes="0; 0.1; 0.2; 0.5; 0.6; 0.7; 1" keySplines="0.333 0 0.667 1; 0.333 0 0.667 1; 0.333 0 0.667 1; 0.333 0 0.667 1; 0.333 0 0.667 1; 0 0 1 1" fill="freeze" /><g transform="scale(1,1) translate(-592,-1220)"><g id="i4" transform="matrix(1,0,0,1,500.301,1320.535)"><path fill="#402f2d" d="M3.032,149.63C3.032,149.63,-117.398,66.156,-97.992,-27.639C-86.555,-82.916,39.247,-149.63,117.398,-138.193C117.398,-138.193,86.901,-81.01,86.901,-81.01C86.901,-81.01,-42.715,-46.09,-42.715,-10.484C-42.715,25.123,6.844,100.071,6.844,100.071C6.844,100.071,3.032,149.63,3.032,149.63Z" /></g></g></g></g></g><g id="i8"><g transform="translate(1088,1234)"><animateTransform repeatCount="indefinite" type="translate" attributeName="transform" dur="2s" begin="0s" calcMode="spline" values="1088 1234; 1088 1258; 1088 1258; 1088 1234; 1088 1234" keyTimes="0; 0.1; 0.44; 0.62; 1" keySplines="0 0 1 1; 0 0 1 1; 0 0 1 1; 0 0 1 1" fill="freeze" /><g transform="rotate(0)"><animateTransform repeatCount="indefinite" type="rotate" attributeName="transform" dur="2s" begin="0s" calcMode="spline" values="0; -6; -12; -12; -6; 0; 0" keyTimes="0; 0.06; 0.1; 0.44; 0.5; 0.6; 1" keySplines="0 0 1 1; 0 0 1 1; 0 0 1 1; 0 0 1 1; 0 0 1 1; 0 0 1 1" fill="freeze" /><g transform="scale(1,1) translate(-1124,-1220)"><g id="i4" transform="matrix(1,0,0,1,1302.985,1270.836)"><path fill="#402f2d" d="M-177.352,-37.357C-177.352,-37.357,-60.042,104.836,54.324,93.4C168.691,81.963,185.846,45.747,185.846,45.747C185.846,45.747,187.752,-7.625,187.752,-7.625C187.752,-7.625,101.977,51.465,52.418,43.841C2.859,36.216,-168.691,-104.836,-187.752,-101.024C-187.752,-101.024,-177.352,-37.357,-177.352,-37.357Z" /></g></g></g></g></g><g id="i9"><g transform="translate(1448,1300)"><animateTransform repeatCount="indefinite" type="translate" attributeName="transform" dur="2s" begin="0s" calcMode="spline" values="1448 1300; 1448 1300; 1440 1256; 1440 1256; 1448 1269.498; 1448 1300; 1448 1300" keyTimes="0; 0.06; 0.1; 0.44; 0.5; 0.56; 1" keySplines="0 0 1 1; 0 0 1 1; 0 0 1 1; 0 0 1 1; 0 0 1 1; 0 0 1 1" fill="freeze" /><g transform="rotate(0)"><animateTransform repeatCount="indefinite" type="rotate" attributeName="transform" dur="2s" begin="0s" calcMode="spline" values="0; -55; -46; -30; 0; 0" keyTimes="0; 0.16; 0.46; 0.5; 0.64; 1" keySplines="0 0 1 1; 0 0 1 1; 0 0 1 1; 0 0 1 1; 0 0 1 1" fill="freeze" /><g transform="scale(1,1) translate(-1448,-1300)"><g id="i3" transform="matrix(1,0,0,1,1427.165,1282.217)"><path fill="#ffffff" d="M5.17,70.919C-35.221,71.858,-28.918,15.582,-21.131,-1.409C-10.799,-23.953,-21.073,-59.552,-6.102,-64.343C17.381,-71.858,31.471,-8.923,31.471,24.892C31.471,33.649,35.22,70.22,5.17,70.919Z" /></g><g id="i4" transform="matrix(1,0,0,1,1427.647,1284.774)"><path fill="#402f2d" fill-rule="evenodd" d="M3.732,72.183C-8.154,72.183,-17.567,67.405,-23.544,58.328C-35.634,39.957,-31.044,7.472,-25.076,-5.553C-20.804,-14.874,-20.286,-27.161,-19.831,-38.002C-19.2,-52.94,-18.605,-67.051,-7.743,-70.526C-2.578,-72.183,2.649,-71.234,7.373,-67.789C25.03,-54.898,34.798,-6.318,34.798,22.335C34.798,23.034,34.825,23.915,34.851,24.945C35.107,33.98,35.634,52.776,25.075,63.894C20.044,69.19,13.216,71.975,4.779,72.171C4.428,72.177,4.077,72.183,3.732,72.183ZM4.69,68.363C4.69,68.363,4.72,68.363,4.72,68.363C4.72,68.363,4.69,68.363,4.69,68.363ZM-2.748,-63.71C-3.623,-63.71,-4.512,-63.564,-5.423,-63.273C-11.221,-61.416,-11.706,-49.888,-12.22,-37.681C-12.706,-26.141,-13.256,-13.059,-18.15,-2.382C-23.341,8.944,-27.581,38.338,-17.183,54.139C-12.42,61.38,-5.185,64.822,4.601,64.555C11.027,64.406,15.918,62.475,19.554,58.649C27.931,49.828,27.464,33.168,27.238,25.159C27.208,24.043,27.182,23.091,27.182,22.335C27.182,-4.669,17.715,-50.81,2.884,-61.636C0.977,-63.029,-0.859,-63.71,-2.748,-63.71Z" /></g></g></g></g></g><g id="i10"><g transform="translate(888,1208)"><g transform="rotate(0)"><animateTransform repeatCount="indefinite" type="rotate" attributeName="transform" dur="2s" begin="0s" calcMode="spline" values="0; 4; -5; -5; 4; 0; 0" keyTimes="0; 0.1; 0.2; 0.5; 0.6; 0.7; 1" keySplines="0 0 1 1; 0 0 1 1; 0 0 1 1; 0 0 1 1; 0 0 1 1; 0 0 1 1" fill="freeze" /><g transform="scale(1,1) translate(-888,-1208)"><g id="i11" transform="matrix(1,0,0,1,875.294,1441.944)"><path fill="#ffda63" d="M335.112,79.929C280.651,194.558,138.615,266.609,3.135,279.982C-165.362,273.231,-299.993,189.981,-346.787,114.459C-387.587,48.611,-388.216,-22.307,-367.597,-94.149C-351.546,-150.077,-276.637,-234.329,-240.409,-265.684C-144.869,-191.09,48.254,-185.022,177.865,-279.982C222.787,-253.276,265.02,-216.26,290.254,-183.014C332.31,-127.603,388.217,-31.846,335.112,79.929Z" /></g><g id="i12" transform="matrix(1,0,0,1,861.753,1579.09)"><path fill="#402f2d" d="M282.241,30.627C310.109,5.107,333.008,-24.288,348.653,-57.217C351.462,-63.13,353.949,-68.995,356.165,-74.814C256.603,-42.73,155.479,-28.896,64.929,-26.518C-14.456,-24.434,-85.724,-31.835,-140.552,-34.295C-238.884,-38.705,-314.101,-59.599,-356.165,-71.639C-350.724,-55.061,-343.182,-38.723,-333.246,-22.687C-321.689,-4.035,-304.755,15.085,-283.295,33.411C-275.867,38.06,-268.409,41.719,-260.629,43.35C-77.331,74.813,107.4,70.388,282.241,30.627Z" /></g><g id="i13" transform="matrix(1,0,0,1,860.636,1371.807)"><path fill="#402f2d" d="M319,-93.321C297.616,-71.755,227.188,-35.766,118.125,-19.122C21.103,-4.316,-94.882,-9.113,-173.378,-19.122C-248.77,-28.736,-315.265,-49.866,-332.161,-65.514C-332.597,-65.712,-333.11,-65.935,-333.651,-66.173C-342.399,-51.28,-349.243,-36.891,-352.94,-24.011C-357.823,-6.995,-361.496,9.968,-363.745,26.826C-342.553,50.958,-278.944,63.318,-250.302,69.948C-195.221,82.699,-82.037,93.322,4.764,90.191C136.726,85.432,207.196,67.249,266.577,49.705C325.104,32.413,351.598,13.267,363.745,0.106C354.027,-36.054,336.479,-67.703,319,-93.321Z" /></g><g id="i14" transform="matrix(1,0,0,1,855.866,1209.591)"><path fill="#664b46" d="M-221.402,-73.656C-237.032,-90.7,-273.712,-83.966,-278.643,-67.036C-283.058,-51.881,-281.492,-36.646,-256.602,-32.02C-309.722,-24.403,-296.905,20.676,-253.041,14.986C-275.655,44.086,-240.877,64.073,-212.992,36.673C-229.595,66.055,-187.781,75.652,-169.48,56.331C-178.528,84.621,-127.145,104.338,-118.75,69.532C-122.197,101.723,-74.79,107.093,-68.877,81.173C-65.073,106.971,-24.396,118.531,-12.911,85.406C-5.888,115.745,41.26,115.421,45.965,82.35C54.772,106.474,91.219,110.853,91.826,80.754C98.04,109.851,152.535,108.429,143.572,70.636C158.635,89.426,190.99,93.425,195.009,60.693C206.824,77.778,247.568,80.602,238.313,47.115C271.368,66.001,305.063,33.867,272.957,18.355C307.41,22.967,309.722,-22.046,274.407,-17.01C289.556,-50.468,253.083,-69.489,230.263,-50.62C219.707,-85.691,189.19,-68.429,180.846,-45.395C175.112,-81.442,140.406,-72.903,127.266,-48.875C121.969,-96.652,70.823,-63.616,58.122,-39.745C42.011,-65.734,13.677,-73.927,-8.918,-45.225C-11.688,-85.877,-55.042,-71.926,-68.287,-48.401C-70.055,-89.494,-109.914,-75.567,-124.968,-54.542C-126.942,-85.194,-164.993,-96.729,-176.723,-64.677C-169.229,-118.531,-216.329,-91.682,-221.402,-73.656Z" /></g><g id="i15" transform="matrix(1,0,0,1,1105.635,1206.214)"><path fill="#402f2d" d="M6.667,-3.263C5.605,-3.623,4.125,-3.65,3.04,-3.392C1.97,-3.138,0.965,-2.763,-0.057,-2.361C-2.126,-1.546,-4.204,-0.75,-6.281,0.047C-7.16,0.384,-7.766,1.221,-7.499,2.193C-7.246,3.113,-6.268,3.651,-5.354,3.411C-3.174,2.838,-0.993,2.265,1.191,1.712C2.296,1.432,3.355,1.107,4.415,0.685C5.493,0.257,6.648,-0.7,7.324,-1.644C7.765,-2.259,7.282,-3.054,6.667,-3.263Z" /></g><g id="i16" transform="matrix(1,0,0,1,1090.632,1193.578)"><path fill="#402f2d" d="M5.182,-3.567C4.82,-4.129,4.28,-4.624,3.609,-4.776C2.97,-4.922,2.127,-4.931,1.581,-4.51C-0.358,-3.018,-2.298,-1.527,-4.237,-0.035C-4.806,0.403,-5.249,0.816,-5.448,1.538C-5.621,2.168,-5.542,3.007,-5.182,3.566C-4.819,4.128,-4.281,4.623,-3.609,4.776C-2.97,4.921,-2.127,4.931,-1.58,4.51C0.359,3.018,2.298,1.526,4.238,0.034C4.807,-0.404,5.249,-0.817,5.447,-1.539C5.621,-2.169,5.542,-3.008,5.182,-3.567Z" /></g><g id="i17" transform="matrix(1,0,0,1,1078.587,1233.564)"><path fill="#402f2d" d="M3.661,3.323C3.441,2.927,3.214,2.539,3.009,2.134C3.009,2.134,1.734,-0.374,1.734,-0.374C0.87,-2.074,0.005,-3.774,-0.859,-5.475C-1.244,-6.232,-2.371,-6.513,-3.078,-6.057C-3.86,-5.553,-4.062,-4.655,-3.661,-3.838C-2.833,-2.154,-2.005,-0.469,-1.177,1.215C-0.777,2.029,-0.377,2.842,0.023,3.655C0.224,4.064,0.416,4.472,0.594,4.891C0.875,5.554,1.333,5.867,1.951,6.175C2.63,6.512,3.68,6.277,3.839,5.406C3.981,4.634,4.062,4.047,3.661,3.323Z" /></g><g id="i18" transform="matrix(1,0,0,1,1046.326,1231.18)"><path fill="#402f2d" d="M2.744,-0.234C2.625,-2.259,2.506,-4.285,2.387,-6.31C2.314,-7.554,1.341,-8.757,0,-8.697C-1.356,-8.636,-2.309,-7.648,-2.387,-6.31C-2.506,-4.285,-2.625,-2.259,-2.744,-0.234C-2.863,1.788,-2.834,3.817,-2.846,5.843C-2.856,7.332,-1.531,8.756,0,8.688C1.534,8.619,2.856,7.438,2.846,5.843C2.833,3.817,2.863,1.788,2.744,-0.234Z" /></g><g id="i19" transform="matrix(1,0,0,1,1022.324,1259.349)"><path fill="#402f2d" d="M3.61,-5.315C3.545,-6.145,3.309,-6.897,2.704,-7.501C2.168,-8.037,1.289,-8.441,0.519,-8.406C-1.132,-8.332,-2.602,-7.047,-2.572,-5.315C-2.54,-3.478,-2.65,-1.646,-2.874,0.176C-2.966,0.788,-3.06,1.4,-3.181,2.007C-3.377,2.992,-3.703,3.982,-3.729,4.99C-3.771,6.562,-2.64,7.717,-1.266,8.225C-1.077,8.295,-0.574,8.327,-0.375,8.345C0.672,8.441,2.094,7.66,2.522,6.684C2.833,5.975,3.004,5.426,3.123,4.691C3.225,4.061,3.309,3.427,3.392,2.794C3.511,1.89,3.603,0.982,3.66,0.071C3.771,-1.724,3.749,-3.523,3.61,-5.315Z" /></g><g id="i20" transform="matrix(1,0,0,1,1065.355,1262.516)"><path fill="#402f2d" d="M4.086,2.348C3.492,1.113,2.805,-0.084,2.163,-1.295C1.52,-2.508,0.877,-3.722,0.235,-4.935C-0.396,-6.125,-2.149,-6.588,-3.283,-5.857C-3.832,-5.503,-4.315,-4.977,-4.464,-4.321C-4.625,-3.614,-4.515,-2.994,-4.205,-2.34C-3.615,-1.096,-3.025,0.148,-2.435,1.393C-1.847,2.634,-1.296,3.904,-0.66,5.122C-0.257,5.895,0.816,6.588,1.713,6.484C2.493,6.393,3.086,6.26,3.656,5.678C4.569,4.749,4.625,3.468,4.086,2.348Z" /></g><g id="i21" transform="matrix(1,0,0,1,1004.436,1233.593)"><path fill="#402f2d" d="M2.554,-4.054C2.478,-4.622,2.251,-5.154,2.132,-5.713C2.015,-6.262,1.96,-6.834,1.874,-7.388C1.696,-8.553,-0.018,-8.375,-0.309,-7.388C-0.473,-6.835,-0.605,-6.255,-0.804,-5.713C-0.977,-5.246,-1.249,-4.8,-1.394,-4.324C-1.702,-3.313,-1.785,-2.155,-1.937,-1.11C-2.114,0.111,-2.227,1.342,-2.366,2.568C-2.489,3.654,-2.71,4.778,-2.654,5.87C-2.588,7.156,-1.726,8.22,-0.425,8.395C0.747,8.553,2.161,7.814,2.396,6.554C2.627,5.315,2.61,4.077,2.636,2.822C2.659,1.679,2.709,0.534,2.703,-0.608C2.697,-1.743,2.705,-2.93,2.554,-4.054Z" /></g><g id="i22" transform="matrix(1,0,0,1,979.209,1275.872)"><path fill="#402f2d" d="M3.148,4.42C3.111,4.166,3.072,3.913,3.033,3.66C3.03,3.641,3.029,3.638,3.027,3.622C3.025,3.608,3.025,3.606,3.023,3.59C2.997,3.371,2.971,3.152,2.947,2.934C2.843,1.986,2.771,1.034,2.731,0.081C2.65,-1.823,2.699,-3.729,2.864,-5.628C2.997,-7.147,1.432,-8.601,-0.043,-8.536C-1.761,-8.458,-2.772,-7.253,-2.95,-5.628C-3.162,-3.696,-3.254,-1.752,-3.209,0.191C-3.188,1.144,-3.134,2.094,-3.05,3.042C-2.93,4.383,-2.89,5.832,-2.273,7.042C-1.74,8.087,-0.427,8.602,0.674,8.454C1.725,8.313,2.951,7.474,3.132,6.336C3.245,5.623,3.254,5.138,3.148,4.42Z" /></g><g id="i23" transform="matrix(1,0,0,1,975.758,1239.184)"><path fill="#402f2d" d="M-0.349,-5.762C-0.648,-3.954,-0.967,-2.183,-1.419,-0.406C-1.638,0.456,-1.865,1.315,-2.077,2.179C-2.183,2.611,-2.273,3.048,-2.369,3.482C-2.538,4.255,-2.559,4.875,-2.432,5.664C-2.298,6.499,-1.384,7.122,-0.619,7.225C0.16,7.33,1.211,6.969,1.555,6.183C1.858,5.493,2.007,4.951,2.042,4.193C2.063,3.748,2.083,3.3,2.092,2.855C2.11,1.927,2.102,0.999,2.107,0.071C2.117,-1.764,2.252,-3.561,2.417,-5.388C2.559,-6.952,-0.09,-7.33,-0.349,-5.762Z" /></g><g id="i24" transform="matrix(1,0,0,1,1109.515,1232.88)"><path fill="#402f2d" d="M6.092,-2.479C5.007,-2.757,3.809,-2.849,2.698,-2.933C1.769,-3.003,0.84,-3.074,-0.089,-3.144C-1.946,-3.284,-3.804,-3.425,-5.661,-3.566C-7.025,-3.669,-8.197,-2.438,-8.367,-1.177C-8.533,0.063,-7.747,1.613,-6.393,1.845C-4.56,2.159,-2.726,2.474,-0.892,2.789C-0.011,2.94,0.869,3.091,1.749,3.242C2.883,3.436,4.103,3.669,5.261,3.664C6.822,3.656,8.127,2.479,8.332,0.952C8.533,-0.547,7.609,-2.091,6.092,-2.479Z" /></g><g id="i25" transform="matrix(1,0,0,1,1062.681,1203.837)"><path fill="#402f2d" d="M2.276,-8.834C0.723,-9.302,-0.882,-8.426,-1.628,-7.074C-2.201,-6.035,-2.085,-4.887,-1.537,-4.009C-1.785,-3.234,-2.033,-2.458,-2.284,-1.683C-3.07,0.742,-3.855,3.168,-4.641,5.593C-5.08,6.95,-4.129,8.628,-2.739,8.944C-1.169,9.302,0.049,8.464,0.613,7.042C1.41,5.032,2.206,3.022,3.002,1.013C3.386,0.045,3.771,-0.923,4.155,-1.89C4.556,-2.903,5.001,-3.861,5.031,-4.974C5.08,-6.739,3.979,-8.321,2.276,-8.834Z" /></g><g id="i26" transform="matrix(1,0,0,1,914.279,1238.534)"><path fill="#402f2d" d="M2.734,2.742C2.639,1.729,2.545,0.716,2.451,-0.297C2.261,-2.324,2.134,-4.337,2.055,-6.372C2.014,-7.442,1.142,-8.473,0.005,-8.422C-1.142,-8.371,-2.002,-7.521,-2.047,-6.372C-2.125,-4.337,-2.252,-2.324,-2.442,-0.297C-2.533,0.675,-2.623,1.648,-2.714,2.62C-2.819,3.746,-3.201,5.237,-2.77,6.302C-2.305,7.449,-1.353,8.474,0.005,8.414C1.379,8.352,2.28,7.534,2.779,6.302C3.201,5.259,2.837,3.84,2.734,2.742Z" /></g><g id="i27" transform="matrix(1,0,0,1,942.038,1226.398)"><path fill="#402f2d" d="M6.748,4.058C5.707,1.74,4.529,-0.447,3.138,-2.574C2.459,-3.613,1.753,-4.634,1.02,-5.636C0.665,-6.122,0.304,-6.603,-0.062,-7.081C-0.834,-8.086,-1.612,-9.372,-2.989,-9.573C-4.069,-9.73,-4.951,-9.676,-5.842,-8.987C-6.714,-8.313,-7.014,-7.486,-7.132,-6.418C-7.311,-4.793,-5.777,-3.298,-4.914,-2.037C-4.214,-1.015,-3.541,0.026,-2.896,1.083C-1.607,3.194,-0.356,5.347,0.829,7.518C1.688,9.094,3.994,9.73,5.518,8.748C6.25,8.276,6.895,7.573,7.093,6.699C7.31,5.747,7.146,4.944,6.748,4.058Z" /></g><g id="i28" transform="matrix(1,0,0,1,883.702,1279.853)"><path fill="#402f2d" d="M5.09,-6.582C4.672,-7.23,4.135,-7.709,3.422,-8.01C1.967,-8.623,-0.225,-8.17,-0.935,-6.582C-1.722,-4.822,-2.509,-3.062,-3.296,-1.303C-3.682,-0.439,-4.068,0.425,-4.455,1.289C-4.655,1.737,-4.864,2.18,-5.067,2.626C-5.594,3.787,-5.743,4.907,-5.248,6.11C-4.935,6.869,-4.564,7.592,-3.796,7.998C-3.091,8.37,-2.137,8.623,-1.361,8.316C-0.273,7.886,0.711,7.406,1.323,6.361C1.68,5.75,1.886,4.969,2.153,4.303C2.518,3.392,2.884,2.481,3.249,1.571C3.249,1.571,5.442,-3.894,5.442,-3.894C5.744,-4.647,5.518,-5.919,5.09,-6.582Z" /></g><g id="i29" transform="matrix(1,0,0,1,872.207,1241.682)"><path fill="#402f2d" d="M2.911,-0.306C2.792,-1.686,2.672,-3.067,2.55,-4.447C2.478,-5.263,2.507,-6.221,2.289,-7.013C1.893,-8.452,0.423,-9.535,-1.07,-9.333C-2.504,-9.139,-3.619,-7.658,-3.555,-6.221C-3.516,-5.353,-3.134,-4.527,-2.852,-3.716C-2.389,-2.382,-1.923,-1.048,-1.458,0.285C-0.494,3.05,0.542,5.791,1.549,8.54C1.914,9.535,3.62,9.487,3.534,8.272C3.331,5.413,3.159,2.549,2.911,-0.306Z" /></g><g id="i30" transform="matrix(1,0,0,1,849.169,1272.942)"><path fill="#402f2d" d="M5.212,-8.115C4.715,-8.315,4.257,-8.12,3.951,-7.702C2.459,-5.662,0.953,-3.634,-0.558,-1.609C-0.558,-1.609,-2.752,1.333,-2.752,1.333C-2.947,1.594,-3.142,1.856,-3.337,2.117C-3.405,2.207,-3.472,2.298,-3.54,2.388C-3.559,2.41,-3.551,2.4,-3.583,2.438C-3.602,2.456,-3.59,2.447,-3.604,2.462C-3.633,2.476,-3.659,2.495,-3.688,2.507C-4.253,2.706,-4.757,3.073,-5.074,3.603C-5.988,5.133,-5.01,6.906,-3.514,7.537C-1.668,8.316,0.06,7.013,0.794,5.377C1.729,3.294,2.517,1.134,3.371,-0.983C4.171,-2.967,4.978,-4.948,5.797,-6.924C5.987,-7.381,5.629,-7.947,5.212,-8.115Z" /></g><g id="i31" transform="matrix(1,0,0,1,838.823,1244.171)"><path fill="#402f2d" d="M5.65,6.134C4.287,3.898,3.175,1.554,2.13,-0.843C2.109,-0.893,2.088,-0.942,2.066,-0.992C2.055,-1.019,2.044,-1.048,1.996,-1.165C1.876,-1.472,1.751,-1.775,1.634,-2.083C1.399,-2.699,1.178,-3.321,0.971,-3.947C0.461,-5.486,0.188,-7.323,-0.977,-8.515C-2.473,-10.046,-5.421,-9.394,-5.904,-7.214C-6.291,-5.468,-5.557,-3.792,-4.906,-2.198C-4.323,-0.77,-3.703,0.64,-3,2.012C-1.7,4.553,0.012,6.888,1.804,9.1C2.57,10.045,4.142,9.969,5.019,9.292C5.96,8.564,6.29,7.184,5.65,6.134Z" /></g><g id="i32" transform="matrix(1,0,0,1,800.653,1262.977)"><path fill="#402f2d" d="M4.688,-9.267C4.202,-9.886,3.522,-10.064,2.763,-10.063C1.876,-10.062,0.804,-9.563,0.413,-8.716C-1.94,-3.627,-3.84,1.579,-5.375,6.97C-5.705,8.13,-4.971,9.402,-3.815,9.719C-2.557,10.065,-1.498,9.29,-1.066,8.158C0.757,3.377,2.845,-1.297,5.113,-5.969C5.704,-7.185,5.493,-8.242,4.688,-9.267Z" /></g><g id="i33" transform="matrix(1,0,0,1,815.142,1280.145)"><path fill="#402f2d" d="M3.459,-9.198C2.106,-9.769,0.268,-9.313,-0.439,-7.922C-1.077,-6.666,-1.496,-5.305,-1.967,-3.979C-2.363,-2.867,-2.759,-1.754,-3.155,-0.641C-3.958,1.618,-4.59,3.945,-5.284,6.24C-5.66,7.484,-4.935,8.82,-3.778,9.308C-2.685,9.769,-1.071,9.423,-0.53,8.244C0.54,5.915,1.672,3.603,2.629,1.225C3.073,0.125,3.516,-0.974,3.959,-2.074C4.414,-3.205,4.96,-4.336,5.266,-5.516C5.66,-7.029,4.89,-8.594,3.459,-9.198Z" /></g><g id="i34" transform="matrix(1,0,0,1,766.177,1265.41)"><path fill="#402f2d" d="M4.365,-5.495C3.707,-6.45,2.735,-6.852,1.6,-6.62C1.177,-6.534,0.664,-6.252,0.379,-5.943C0.043,-5.576,-0.122,-5.206,-0.308,-4.74C-0.338,-4.666,-0.368,-4.594,-0.398,-4.521C-0.959,-3.212,-1.603,-1.941,-2.347,-0.727C-2.726,-0.107,-3.129,0.5,-3.554,1.09C-3.639,1.208,-3.725,1.325,-3.811,1.442C-3.864,1.513,-3.984,1.637,-4.053,1.708C-4.019,1.674,-3.976,1.631,-3.871,1.526C-4.14,1.795,-4.362,2.138,-4.608,2.429C-5.03,2.928,-5.317,3.465,-5.317,4.138C-5.317,4.732,-5.053,5.441,-4.608,5.849C-3.685,6.697,-2.093,6.853,-1.189,5.849C0.101,4.417,1.282,2.869,2.304,1.233C2.766,0.493,3.195,-0.268,3.59,-1.048C4.253,-2.358,5.317,-4.113,4.365,-5.495Z" /></g><g id="i35" transform="matrix(1,0,0,1,762.096,1267.147)"><path fill="#402f2d" d="M0.028,-0.028C-0.027,0.028,-0.022,0.023,0.028,-0.028Z" /></g><g id="i36" transform="matrix(1,0,0,1,782.131,1227.467)"><path fill="#402f2d" d="M5.086,2.989C3.888,-0.307,1.93,-3.321,-0.75,-5.606C-1.328,-6.099,-1.96,-6.432,-2.742,-6.432C-3.433,-6.432,-4.257,-6.124,-4.732,-5.606C-5.225,-5.07,-5.59,-4.365,-5.557,-3.615C-5.526,-2.921,-5.305,-2.075,-4.732,-1.625C-3.687,-0.805,-2.756,0.139,-1.918,1.169C-1.083,2.296,-0.366,3.503,0.185,4.795C0.13,4.665,0.075,4.536,0.021,4.406C0.289,5.058,0.585,5.589,1.219,5.96C1.784,6.291,2.615,6.431,3.248,6.226C4.516,5.815,5.59,4.374,5.086,2.989Z" /></g><g id="i37" transform="matrix(1,0,0,1,751.607,1278.552)"><path fill="#402f2d" d="M6.221,6.379C4.621,4.281,3.3,2.057,2.237,-0.357C2.229,-0.375,2.233,-0.365,2.227,-0.38C2.176,-0.507,2.124,-0.634,2.073,-0.762C1.957,-1.054,1.845,-1.347,1.737,-1.642C1.519,-2.234,1.322,-2.833,1.13,-3.433C0.719,-4.72,0.302,-5.993,-0.018,-7.307C-0.427,-8.988,-2.421,-10.154,-4.084,-9.616C-5.741,-9.079,-6.945,-7.317,-6.393,-5.55C-4.655,0.019,-1.465,4.991,2.472,9.272C3.277,10.148,4.707,10.154,5.607,9.458C6.454,8.804,6.944,7.327,6.221,6.379Z" /></g><g id="i38" transform="matrix(1,0,0,1,869.25,1217.972)"><path fill="#402f2d" d="M7.114,-0.636C6.119,-1.269,4.967,-1.365,3.835,-1.607C2.727,-1.845,1.616,-1.97,0.494,-2.119C1.028,-2.048,0.286,-2.15,0.242,-2.157C-0.021,-2.195,-0.284,-2.235,-0.547,-2.275C-1.035,-2.351,-1.522,-2.431,-2.009,-2.516C-3.055,-2.699,-4.097,-2.906,-5.135,-3.131C-6.274,-3.379,-7.605,-2.792,-7.883,-1.571C-8.156,-0.377,-7.525,0.829,-6.323,1.177C-4.326,1.756,-2.307,2.258,-0.269,2.673C0.879,2.907,2.018,3.102,3.19,3.158C4.337,3.213,5.56,3.379,6.646,2.944C7.392,2.646,7.937,2.156,8.049,1.316C8.156,0.525,7.786,-0.208,7.114,-0.636Z" /></g><g id="i39" transform="matrix(1,0,0,1,988.66,1211.219)"><path fill="#402f2d" d="M4.007,-5.249C2.039,-5.205,-0.02,-4.397,-1.765,-3.557C-3.355,-2.791,-4.822,-1.717,-6.096,-0.5C-7.315,0.663,-7.355,2.888,-6.096,4.043C-4.789,5.243,-2.851,5.284,-1.552,4.043C-1.285,3.789,-0.999,3.558,-0.715,3.324C0.051,2.771,0.864,2.298,1.72,1.901C2.157,1.73,2.594,1.559,3.046,1.432C3.643,1.264,4.264,1.196,4.857,1.029C6.393,0.597,7.355,-0.917,7.146,-2.478C6.94,-4.007,5.606,-5.285,4.007,-5.249Z" /></g><g id="i40" transform="matrix(1,0,0,1,1030.977,1213.74)"><path fill="#402f2d" d="M4.108,-8.248C3.183,-8.963,1.724,-8.958,0.893,-8.057C-0.84,-6.174,-2.326,-4.038,-3.392,-1.708C-3.955,-0.478,-4.458,0.786,-4.833,2.088C-5,2.665,-5.159,3.252,-5.263,3.845C-5.412,4.691,-5.455,5.483,-5.111,6.299C-4.924,6.743,-4.657,7.083,-4.348,7.391C-4.332,7.426,-4.317,7.461,-4.301,7.495C-3.615,8.963,-1.654,8.794,-0.713,7.75C0.328,7.064,0.788,5.936,0.924,4.682C0.945,4.492,0.899,3.992,1.011,3.839C0.946,4.308,0.938,4.369,0.988,4.024C1.01,3.882,1.033,3.742,1.057,3.601C1.245,2.513,1.513,1.439,1.859,0.391C2.023,-0.106,2.183,-0.631,2.412,-1.103C2.096,-0.452,2.51,-1.308,2.566,-1.427C2.688,-1.686,2.814,-1.942,2.945,-2.196C3.467,-3.206,4.069,-4.169,4.739,-5.089C5.455,-6.073,4.989,-7.568,4.108,-8.248Z" /></g><g id="i41" transform="matrix(1,0,0,1,804.699,1221.663)"><path fill="#402f2d" d="M3.947,5.814C3.868,5.561,3.137,3.927,3.566,4.844C2.984,3.601,2.624,2.196,2.349,0.856C2.28,0.516,2.225,0.174,2.164,-0.168C2.157,-0.215,2.159,-0.202,2.154,-0.236C2.138,-0.372,2.122,-0.509,2.108,-0.645C2.041,-1.339,2.005,-2.035,2.001,-2.731C1.998,-3.426,2.027,-4.121,2.09,-4.812C2.098,-4.908,2.189,-5.569,2.179,-5.545C2.225,-5.817,2.27,-6.09,2.323,-6.361C2.61,-7.833,1.907,-9.536,0.313,-9.899C-1.179,-10.239,-2.833,-9.451,-3.225,-7.89C-3.944,-5.032,-4.207,-2.021,-3.871,0.911C-3.69,2.487,-3.431,4.047,-2.978,5.569C-2.363,7.635,-1.432,10.239,1.175,10.203C2.517,10.185,3.657,9.242,4.011,7.957C4.207,7.244,4.164,6.509,3.947,5.814Z" /></g><g id="i42" transform="matrix(1,0,0,1,726.478,1257.207)"><path fill="#402f2d" d="M7.2,-7.099C6.715,-7.474,6.087,-7.745,5.457,-7.717C4.645,-7.68,4.056,-7.373,3.422,-6.874C2.497,-6.146,1.786,-5.092,0.984,-4.23C0.166,-3.351,-0.686,-2.506,-1.571,-1.696C-2.424,-0.915,-3.311,-0.176,-4.216,0.543C-4.342,0.635,-4.466,0.73,-4.591,0.822C-4.82,0.992,-5.05,1.16,-5.282,1.325C-5.797,1.692,-6.321,2.047,-6.851,2.392C-8.016,3.152,-8.612,4.785,-7.806,6.035C-7.026,7.245,-5.448,7.745,-4.163,6.99C-1.861,5.638,0.312,4.081,2.368,2.377C3.317,1.59,4.234,0.764,5.115,-0.098C6.117,-1.077,7.286,-2.141,7.941,-3.388C8.612,-4.668,8.361,-6.202,7.2,-7.099Z" /></g><g id="i43" transform="matrix(1,0,0,1,739.993,1225.376)"><path fill="#402f2d" d="M7.339,3.954C7.102,3.312,6.866,2.66,6.344,2.18C6.233,2.078,6.099,1.998,5.978,1.905C5.805,1.749,5.658,1.574,5.49,1.413C5.191,1.126,4.867,0.937,4.524,0.783C4.446,0.693,4.373,0.611,4.344,0.573C3.929,0.02,3.505,-0.528,3.077,-1.072C2.455,-1.863,1.813,-2.639,1.152,-3.398C-0.194,-4.944,-1.62,-6.419,-3.113,-7.823C-4.07,-8.723,-5.726,-8.843,-6.663,-7.823C-7.599,-6.803,-7.633,-5.288,-6.663,-4.274C-5.287,-2.836,-3.979,-1.336,-2.749,0.228C-2.706,0.282,-2.663,0.337,-2.62,0.391C-2.467,0.595,-2.313,0.798,-2.16,1.002C-1.87,1.393,-1.584,1.787,-1.303,2.185C-1.022,2.583,-0.745,2.984,-0.474,3.389C-0.45,3.425,-0.258,3.699,-0.139,3.88C-0.124,4.262,-0.045,4.639,0.121,5.031C0.14,5.078,0.161,5.125,0.18,5.172C0.423,6.051,0.68,6.741,1.354,7.438C2.416,8.535,4.383,8.843,5.693,7.998C6.211,7.664,6.644,7.231,6.978,6.714C7.43,6.013,7.632,4.748,7.339,3.954Z" /></g><g id="i44" transform="matrix(1,0,0,1,759.085,1201.994)"><path fill="#402f2d" d="M7.38,-0.653C5.223,-1.337,3.066,-2.02,0.91,-2.704C-0.167,-3.045,-1.265,-3.324,-2.354,-3.623C-3.572,-3.958,-4.961,-4.535,-6.231,-4.397C-7.536,-4.256,-8.861,-3.552,-9.18,-2.152C-9.495,-0.768,-8.946,0.517,-7.774,1.301C-6.688,2.028,-5.279,2.163,-4.024,2.433C-2.917,2.671,-1.813,2.933,-0.698,3.129C-0.698,3.129,6.013,4.305,6.013,4.305C7.333,4.536,8.847,3.951,9.176,2.509C9.495,1.107,8.753,-0.218,7.38,-0.653Z" /></g><g id="i45" transform="matrix(1,0,0,1,705.859,1198.393)"><path fill="#402f2d" d="M-0.009,0.031C-0.005,0.015,0.004,-0.001,0.008,-0.017C0.007,-0.03,0.003,-0.017,-0.009,0.031Z" /></g><g id="i46" transform="matrix(1,0,0,1,708.365,1202.128)"><path fill="#402f2d" d="M4.297,-5.065C4.19,-6.108,3.814,-7.003,2.867,-7.557C1.994,-8.068,0.823,-8.098,-0.048,-7.557C-0.416,-7.328,-0.796,-7.088,-1.099,-6.776C-1.599,-6.262,-1.809,-5.654,-2.062,-5.008C-2.224,-4.596,-2.391,-4.181,-2.498,-3.752C-2.496,-3.687,-2.619,-2.934,-2.656,-2.555C-2.682,-2.48,-2.707,-2.403,-2.732,-2.328C-2.888,-1.857,-3.033,-1.383,-3.167,-0.906C-3.741,1.142,-4.089,3.243,-4.299,5.358C-4.427,6.656,-3.199,7.784,-2.018,7.943C-0.861,8.098,0.69,7.355,0.872,6.058C1.127,4.223,1.534,2.413,2.099,0.649C2.241,0.207,2.391,-0.231,2.552,-0.667C2.553,-0.671,2.558,-0.68,2.56,-0.685C2.739,-0.9,2.913,-1.119,3.078,-1.346C3.756,-2.43,4.428,-3.79,4.297,-5.065Z" /></g><g id="i47" transform="matrix(1,0,0,1,704.224,1243.984)"><path fill="#402f2d" d="M3.63,-5.735C2.843,-5.494,2.098,-5.215,1.555,-4.556C1.279,-4.221,0.989,-3.897,0.688,-3.585C0.172,-3.047,-0.395,-2.563,-0.974,-2.095C-2.003,-1.346,-3.099,-0.702,-4.263,-0.187C-4.372,-0.144,-4.479,-0.099,-4.589,-0.059C-5.328,0.212,-5.954,0.607,-6.362,1.305C-6.734,1.942,-6.892,2.88,-6.661,3.593C-6.197,5.029,-4.574,6.228,-3.01,5.666C-1.089,4.977,0.741,4.07,2.372,2.838C3.252,2.173,4.105,1.484,4.878,0.696C5.197,0.371,5.502,0.034,5.794,-0.316C6.212,-0.816,6.585,-1.316,6.773,-1.952C6.893,-2.36,6.886,-2.828,6.885,-3.256C6.881,-4.886,5.239,-6.228,3.63,-5.735Z" /></g><g id="i48" transform="matrix(1,0,0,1,668.123,1253.041)"><path fill="#402f2d" d="M2.42,-5.026C2.486,-5.646,2.659,-6.323,2.589,-6.94C2.448,-8.18,1.752,-9.198,0.439,-9.375C-0.78,-9.538,-1.931,-8.793,-2.281,-7.599C-2.659,-6.306,-2.488,-4.721,-2.453,-3.382C-2.422,-2.193,-2.355,-1.005,-2.252,0.181C-2.031,2.714,-1.591,5.239,-1.027,7.717C-0.614,9.537,2.439,9.183,2.279,7.271C2.081,4.909,2.048,2.55,2.093,0.181C2.115,-1.008,2.173,-2.196,2.267,-3.382C2.31,-3.93,2.362,-4.479,2.42,-5.026Z" /></g><g id="i49" transform="matrix(1,0,0,1,673.484,1222.303)"><path fill="#402f2d" d="M6.766,-2.399C5.96,-2.871,4.981,-2.862,4.076,-2.892C2.958,-2.93,1.839,-2.968,0.72,-3.005C-1.556,-3.081,-3.832,-3.157,-6.108,-3.233C-7.437,-3.278,-8.707,-2.033,-8.648,-0.693C-8.579,0.828,-7.525,1.666,-6.108,1.848C-4.217,2.09,-2.327,2.333,-0.437,2.575C0.489,2.694,1.414,2.812,2.34,2.931C3.295,3.053,4.27,3.245,5.233,3.26C6.304,3.277,7.315,2.666,7.855,1.756C8.707,0.324,8.21,-1.554,6.766,-2.399Z" /></g><g id="i50" transform="matrix(1,0,0,1,675.885,1192.066)"><path fill="#402f2d" d="M6.128,-0.67C5.898,-0.847,5.669,-1.025,5.439,-1.202C4.909,-1.51,4.336,-1.664,3.722,-1.667C3.435,-1.702,3.127,-1.642,2.835,-1.644C2.743,-1.644,2.652,-1.658,2.56,-1.662C2.107,-1.742,1.667,-1.868,1.234,-2.022C0.896,-2.19,0.568,-2.378,0.255,-2.591C-0.04,-2.848,-0.323,-3.116,-0.576,-3.414C-0.633,-3.502,-0.698,-3.584,-0.752,-3.674C-1.178,-4.385,-1.907,-4.958,-2.709,-5.179C-3.493,-5.394,-4.537,-5.297,-5.232,-4.848C-6.753,-3.868,-7.294,-1.974,-6.407,-0.368C-5.442,1.382,-3.884,2.902,-2.115,3.833C-1.228,4.299,-0.263,4.699,0.722,4.907C1.883,5.151,3.455,5.394,4.627,5.016C6.248,4.492,7.294,2.995,7.063,1.283C6.968,0.569,6.674,-0.168,6.128,-0.67Z" /></g><g id="i51" transform="matrix(1,0,0,1,640.071,1203.729)"><path fill="#402f2d" d="M9.934,-1.39C8.302,-1.663,6.66,-1.472,5.01,-1.494C4.261,-1.505,3.512,-1.54,2.765,-1.601C2.338,-1.636,1.912,-1.679,1.487,-1.73C1.984,-1.67,0.979,-1.809,0.869,-1.828C-0.604,-2.072,-2.085,-2.383,-3.528,-2.772C-4.25,-2.967,-4.966,-3.187,-5.673,-3.431C-6.346,-3.663,-7.103,-3.953,-7.537,-4.142C-8.914,-4.744,-10.526,-4.547,-11.347,-3.143C-12.083,-1.886,-11.683,-0.037,-10.348,0.667C-7.347,2.251,-4.114,3.519,-0.758,4.075C0.99,4.365,2.757,4.567,4.529,4.617C6.227,4.665,8.347,4.744,9.934,4.099C11.069,3.638,12.084,2.7,12.024,1.356C11.972,0.193,11.189,-1.181,9.934,-1.39Z" /></g><g id="i52" transform="matrix(1,0,0,1,632.711,1180.126)"><path fill="#402f2d" d="M6.373,-0.91C6.014,-1,5.646,-1.047,5.278,-1.089C4.423,-1.216,3.574,-1.38,2.741,-1.61C2.325,-1.724,1.913,-1.852,1.505,-1.991C1.272,-2.071,1.041,-2.155,0.811,-2.243C0.774,-2.257,0.647,-2.309,0.528,-2.356C0.401,-2.413,0.24,-2.483,0.2,-2.502C-0.024,-2.606,-0.247,-2.714,-0.467,-2.826C-0.852,-3.022,-1.231,-3.229,-1.603,-3.447C-1.975,-3.666,-2.34,-3.896,-2.698,-4.137C-2.902,-4.274,-3.103,-4.416,-3.302,-4.56C-3.402,-4.633,-3.5,-4.706,-3.598,-4.78C-3.513,-4.713,-3.501,-4.704,-3.449,-4.664C-4.09,-5.169,-4.696,-5.529,-5.549,-5.529C-6.285,-5.529,-7.163,-5.202,-7.67,-4.65C-8.71,-3.517,-8.929,-1.514,-7.67,-0.409C-5.924,1.124,-3.996,2.46,-1.88,3.428C-0.734,3.952,0.44,4.429,1.649,4.788C2.858,5.149,4.241,5.529,5.503,5.523C7.137,5.515,8.504,4.282,8.719,2.683C8.929,1.117,7.963,-0.509,6.373,-0.91Z" /></g><g id="i53" transform="matrix(1,0,0,1,593.658,1201.326)"><path fill="#402f2d" d="M5.672,-7.938C4.992,-8.464,4.022,-8.749,3.172,-8.452C1.987,-8.038,1.329,-7.328,0.65,-6.323C0.319,-5.832,0.001,-5.332,-0.323,-4.837C-0.951,-3.878,-1.58,-2.917,-2.208,-1.958C-2.208,-1.958,-6.039,3.891,-6.039,3.891C-6.891,5.192,-6.342,7.229,-4.974,7.952C-3.467,8.748,-1.849,8.259,-0.911,6.887C0.384,4.991,1.679,3.095,2.974,1.199C3.601,0.282,4.229,-0.635,4.856,-1.553C5.697,-2.783,6.891,-4.103,6.802,-5.687C6.75,-6.612,6.409,-7.369,5.672,-7.938Z" /></g><g id="i54" transform="matrix(1,0,0,1,648.643,1228.538)"><path fill="#402f2d" d="M5.429,-3.037C4.542,-3.281,3.578,-3.08,2.792,-2.6C1.325,-2.508,-0.143,-2.524,-1.605,-2.693C-2.47,-2.826,-3.329,-2.983,-4.176,-3.205C-5.615,-3.581,-7.333,-2.729,-7.677,-1.217C-8.02,0.288,-7.225,1.861,-5.689,2.284C-2.829,3.074,0.186,3.383,3.153,3.193C3.994,3.563,4.989,3.582,5.827,3.228C7.223,2.64,8.02,1.237,7.819,-0.263C7.644,-1.563,6.719,-2.681,5.429,-3.037Z" /></g><g id="i55" transform="matrix(1,0,0,1,607.771,1157.587)"><path fill="#402f2d" d="M7.521,0.885C7.244,0.23,6.751,-0.238,6.219,-0.688C4.682,-1.987,2.766,-2.841,0.905,-3.563C-1.001,-4.303,-2.976,-4.698,-5.002,-4.93C-5.658,-5.005,-6.603,-4.56,-7.037,-4.088C-7.473,-3.612,-7.742,-3.077,-7.828,-2.435C-7.998,-1.164,-7.184,0.514,-5.767,0.722C-4.151,0.959,-2.604,1.399,-1.08,1.978C-0.914,2.053,-0.748,2.126,-0.584,2.204C-0.192,2.391,0.195,2.591,0.575,2.802C1.261,3.184,1.891,3.653,2.571,4.041C3.183,4.389,3.762,4.764,4.478,4.86C5.553,5.004,6.59,4.8,7.295,3.888C7.998,2.978,7.948,1.896,7.521,0.885Z" /></g><g id="i1" transform="matrix(1,0,0,1,615.284,1237.731)"><path fill="#402f2d" d="M3.635,-0.906C3.469,-1.819,3.282,-2.727,3.073,-3.632C2.969,-4.083,2.858,-4.533,2.743,-4.982C2.694,-5.174,2.651,-5.37,2.592,-5.559C2.272,-6.583,1.69,-7.127,0.859,-7.75C0.016,-8.382,-1.263,-8.303,-2.169,-7.92C-3.171,-7.498,-3.795,-6.745,-4.138,-5.718C-4.611,-4.299,-3.912,-2.946,-3.489,-1.617C-3.228,-0.797,-2.985,0.028,-2.76,0.858C-2.295,2.578,-1.911,4.319,-1.601,6.073C-1.479,6.765,-0.788,7.599,-0.18,7.92C0.444,8.25,1.088,8.382,1.791,8.287C3.194,8.099,4.611,6.785,4.471,5.25C4.283,3.188,4.006,1.131,3.635,-0.906Z" /></g><g id="i2" transform="matrix(1,0,0,1,916.04,1281.996)"><path fill="#402f2d" d="M4.813,5.252C4.451,3.562,4.015,1.889,3.497,0.241C3.249,-0.547,2.983,-1.329,2.699,-2.105C2.416,-2.878,2.096,-3.723,1.942,-4.537C1.933,-4.604,1.927,-4.673,1.919,-4.74C1.838,-5.376,1.744,-5.933,1.441,-6.508C1.121,-7.112,0.576,-7.483,0.041,-7.866C-0.923,-8.558,-2.421,-8.438,-3.397,-7.866C-4.43,-7.262,-5.09,-6.124,-5.085,-4.925C-5.08,-3.628,-4.533,-2.714,-3.624,-1.862C-3.558,-1.801,-3.493,-1.739,-3.428,-1.677C-3.329,-1.518,-3.223,-1.362,-3.122,-1.204C-2.582,-0.358,-2.147,0.527,-1.725,1.437C-1.523,1.873,-1.327,2.312,-1.136,2.753C-1.123,2.783,-1.111,2.813,-1.098,2.843C-1.09,2.863,-1.08,2.889,-1.036,2.994C-0.946,3.219,-0.853,3.444,-0.763,3.671C-0.393,4.606,-0.051,5.551,0.268,6.505C0.659,7.672,1.91,8.557,3.167,8.151C4.44,7.739,5.09,6.545,4.813,5.252Z" /></g><g id="i3" transform="matrix(1,0,0,1,940.449,1250.034)"><path fill="#402f2d" d="M7.858,-2.055C7.053,-2.903,6.029,-3.345,4.857,-3.331C4.384,-3.325,3.911,-3.32,3.439,-3.315C2.375,-3.303,1.311,-3.29,0.248,-3.278C-1.836,-3.254,-3.936,-3.016,-6.015,-2.876C-7.513,-2.775,-8.964,-1.625,-8.892,0.001C-8.818,1.646,-7.627,2.769,-6.015,2.878C-3.936,3.018,-1.836,3.256,0.248,3.28C0.248,3.28,3.321,3.315,3.321,3.315C3.832,3.321,4.345,3.327,4.857,3.333C6.031,3.346,7.043,2.914,7.858,2.057C8.96,0.897,8.964,-0.891,7.858,-2.055Z" /></g><g id="i4" transform="matrix(1,0,0,1,954.936,1279.081)"><path fill="#402f2d" d="M4.852,4.938C3.932,1.856,3.013,-1.225,2.112,-4.312C2.198,-5.073,2.07,-5.859,1.67,-6.479C0.713,-7.964,-1.061,-8.62,-2.724,-7.918C-4.265,-7.268,-5.303,-5.436,-4.763,-3.766C-4.583,-3.211,-4.279,-2.773,-3.927,-2.39C-2.8,0.547,-1.688,3.492,-0.578,6.435C-0.313,7.138,0.047,7.725,0.716,8.117C1.319,8.47,2.208,8.62,2.885,8.401C4.311,7.939,5.303,6.45,4.852,4.938Z" /></g></g></g></g></g><g transform="matrix(1,0,0,1,0,0)" id="i56"><g id="i4" transform="matrix(1,0,0,1,884.272,878.804)"><path fill="#ffda63" d="M382.289,93.391C359.294,272.08,159.33,350.456,-44.499,324.225C-248.328,297.995,-405.284,180.83,-382.289,2.141C-359.294,-176.549,-164.875,-350.457,38.774,-322.865C254.989,-293.572,405.284,-85.298,382.289,93.391Z" /></g></g><g transform="matrix(1,0,0,1,0,0)" id="i57"><g id="i4" transform="matrix(1,0,0,1,906.831,984.243)"><path d="M4.951,56.938C-1.636,56.938,-8.55,56.031,-15.773,54.214C-39.553,48.231,-55.84,36.321,-64.185,18.815C-78.983,-12.236,-62.326,-48.826,-61.609,-50.367C-59.481,-54.946,-54.051,-56.939,-49.469,-54.806C-44.893,-52.682,-42.906,-47.255,-45.024,-42.68C-45.289,-42.097,-58.722,-12.087,-47.646,11.026C-41.746,23.337,-29.522,31.906,-11.312,36.487C5.313,40.67,18.862,38.861,30.114,30.951C55.652,13.014,60.258,-30.326,60.302,-30.76C60.805,-35.78,65.279,-39.436,70.292,-38.954C75.311,-38.46,78.983,-34.001,78.495,-28.983C78.287,-26.867,73.086,23.044,40.688,45.863C30.218,53.238,18.25,56.938,4.951,56.938Z" fill="#82322e"><animate repeatCount="indefinite" attributeName="d" dur="2s" begin="0s" calcMode="spline" values="M4.951,56.938C-1.636,56.938,-8.55,56.031,-15.773,54.214C-39.553,48.231,-55.84,36.321,-64.185,18.815C-78.983,-12.236,-62.326,-48.826,-61.609,-50.367C-59.481,-54.946,-54.051,-56.939,-49.469,-54.806C-44.893,-52.682,-42.906,-47.255,-45.024,-42.68C-45.289,-42.097,-58.722,-12.087,-47.646,11.026C-41.746,23.337,-29.522,31.906,-11.312,36.487C5.313,40.67,18.862,38.861,30.114,30.951C55.652,13.014,60.258,-30.326,60.302,-30.76C60.805,-35.78,65.279,-39.436,70.292,-38.954C75.311,-38.46,78.983,-34.001,78.495,-28.983C78.287,-26.867,73.086,23.044,40.688,45.863C30.218,53.238,18.25,56.938,4.951,56.938Z; M4.951,56.938C-1.636,56.938,-8.55,56.031,-15.773,54.214C-39.553,48.231,-55.84,36.321,-64.185,18.815C-78.983,-12.236,-62.326,-48.826,-61.609,-50.367C-59.481,-54.946,-54.051,-56.939,-49.469,-54.806C-44.893,-52.682,-42.906,-47.255,-45.024,-42.68C-45.289,-42.097,-58.722,-12.087,-47.646,11.026C-41.746,23.337,-29.522,31.906,-11.312,36.487C5.313,40.67,18.862,38.861,30.114,30.951C55.652,13.014,60.258,-30.326,60.302,-30.76C60.805,-35.78,65.279,-39.436,70.292,-38.954C75.311,-38.46,78.983,-34.001,78.495,-28.983C78.287,-26.867,73.086,23.044,40.688,45.863C30.218,53.238,18.25,56.938,4.951,56.938Z; M4.951,56.938C-1.636,56.938,-8.55,56.031,-15.773,54.214C-39.553,48.231,-55.84,36.321,-64.185,18.815C-78.983,-12.236,-62.326,-48.826,-61.609,-50.367C-59.481,-54.946,-54.051,-56.939,-49.469,-54.806C-44.893,-52.682,-42.906,-47.255,-45.024,-42.68C-45.289,-42.097,-48.972,-36.837,-37.896,-13.724C-31.996,-1.413,-18.332,10.256,-4.312,12.487C8.563,14.536,23.862,11.861,35.114,3.951C60.652,-13.986,60.258,-30.326,60.302,-30.76C60.805,-35.78,65.279,-39.436,70.292,-38.954C75.311,-38.46,78.983,-34.001,78.495,-28.983C78.287,-26.867,73.086,23.044,40.688,45.863C30.218,53.238,18.25,56.938,4.951,56.938Z; M4.951,56.938C-1.636,56.938,-8.55,56.031,-15.773,54.214C-39.553,48.231,-55.84,36.321,-64.185,18.815C-78.983,-12.236,-62.326,-48.826,-61.609,-50.367C-59.481,-54.946,-54.051,-56.939,-49.469,-54.806C-44.893,-52.682,-42.906,-47.255,-45.024,-42.68C-45.289,-42.097,-48.972,-36.837,-37.896,-13.724C-31.996,-1.413,-18.332,10.256,-4.312,12.487C8.563,14.536,23.862,11.861,35.114,3.951C60.652,-13.986,60.258,-30.326,60.302,-30.76C60.805,-35.78,65.279,-39.436,70.292,-38.954C75.311,-38.46,78.983,-34.001,78.495,-28.983C78.287,-26.867,73.086,23.044,40.688,45.863C30.218,53.238,18.25,56.938,4.951,56.938Z; M4.951,56.938C-1.636,56.938,-8.55,56.031,-15.773,54.214C-39.553,48.231,-55.84,36.321,-64.185,18.815C-78.983,-12.236,-62.326,-48.826,-61.609,-50.367C-59.481,-54.946,-54.051,-56.939,-49.469,-54.806C-44.893,-52.682,-42.906,-47.255,-45.024,-42.68C-45.289,-42.097,-58.722,-12.087,-47.646,11.026C-41.746,23.337,-29.522,31.906,-11.312,36.487C5.313,40.67,18.862,38.861,30.114,30.951C55.652,13.014,60.258,-30.326,60.302,-30.76C60.805,-35.78,65.279,-39.436,70.292,-38.954C75.311,-38.46,78.983,-34.001,78.495,-28.983C78.287,-26.867,73.086,23.044,40.688,45.863C30.218,53.238,18.25,56.938,4.951,56.938Z; M4.951,56.938C-1.636,56.938,-8.55,56.031,-15.773,54.214C-39.553,48.231,-55.84,36.321,-64.185,18.815C-78.983,-12.236,-62.326,-48.826,-61.609,-50.367C-59.481,-54.946,-54.051,-56.939,-49.469,-54.806C-44.893,-52.682,-42.906,-47.255,-45.024,-42.68C-45.289,-42.097,-58.722,-12.087,-47.646,11.026C-41.746,23.337,-29.522,31.906,-11.312,36.487C5.313,40.67,18.862,38.861,30.114,30.951C55.652,13.014,60.258,-30.326,60.302,-30.76C60.805,-35.78,65.279,-39.436,70.292,-38.954C75.311,-38.46,78.983,-34.001,78.495,-28.983C78.287,-26.867,73.086,23.044,40.688,45.863C30.218,53.238,18.25,56.938,4.951,56.938Z" keyTimes="0; 0.06; 0.16; 0.5; 0.6; 1" keySplines="0 0 1 1; 0.333 0 0.833 1; 0.167 0 0.833 1; 0.167 0 0.667 1; 0 0 1 1" fill="freeze" /></path></g><g id="i58"><path stroke-width="2" stroke="#21570c" fill="#82322e" d="" /></g></g><g transform="matrix(1,0,0,1,0,0)" id="i59"><g id="i3" transform="matrix(1,0,0,1,833.601,851.084)"><path fill="#292929" d="M37.607,3.107C35.891,23.877,17.663,39.323,-3.107,37.607C-23.877,35.891,-39.324,17.663,-37.608,-3.107C-35.892,-23.877,-17.663,-39.323,3.107,-37.607C23.877,-35.891,39.323,-17.663,37.607,3.107Z" /></g><g id="i4" transform="matrix(1,0,0,1,813.426,841.527)"><path fill="#ffffff" d="M10.095,0.834C9.634,6.409,4.741,10.556,-0.834,10.096C-6.41,9.635,-10.557,4.742,-10.096,-0.834C-9.635,-6.41,-4.742,-10.556,0.834,-10.096C6.409,-9.635,10.556,-4.742,10.095,0.834Z" /></g></g><g id="i60"><g transform="translate(1031,926)"><g transform="scale(1,1)"><animateTransform repeatCount="indefinite" type="scale" attributeName="transform" dur="2s" begin="0s" calcMode="spline" values="1 1; 1 1; 1.96 1.96; 1.96 1.96; 1 1; 1 1" keyTimes="0; 0.1; 0.12; 0.5; 0.52; 1" keySplines="0 0 1 1; 0.333 0 0.833 0.833; 0 0 1 1; 0.167 0.167 0.667 1; 0 0 1 1" fill="freeze" /><g transform="translate(-1003.918,-902.531)"><g id="i3" transform="matrix(1,0,0,1,1047.808,904.635)"><path fill="#292929" d="M37.608,3.107C35.892,23.877,17.664,39.323,-3.106,37.607C-23.876,35.891,-39.323,17.663,-37.607,-3.107C-35.891,-23.877,-17.663,-39.323,3.107,-37.607C23.877,-35.891,39.324,-17.663,37.608,3.107Z" /></g><g id="i4" transform="matrix(1,0,0,1,1027.634,895.079)"><path fill="#ffffff" d="M10.095,0.834C9.634,6.41,4.741,10.556,-0.835,10.096C-6.41,9.635,-10.556,4.742,-10.096,-0.834C-9.636,-6.409,-4.742,-10.556,0.833,-10.095C6.409,-9.635,10.556,-4.742,10.095,0.834Z" /></g></g></g></g></g><g id="i61"><g transform="translate(1000,1000)"><animateTransform repeatCount="indefinite" type="translate" attributeName="transform" dur="2s" begin="0s" calcMode="spline" values="1000 1000; 1000 1000; 1000 961; 1000 961; 1000 1000; 1000 1000" keyTimes="0; 0.08; 0.16; 0.44; 0.52; 1" keySplines="0 0 1 1; 0 0 1 1; 0 0 1 1; 0 0 1 1; 0 0 1 1" fill="freeze" /><g transform="scale(1,1) translate(-1000,-1000)"><g id="i3" transform="matrix(1,0,0,1,1087.929,797.83)"><path fill="#292929" d="M35.521,13.519C36.138,17.608,31.108,20.157,28.098,17.322C21.772,11.364,11.784,3.425,0.284,-0.371C-8.531,-3.28,-20.597,-4.552,-31.347,-3.921C-34.552,-3.734,-36.138,-7.702,-33.709,-9.803C-28.349,-14.439,-18.333,-20.157,-0.954,-18.543C17.323,-16.846,33.232,-1.648,35.521,13.519Z" /></g><g id="i4" transform="matrix(1,0,0,1,881.358,743.694)"><path fill="#292929" d="M47.685,11.972C49.613,17.014,43.911,21.668,39.281,18.893C29.551,13.062,14.6,5.726,-1.125,4.097C-13.176,2.848,-28.917,4.595,-42.45,8.399C-46.485,9.534,-49.614,4.916,-47.104,1.559C-41.563,-5.85,-30.387,-15.936,-7.775,-18.73C16.004,-21.668,40.532,-6.729,47.685,11.972Z" /></g></g></g></g><g transform="matrix(1,0,0,1,0,0)" id="i62"><g id="i54" transform="matrix(1,0,0,1,947.396,865.688)"><path fill="#da535e" fill-rule="evenodd" d="M314.617,-104.567C254.587,-137.14,185.449,-137.088,127.703,-110.498C127.627,-110.45,127.562,-110.423,127.486,-110.375C126.295,-109.836,125.104,-109.297,123.938,-108.692C99.958,-97.103,78.096,-80.849,59.803,-60.437C59.783,-60.391,59.74,-60.355,59.697,-60.319C49.134,-48.501,39.746,-35.268,31.854,-20.723C31.371,-19.872,30.966,-19.014,30.539,-18.167C30.539,-18.167,30.469,-18.006,30.469,-18.006C16.276,-25.089,2.671,-27.99,-7.593,-29.068C0.09,-109.85,-39.998,-191.326,-115.698,-232.396C-216.782,-287.266,-343.646,-249.632,-398.484,-148.561C-453.322,-47.49,-415.711,79.365,-314.627,134.235C-213.556,189.073,-86.701,151.463,-31.854,50.369C-22.754,33.574,-16.25,16.047,-12.082,-1.744C-12.027,-1.992,-11.972,-2.241,-11.917,-2.489C-3.973,-1.777,7.552,0.4,19.499,6.578C-15.824,102.192,23.536,212.046,115.688,262.064C120.855,264.88,126.086,267.425,131.362,269.745C133.235,270.568,135.118,271.368,136.998,272.113C138.356,272.682,139.734,273.205,141.089,273.719C142.342,274.216,143.593,274.656,144.867,275.107C145.333,275.285,145.777,275.454,146.231,275.599C147.152,275.922,148.05,276.234,148.981,276.534C150.686,277.12,152.401,277.683,154.113,278.19C155.86,278.74,157.628,279.245,159.396,279.75C159.86,279.872,160.301,279.984,160.766,280.106C162.272,280.523,163.788,280.918,165.292,281.279C166.763,281.653,168.198,281.983,169.666,282.302C170.784,282.548,171.903,282.795,173.031,283.019C178.099,284.074,183.202,284.928,188.317,285.568C189.364,285.728,190.408,285.833,191.452,285.937C192.767,286.107,194.103,286.23,195.438,286.354C197.19,286.524,198.928,286.662,200.676,286.776C200.676,286.776,200.699,286.785,200.722,286.795C202.661,286.912,204.599,287.029,206.558,287.099C208.192,287.164,209.859,287.214,211.513,287.232C213.436,287.26,215.369,287.266,217.312,287.248C218.35,287.241,219.366,287.224,220.392,287.185C221.798,287.148,223.181,287.102,224.607,287.02C226.357,286.945,228.117,286.845,229.865,286.714C231.812,286.562,233.737,286.399,235.671,286.214C235.727,286.211,235.783,286.21,235.839,286.207C237.728,286.002,239.594,285.785,241.447,285.537C243.379,285.296,245.298,285.023,247.204,284.716C249.1,284.433,251.017,284.102,252.92,283.74C254.814,283.4,256.728,283.016,258.618,282.62C262.4,281.83,266.153,280.917,269.888,279.86C271.74,279.366,273.59,278.817,275.439,278.267C277.299,277.694,279.136,277.112,280.982,276.506C283.795,275.563,286.573,274.576,289.325,273.524C291.057,272.868,292.732,272.159,294.428,271.461C295.524,271.016,296.609,270.593,297.714,270.125C299.431,269.381,301.135,268.604,302.849,267.804C303.876,267.328,304.893,266.876,305.929,266.378C307.739,265.484,309.559,264.568,311.357,263.641C311.89,263.357,312.436,263.106,312.97,262.823C312.838,262.874,312.73,262.936,312.598,262.987C347.808,244.452,378.09,215.737,398.451,178.219C453.322,77.135,415.688,-49.729,314.617,-104.567ZM-55.468,37.563C-103.253,125.627,-213.757,158.406,-301.822,110.621C-389.886,62.836,-422.655,-47.69,-374.87,-135.755C-327.085,-223.819,-216.568,-256.565,-128.516,-208.813C-40.452,-161.028,-7.683,-50.502,-55.468,37.563ZM374.87,165.401C327.085,253.465,216.558,286.234,128.494,238.449C40.429,190.664,7.65,80.16,55.435,-7.904C103.22,-95.969,213.747,-128.738,301.812,-80.953C389.876,-33.168,422.655,77.337,374.87,165.401Z" /></g><g id="i55" transform="matrix(1,0,0,1,803.363,801.968)"><path fill="#a1535e" d="M14.793,174.618C49.43,158.818,79.412,132.089,98.925,96.126C146.707,8.063,113.937,-102.454,25.876,-150.235C-29.862,-180.478,-94.579,-178.415,-146.707,-150.521C-96.53,-173.41,-36.578,-173.348,15.52,-145.079C103.582,-97.298,136.352,13.219,88.569,101.282C71.031,133.605,45.023,158.443,14.793,174.618Z" /></g><g id="i1" transform="matrix(1,0,0,1,1026.409,802.882)"><path fill="#a1535e" d="M48.473,-47.57C13.498,-29.013,-16.563,-0.365,-36.824,36.924C-37.304,37.83,-41.96,46.686,-42.43,47.57C-43.884,46.849,-46.438,45.589,-48.473,44.639C-48.046,43.792,-47.642,42.934,-47.159,42.083C-39.266,27.538,-29.879,14.305,-19.316,2.487C-19.273,2.451,-19.23,2.415,-19.21,2.369C-0.054,-17.773,22.579,-34.914,44.926,-45.886C46.091,-46.491,47.282,-47.031,48.473,-47.57Z" /></g><g id="i2" transform="matrix(1,0,0,1,1095.894,1004.313)"><path fill="#a1535e" d="M164.322,124.497C154.287,128.201,144.91,133.589,134.709,137.094C124.83,140.487,114.708,143.269,104.423,145.114C78.046,149.846,50.799,149.864,24.533,144.391C10.329,141.578,-3.939,136.918,-17.136,131.118C-22.412,128.799,-27.643,126.254,-32.81,123.438C-124.962,73.42,-164.322,-36.434,-128.999,-132.048C-140.946,-138.226,-152.471,-140.403,-160.415,-141.115C-160.47,-140.867,-160.525,-140.618,-160.579,-140.37C-159.74,-143.55,-159.49,-146.23,-159.129,-147.734C-153.38,-148.585,-130.578,-143.398,-118.641,-137.197C-153.964,-41.584,-114.604,68.27,-22.452,118.288C20.4,141.539,70.743,149.015,118.507,139.262C134.376,136.022,149.133,130.103,164.322,124.497Z" /></g><g id="i3" transform="matrix(1,0,0,1,1220.778,926.879)"><path fill="#a1535e" d="M27.7,177.548C62.337,161.749,92.319,135.02,111.832,99.057C159.614,10.994,126.844,-99.523,38.782,-147.306C-16.957,-177.549,-81.673,-175.484,-133.802,-147.591C-83.625,-170.48,-23.672,-170.418,28.426,-142.15C116.489,-94.368,149.259,16.15,101.476,104.213C83.938,136.536,57.93,161.373,27.7,177.548Z" /></g><g id="i4" transform="matrix(1,0,0,1,676.874,830.907)"><path fill="#a1535e" d="M-33.754,163.845C-134.833,109.001,-172.447,-17.853,-117.602,-118.932C-97.314,-156.324,-67.156,-185.002,-32.109,-203.557C-71.564,-185.381,-105.694,-154.809,-127.958,-113.777C-182.803,-12.698,-145.188,114.156,-44.11,169.001C19.577,203.557,93.481,201.378,153.173,169.777C95.434,196.376,26.293,196.426,-33.754,163.845Z" /></g></g><g id="i63"><g transform="translate(1448,1296)"><animateTransform repeatCount="indefinite" type="translate" attributeName="transform" dur="2s" begin="0s" calcMode="spline" values="1448 1296; 1448 1296; 1448 1244; 1448 1244; 1448 1244; 1448 1289; 1448 1289" keyTimes="0; 0.06; 0.1; 0.44; 0.5; 0.56; 1" keySplines="0 0 1 1; 0 0 1 1; 0 0 1 1; 0 0 1 1; 0 0 1 1; 0 0 1 1" fill="freeze" /><g transform="rotate(0)"><animateTransform repeatCount="indefinite" type="rotate" attributeName="transform" dur="2s" begin="0s" calcMode="spline" values="0; -55; -46; 0; 0" keyTimes="0; 0.16; 0.46; 0.64; 1" keySplines="0.333 0 0.667 1; 0.333 0 0.667 1; 0.333 0 0.667 1; 0 0 1 1" fill="freeze" /><g transform="scale(1,1) translate(-1448,-1296)"><g id="i55" transform="matrix(1,0,0,1,1450.719,1278.874)"><path fill="#473b38" d="M-45.954,97.085C-48.629,108.24,-41.755,119.448,-30.602,122.122C-26.398,123.13,-22.184,122.781,-18.423,121.357C-12.21,119.005,-7.231,113.718,-5.566,106.77C-5.566,106.77,48.629,-105.578,48.629,-105.578C40.855,-114.669,17.434,-123.13,7.893,-113.849C7.893,-113.849,-45.954,97.085,-45.954,97.085Z" /></g><g id="i1" transform="matrix(1,0,0,1,1486.199,1130.574)"><path fill="#9fa0a0" d="M4.347,41.577C4.347,41.577,-21.428,35.872,-21.428,35.872C-21.428,35.872,-7.213,-24.788,-7.213,-24.788C-7.213,-24.788,-3.027,-41.578,-3.027,-41.578C4.808,-39.203,13.328,-37.365,21.428,-36.268C20.611,-32.505,18.196,-19.27,18.196,-19.27C18.196,-19.27,4.347,41.577,4.347,41.577Z" /></g><g id="i3" transform="matrix(1,0,0,1,1529.724,924.14)"><path fill="#5d5c5c" fill-rule="evenodd" d="M74.07,-157.523C-17.069,-198.368,-124.43,-157.441,-165.284,-66.281C-206.129,24.858,-165.222,132.209,-74.082,173.055C-69.668,175.034,-65.26,176.819,-61.011,178.322C-57.624,179.532,-54.193,180.643,-50.738,181.647C-42.416,184.099,-33.898,185.952,-25.329,187.165C-25.28,187.163,-25.221,187.189,-25.173,187.187C54.172,198.368,132.476,155.046,165.274,81.862C206.128,-9.297,165.21,-116.677,74.07,-157.523ZM-19.961,163.464C-20.369,163.423,-20.788,163.354,-21.215,163.304C-29.315,162.207,-37.356,160.449,-45.19,158.074C-48.011,157.236,-50.786,156.3,-53.535,155.305C-57.071,154.004,-60.681,152.552,-64.189,150.98C-143.148,115.593,-178.595,22.57,-143.209,-56.388C-107.822,-135.347,-14.799,-170.795,64.159,-135.408C143.138,-100.013,178.585,-6.99,143.199,71.969C115.074,134.726,48.115,172.221,-19.961,163.464Z" /></g><g id="i4" transform="matrix(1,0,0,1,1465.287,938.321)"><path fill="#ffffff" d="M79.967,121.489C79.637,118.642,77.007,116.601,74.21,116.922C52.29,119.457,30.003,115.994,9.758,106.923C-52.278,79.118,-80.128,6.032,-52.329,-56.001C-40.146,-83.182,-18.562,-105.019,8.446,-117.49C9.707,-118.071,10.668,-119.109,11.15,-120.415C11.629,-121.715,11.573,-123.125,10.99,-124.393C9.791,-126.987,6.697,-128.123,4.093,-126.93C-25.199,-113.406,-48.604,-89.727,-61.813,-60.253C-76.394,-27.72,-77.415,8.594,-64.684,41.998C-51.957,75.402,-27.029,101.827,5.504,116.407C22.786,124.155,41.44,128.123,60.192,128.123C65.261,128.123,70.34,127.835,75.4,127.249C76.778,127.091,78.012,126.404,78.875,125.315C79.741,124.226,80.128,122.869,79.967,121.489Z" /></g></g></g></g></g><g id="i64"><g transform="translate(1424,1308)"><animateTransform repeatCount="indefinite" type="translate" attributeName="transform" dur="2s" begin="0s" calcMode="spline" values="1424 1308; 1424 1308; 1424 1274; 1424 1274; 1424 1288; 1424 1308; 1424 1308" keyTimes="0; 0.06; 0.1; 0.44; 0.5; 0.56; 1" keySplines="0 0 1 1; 0.333 0 0.667 1; 0 0 1 1; 0.333 0 0.667 1; 0.333 0 0.667 1; 0 0 1 1" fill="freeze" /><g transform="rotate(0)"><animateTransform repeatCount="indefinite" type="rotate" attributeName="transform" dur="2s" begin="0s" calcMode="spline" values="0; -56; -46; -31; 0; 0" keyTimes="0; 0.16; 0.46; 0.5; 0.64; 1" keySplines="0.333 0 0.667 1; 0.333 0 0.667 1; 0.333 0 0.667 1; 0.333 0 0.667 1; 0 0 1 1" fill="freeze" /><g transform="scale(1,1) translate(-1424,-1308)"><g id="i54" transform="matrix(1,0,0,1,1465.025,1268.448)"><path fill="#ffffff" d="M-32.724,-14.24C-32.724,-14.24,-43.037,-7.92,-40.022,5.942C-37.007,19.804,-13.949,24.524,2.983,23.062C19.915,21.6,43.037,12.473,41.561,-1.382C40.085,-15.237,27.817,-24.524,20.11,-21.482C12.403,-18.439,-19.369,-12.854,-32.724,-14.24Z" /></g><g id="i55" transform="matrix(1,0,0,1,1464.316,1269.275)"><path fill="#402f2d" fill-rule="evenodd" d="M8.444,24.986C6.911,25.221,5.415,25.4,3.976,25.526C-12.053,26.909,-38.853,22.78,-42.541,5.816C-46.014,-10.153,-34.243,-17.574,-33.742,-17.883C-33.118,-18.262,-32.393,-18.427,-31.674,-18.353C-19.032,-17.037,12.219,-22.465,19.604,-25.381C23.477,-26.908,28.251,-26.229,32.734,-23.518C39.712,-19.291,44.625,-11.259,45.553,-2.558C46.013,1.763,44.657,5.882,41.524,9.684C34.713,17.946,20.443,23.149,8.444,24.986ZM-31.072,-11.673C-33.101,-10.015,-38.106,-4.865,-36.088,4.413C-33.724,15.291,-13.747,20.426,3.406,18.945C15.133,17.946,30.248,12.983,36.429,5.484C38.417,3.069,39.256,0.667,38.987,-1.859C38.135,-9.869,33.242,-15.49,29.313,-17.868C26.613,-19.502,23.967,-19.997,22.028,-19.238C14.019,-16.072,-16.48,-10.661,-31.072,-11.673Z" /></g><g id="i1" transform="matrix(1,0,0,1,1463.333,1305.473)"><path fill="#ffffff" d="M-32.724,-17.422C-32.724,-17.422,-43.036,-11.102,-40.022,2.76C-37.007,16.622,-13.949,21.342,2.983,19.88C19.915,18.418,43.037,9.291,41.561,-4.564C40.085,-18.419,32.033,-21.341,18.508,-18.448C-5.438,-13.325,-19.369,-16.036,-32.724,-17.422Z" /></g><g id="i2" transform="matrix(1,0,0,1,1462.624,1305.945)"><path fill="#402f2d" fill-rule="evenodd" d="M8.45,22.158C6.913,22.394,5.414,22.574,3.975,22.699C-12.05,24.083,-38.849,19.956,-42.54,2.992C-46.014,-12.978,-34.243,-20.399,-33.742,-20.708C-33.119,-21.089,-32.393,-21.25,-31.674,-21.178C-30.023,-21.005,-28.363,-20.814,-26.676,-20.619C-15.088,-19.284,-1.965,-17.78,18.526,-22.147C27.542,-24.082,33.893,-23.448,38.438,-20.153C42.478,-17.226,44.806,-12.395,45.553,-5.386C46.013,-1.064,44.657,3.055,41.524,6.857C34.716,15.119,20.449,20.321,8.45,22.158ZM-31.098,-14.475C-33.15,-12.792,-38.096,-7.648,-36.088,1.588C-33.721,12.466,-13.744,17.6,3.406,16.119C15.162,15.116,30.251,10.158,36.428,2.657C38.42,0.243,39.256,-2.16,38.986,-4.686C38.449,-9.729,37.002,-13.04,34.563,-14.806C31.683,-16.893,26.893,-17.183,19.906,-15.691C-1.622,-11.084,-15.335,-12.665,-27.432,-14.059C-28.667,-14.203,-29.887,-14.342,-31.098,-14.475Z" /></g><g id="i3" transform="matrix(1,0,0,1,1460.143,1337.389)"><path fill="#ffffff" d="M-21.516,-13.7C-21.516,-13.7,-41.517,-13.79,-38.502,0.071C-35.488,13.933,-16.029,19.195,0.903,17.733C17.835,16.271,35.398,11.922,37.964,2.197C41.517,-11.275,31.358,-19.195,23.651,-16.152C15.944,-13.11,-8.161,-12.313,-21.516,-13.7Z" /></g><g id="i4" transform="matrix(1,0,0,1,1460.291,1338.163)"><path fill="#402f2d" fill-rule="evenodd" d="M10.248,19.161C7.134,19.638,4.025,19.991,1.04,20.249C-17.169,21.819,-38.365,16.152,-41.876,-0.003C-43.047,-5.387,-41.298,-8.983,-39.625,-11.05C-34.287,-17.644,-22.93,-17.78,-21.647,-17.776C-21.54,-17.775,-21.432,-17.77,-21.323,-17.759C-8.21,-16.394,15.287,-17.24,22.292,-19.999C26.923,-21.819,32.268,-20.759,36.248,-17.219C41.27,-12.758,43.048,-5.474,41.007,2.264C38.356,12.322,24.285,17.012,10.248,19.161ZM-25.512,-10.848C-28.683,-10.362,-32.603,-9.24,-34.5,-6.888C-35.621,-5.497,-35.922,-3.703,-35.424,-1.407C-32.905,10.18,-15.051,15.009,0.47,13.669C20.156,11.97,32.911,7.076,34.623,0.58C36.016,-4.702,34.983,-9.51,31.864,-12.283C29.75,-14.159,27.025,-14.763,24.714,-13.856C16.016,-10.417,-9.027,-9.871,-21.827,-11.171C-22.699,-11.163,-24.023,-11.076,-25.512,-10.848Z" /></g></g></g></g></g><g id="i65"><g transform="translate(896,592)"><g transform="rotate(0)"><animateTransform repeatCount="indefinite" type="rotate" attributeName="transform" dur="2s" begin="0s" calcMode="spline" values="0; 20; 0; 0; 20; 0; 0" keyTimes="0; 0.12; 0.28; 0.54; 0.66; 0.94; 1" keySplines="0.167 0.167 0.667 1; 0.167 0.167 0.667 1; 0.167 0 0.667 1; 0.167 0.167 0.667 1; 0.167 0.167 0.667 1; 0 0 1 1" fill="freeze" /><g transform="scale(1,1) translate(-896,-592)"><g id="i3" transform="matrix(1,0,0,1,956.386,420.274)"><path fill="#402f2d" d="M-59.35,174.117C-59.35,174.117,-67.055,173.695,-67.055,173.695C-73.558,173.339,-78.422,167.624,-77.756,161.146C-71.558,100.911,-43.489,13.391,-24.937,-33.584C-6.836,-79.415,22.159,-141.055,57.494,-174.448C57.494,-174.448,78.422,-152.307,78.422,-152.307C54.026,-129.253,27.38,-83.113,3.398,-22.391C-13.836,21.239,-41.561,107.288,-47.43,164.006C-48.052,170.017,-53.316,174.448,-59.35,174.117Z" /></g><g id="i4" transform="matrix(1,0,0,1,1047.722,218.407)"><path fill="#402f2d" fill-rule="evenodd" d="M88.403,-41.357C86.114,-40.396,83.821,-39.436,81.529,-38.472C83.268,-39.761,85.009,-41.049,86.746,-42.341C89.541,-44.42,87.038,-49.236,84.026,-47.192C83.193,-46.627,82.362,-46.05,81.53,-45.482C78.358,-44.56,75.154,-43.731,72.07,-42.489C72.021,-42.469,71.974,-42.445,71.925,-42.425C72.851,-43.095,73.776,-43.765,74.702,-44.435C77.861,-46.721,80.891,-49.552,84.187,-51.602C84.318,-51.683,84.2,-51.893,84.071,-51.81C80.815,-49.732,77.009,-48.256,73.598,-46.404C72.725,-45.929,71.851,-45.456,70.978,-44.981C72.843,-46.543,74.708,-48.103,76.574,-49.664C78.385,-51.18,75.965,-54.471,74.041,-53.029C68.077,-48.558,62.113,-44.088,56.149,-39.617C55.424,-39.073,54.696,-38.532,53.969,-37.987C54.251,-38.286,54.528,-38.589,54.811,-38.886C60.651,-45.037,66.813,-50.842,73.244,-56.372C76.524,-59.192,72.348,-63.611,68.921,-61.836C70.862,-64.023,72.821,-66.194,74.745,-68.393C77.369,-71.392,73.105,-75.833,70.341,-72.847C62.498,-64.374,54.464,-56.096,46.368,-47.866C45.191,-46.67,44.007,-45.483,42.825,-44.293C49.822,-53.39,56.581,-62.688,63.855,-71.564C65.113,-73.099,65.397,-75.268,63.885,-76.784C62.561,-78.113,59.98,-78.332,58.665,-76.812C54.44,-71.929,50.173,-66.993,46.003,-61.965C49.24,-67.072,52.432,-72.212,55.615,-77.367C56.801,-79.288,53.897,-81.032,52.62,-79.279C52.816,-80.947,50.333,-82.053,49.164,-80.374C46.891,-77.109,44.628,-73.8,42.401,-70.457C41.928,-70.518,41.448,-70.455,40.99,-70.294C43.264,-74.875,45.464,-79.502,47.546,-84.2C48.925,-87.309,44.367,-90.081,42.914,-86.919C42.693,-86.437,42.443,-85.968,42.22,-85.487C41.126,-87.161,38.514,-87.773,37.249,-85.488C34.067,-79.746,30.964,-73.963,27.95,-68.133C29.761,-73.895,31.953,-79.496,35.139,-84.742C36.673,-87.268,32.762,-89.559,31.185,-87.065C27.296,-80.915,24.572,-74.1,22.143,-67.231C22.143,-67.231,24.922,-80.756,24.922,-80.756C25.099,-81.618,24.936,-82.366,24.582,-82.976C25.049,-84.064,25.513,-85.154,25.982,-86.239C27.274,-89.225,22.905,-91.887,21.546,-88.846C20.68,-86.908,19.799,-84.972,18.914,-83.039C18.357,-82.983,17.824,-82.692,17.477,-82.013C15.598,-78.339,14.249,-74.491,13.152,-70.558C12.995,-70.22,12.838,-69.88,12.681,-69.541C13.552,-76.798,14.665,-84.045,16.652,-91.071C17.711,-94.813,12.22,-96.252,10.912,-92.689C9.334,-88.391,8.169,-84.018,7.231,-79.595C6.668,-83.422,5.619,-87.258,5.472,-91.086C5.466,-91.239,5.227,-91.244,5.233,-91.09C5.373,-87.571,4.587,-83.95,4.156,-80.409C3.373,-85.971,2.572,-91.526,1.834,-97.076C1.316,-100.976,-5.511,-100.244,-5.072,-96.3C-4.346,-89.777,-3.686,-83.226,-2.997,-76.675C-3.453,-78.418,-3.929,-80.156,-4.384,-81.9C-5.526,-86.28,-7.737,-90.418,-8.709,-94.804C-8.747,-94.979,-8.999,-94.908,-8.973,-94.738C-8.602,-92.254,-8.86,-89.681,-8.734,-87.178C-8.718,-86.857,-8.671,-86.536,-8.646,-86.215C-8.699,-86.364,-8.752,-86.513,-8.805,-86.663C-10.07,-90.231,-15.799,-88.91,-14.597,-85.233C-13.681,-82.434,-12.766,-79.635,-11.851,-76.836C-14.587,-82.272,-17.234,-87.744,-19.491,-93.367C-20.399,-95.629,-24.259,-94.102,-23.498,-91.784C-23.012,-90.303,-22.437,-88.854,-21.88,-87.4C-24.07,-87.917,-26.979,-86.057,-26.008,-83.529C-24.956,-80.792,-23.899,-78.056,-22.853,-75.317C-25.026,-78.624,-27.745,-81.893,-29.027,-85.564C-29.076,-85.706,-29.303,-85.655,-29.258,-85.507C-28.892,-84.293,-28.602,-83.079,-28.328,-81.867C-29.615,-84.84,-30.915,-87.809,-32.109,-90.805C-32.787,-92.508,-35.658,-91.359,-35.115,-89.618C-34.856,-88.789,-34.575,-87.976,-34.309,-87.153C-34.74,-87.991,-35.185,-88.821,-35.615,-89.659C-37.763,-93.852,-44.089,-90.279,-41.988,-86.086C-37.06,-76.255,-32.068,-66.457,-27.006,-56.694C-27.696,-57.801,-28.379,-58.908,-29.039,-60.02C-33.404,-67.373,-37.627,-74.809,-41.723,-82.316C-43.14,-84.914,-47.058,-82.697,-45.722,-80.075C-41.84,-72.455,-37.827,-64.899,-33.669,-57.425C-33.258,-56.685,-32.849,-55.936,-32.439,-55.184C-36.606,-61.802,-40.434,-68.623,-43.913,-75.628C-45.757,-79.341,-51.258,-76.198,-49.506,-72.494C-47.211,-67.644,-44.738,-62.883,-42.12,-58.202C-44.945,-62.506,-47.556,-66.959,-50.12,-71.404C-52.3,-75.183,-58.164,-71.909,-56.039,-68.087C-54.546,-65.402,-53.018,-62.739,-51.46,-60.095C-52.269,-61.046,-53.073,-61.999,-53.886,-62.947C-56.422,-65.906,-59.33,-68.535,-61.949,-71.424C-62.688,-72.238,-63.753,-71.082,-63.131,-70.256C-60.758,-67.098,-58.699,-63.71,-56.237,-60.622C-55.209,-59.331,-54.173,-58.048,-53.14,-56.762C-54.922,-58.712,-56.684,-60.679,-58.396,-62.685C-59.81,-64.341,-62.761,-62.174,-61.496,-60.352C-59.683,-57.742,-57.801,-55.195,-55.876,-52.683C-58.525,-55.801,-61.06,-59.014,-63.413,-62.367C-65.574,-65.446,-70.694,-62.748,-68.616,-59.451C-66.739,-56.474,-64.719,-53.593,-62.628,-50.763C-63.382,-51.294,-64.124,-51.842,-64.908,-52.327C-66.147,-53.093,-67.389,-53.876,-68.687,-54.539C-70.159,-55.29,-71.869,-55.787,-73.204,-56.759C-73.343,-56.861,-73.496,-56.615,-73.342,-56.524C-71.959,-55.704,-70.875,-54.31,-69.725,-53.205C-68.679,-52.2,-67.574,-51.255,-66.513,-50.264C-64.3,-48.198,-62,-46.231,-59.814,-44.136C-58.921,-43.28,-58.041,-42.405,-57.152,-41.543C-60.949,-44.395,-64.603,-47.431,-68.078,-50.687C-71.283,-53.691,-76.151,-48.943,-72.956,-45.863C-68.728,-41.789,-64.234,-37.99,-59.535,-34.467C-60.737,-35.063,-61.936,-35.664,-63.152,-36.235C-64.679,-36.953,-66.266,-37.606,-67.722,-38.467C-69.006,-39.226,-71.168,-40.577,-71.737,-42.061C-71.778,-42.169,-71.927,-42.186,-71.967,-42.065C-72.226,-41.286,-72.4,-40.726,-72.399,-40.145C-73.107,-40.445,-73.799,-40.783,-74.523,-41.055C-76.693,-41.871,-79.091,-42.064,-81.217,-42.977C-81.373,-43.045,-81.512,-42.833,-81.355,-42.742C-79.512,-41.676,-78.078,-40.001,-76.34,-38.782C-74.825,-37.719,-73.245,-36.758,-71.652,-35.82C-71.337,-35.634,-71.023,-35.445,-70.709,-35.258C-73.857,-36.546,-77.001,-37.842,-80.159,-39.107C-81.861,-39.789,-83.884,-38.393,-84.343,-36.762C-84.891,-34.818,-83.693,-33.29,-81.998,-32.576C-78.465,-31.089,-74.95,-29.56,-71.424,-28.054C-72.392,-28.239,-73.364,-28.384,-74.334,-28.551C-79.217,-29.635,-84.075,-30.843,-88.891,-32.305C-92.878,-33.516,-94.607,-27.329,-90.642,-26.09C-88.324,-25.365,-85.981,-24.674,-83.628,-24.003C-87.127,-23.16,-86.803,-17.177,-82.585,-16.8C-80.569,-16.62,-78.554,-16.439,-76.538,-16.259C-83.233,-14.56,-89.925,-12.566,-96.682,-12.537C-97.624,-12.533,-97.928,-11.034,-96.931,-10.842C-93.665,-10.21,-90.424,-10.07,-87.193,-10.235C-87.03,-8.854,-86.131,-7.825,-84.896,-7.352C-88.697,-6.971,-92.499,-6.608,-96.305,-6.288C-98.45,-6.107,-100.323,-4.679,-100.365,-2.372C-100.404,-0.315,-98.61,1.78,-96.45,1.69C-90.629,1.447,-84.826,1.059,-79.028,0.555C-82.788,1.621,-86.47,2.934,-89.991,4.758C-90.053,4.79,-90.097,4.833,-90.156,4.867C-90.946,4.827,-91.789,4.991,-92.656,5.477C-97.498,8.19,-94.089,15.262,-89.419,14.248C-90.46,15.747,-89.344,17.982,-87.628,17.814C-90.891,19.191,-94.154,20.569,-97.43,21.905C-100.904,23.321,-98.551,29.338,-94.987,28.09C-88.488,25.816,-82.072,23.375,-75.719,20.758C-78.751,22.65,-81.761,24.575,-84.735,26.572C-86.915,28.035,-85.041,31.545,-82.713,30.181C-80.508,28.89,-78.303,27.6,-76.097,26.31C-76.812,26.885,-77.541,27.446,-78.244,28.034C-79.834,29.363,-77.579,31.59,-75.989,30.314C-69.892,25.418,-63.102,21.712,-56.036,18.412C-68.437,25.839,-80.656,33.576,-92.81,41.39C-95.891,43.37,-93.24,48.247,-90.004,46.398C-82.162,41.917,-74.317,37.434,-66.502,32.899C-72.403,38.973,-77.98,45.381,-83.393,51.736C-86.126,54.944,-81.589,59.675,-78.727,56.454C-73.737,50.84,-68.556,45.402,-63.25,40.087C-62.927,40.117,-62.601,40.081,-62.273,39.997C-62.408,40.129,-62.545,40.261,-62.679,40.393C-68.79,46.412,-74.412,52.748,-79.719,59.486C-81.787,62.112,-78.458,65.828,-75.943,63.303C-70.772,58.113,-65.514,52.989,-60.214,47.924C-59.738,47.992,-59.245,47.971,-58.754,47.821C-63.65,53.478,-68.312,59.345,-72.76,65.362C-73.939,66.957,-71.321,69,-70.002,67.507C-68.855,66.208,-67.692,64.922,-66.539,63.628C-66.015,66.514,-62.963,69.043,-59.636,67.178C-58.466,66.522,-57.8,65.604,-57.495,64.612C-57.199,64.379,-56.915,64.113,-56.666,63.768C-51.037,55.96,-45.172,48.33,-39.083,40.879C-39.821,42.111,-40.561,43.344,-41.286,44.584C-44.992,49.325,-48.341,54.377,-51.603,59.376C-54.364,63.608,-56.871,67.966,-59.259,72.419C-61.843,77.236,-63.14,82.579,-65.56,87.445C-65.628,87.581,-65.431,87.701,-65.355,87.565C-63.965,85.097,-62.185,82.83,-60.379,80.586C-59.973,82.778,-56.417,84.07,-54.624,81.649C-52.409,78.658,-50.121,75.73,-47.804,72.826C-47.7,72.903,-47.607,72.987,-47.49,73.055C-45.964,73.952,-43.579,73.507,-42.745,71.82C-41.133,68.559,-39.374,65.377,-37.495,62.267C-37.189,62.542,-36.826,62.75,-36.404,62.851C-40.302,68.529,-44.108,74.26,-47.853,80.06C-48.643,81.283,-46.735,82.841,-45.796,81.66C-43.161,78.351,-40.54,75.045,-37.95,71.716C-39.103,73.803,-40.285,75.874,-41.429,77.968C-42.341,79.635,-41.794,81.189,-40.694,82.102C-42.234,84.357,-43.774,86.612,-45.315,88.867C-47.173,91.588,-42.764,94.16,-40.904,91.457C-35.495,83.601,-30.086,75.745,-24.677,67.888C-24.723,68.094,-24.778,68.297,-24.823,68.503C-24.866,68.697,-24.877,68.881,-24.89,69.065C-28.633,75.821,-32.371,82.579,-36.111,89.336C-38.196,93.105,-32.496,96.489,-30.324,92.734C-25.715,84.764,-21.094,76.8,-16.495,68.824C-15.5,67.097,-14.49,65.369,-13.484,63.638C-14.694,66.396,-15.929,69.144,-17.131,71.904C-20.084,78.688,-23.218,85.392,-26.513,92.017C-27.624,94.249,-24.34,96.24,-23.138,93.998C-21.315,90.596,-19.535,87.17,-17.8,83.722C-18.781,88.023,-19.805,92.319,-20.825,96.611C-21.575,99.766,-17.103,100.977,-16.017,97.966C-13.692,91.517,-11.897,84.968,-10.728,78.273C-10.345,83.182,-9.832,88.074,-9.231,92.916C-8.94,95.254,-4.901,94.816,-5.098,92.452C-5.616,86.223,-5.863,79.996,-5.999,73.767C-5.574,77.306,-5.158,80.847,-4.738,84.388C-4.339,87.766,1.415,87.121,1.213,83.718C1.15,82.669,1.055,81.628,0.985,80.58C1.742,83.895,2.531,87.201,3.389,90.488C4.068,93.09,8.076,92.101,7.443,89.488C5.216,80.296,3.447,71.035,2.251,61.652C2.042,60.011,1.871,58.367,1.7,56.723C1.943,57.267,2.192,57.809,2.437,58.352C2.891,60.923,3.345,63.494,3.882,66.049C5.502,73.751,7.781,81.31,10.272,88.772C11.337,91.963,16.313,90.831,15.413,87.503C14.921,85.686,14.514,83.853,14.065,82.027C14.655,83.124,15.237,84.227,15.865,85.299C16.859,86.999,18.209,88.517,19.044,90.3C19.12,90.462,19.345,90.326,19.282,90.168C18.515,88.237,18.34,86.1,17.67,84.134C17.083,82.414,16.51,80.679,15.858,78.983C14.638,75.806,13.271,72.678,11.946,69.544C11.491,68.468,11,67.414,10.518,66.356C10.417,65.872,10.308,65.391,10.207,64.908C10.022,64.018,9.886,63.118,9.71,62.227C11.433,66.83,13.238,71.407,15.188,75.915C15.57,76.8,16.506,77.275,17.457,77.334C18.168,79.676,18.888,82.016,19.583,84.359C20.461,87.319,24.939,86.238,24.253,83.207C23.087,78.056,21.828,72.894,20.465,67.751C22.166,72.444,23.863,77.138,25.577,81.826C26.489,84.319,28.758,86.113,31.534,85.425C33.865,84.848,36.089,81.967,35.134,79.47C32.404,72.331,29.674,65.192,26.897,58.071C26.481,57.007,26.066,55.943,25.65,54.878C26.623,57.062,27.607,59.241,28.568,61.426C31.971,69.159,35.949,76.738,37.671,85.072C38.426,88.726,43.618,87.236,43.173,83.716C42.071,74.998,38.641,66.865,35.188,58.86C33.836,55.726,32.501,52.583,31.141,49.45C31.278,49.376,31.416,49.309,31.552,49.233C31.78,49.706,32.013,50.179,32.235,50.652C35.822,58.293,39.681,65.808,43.338,73.416C45.124,77.133,50.243,73.983,48.801,70.356C47.465,66.996,46.138,63.625,44.788,60.263C45.9,62.142,47.02,64.014,48.229,65.835C49.789,68.183,51.68,70.202,53.343,72.463C53.962,73.305,55.162,72.643,54.758,71.671C53.678,69.077,52.924,66.428,51.732,63.872C51.143,62.611,50.517,61.37,49.874,60.137C51.672,62.385,53.502,64.606,55.396,66.772C56.502,68.036,57.886,68.076,58.999,67.477C59.198,67.79,59.406,68.099,59.602,68.414C61.232,71.013,65.341,68.757,63.786,66.069C61.537,62.183,59.187,58.369,56.721,54.632C59.206,58.052,61.698,61.467,64.235,64.855C66.511,67.897,71.706,65.303,69.567,61.867C67.815,59.052,66.066,56.242,64.299,53.445C67.249,56.067,70.307,58.57,73.514,60.942C76.112,62.863,79.444,58.597,77.009,56.449C73.933,53.737,70.941,50.895,68.041,47.963C70.122,49.322,72.21,50.669,74.261,52.075C76.353,53.508,79.057,50.135,77.03,48.514C76.325,47.949,75.624,47.378,74.921,46.81C75.086,46.856,75.241,46.922,75.408,46.965C78.475,47.749,79.814,43.033,76.742,42.228C72.733,41.178,69.359,38.932,66.069,36.53C72.5,40.154,79.033,43.483,85.77,46.558C89.183,48.116,92.178,43.403,88.79,41.414C85.533,39.503,82.305,37.537,79.058,35.602C81.133,35.944,83.207,36.275,85.279,36.59C88.332,37.054,89.778,32.491,86.614,31.852C82.389,30.997,78.171,30.1,73.954,29.192C74.209,29.228,74.465,29.267,74.719,29.303C77.097,29.644,79.745,29.689,82.041,30.402C82.189,30.448,82.256,30.203,82.106,30.171C81.549,30.054,80.993,29.887,80.44,29.694C81.08,29.83,81.72,29.967,82.359,30.098C84.673,30.572,87.119,30.495,89.401,31.105C89.528,31.139,89.618,30.951,89.494,30.888C87.537,29.887,85.899,28.3,84.046,27.122C82.304,26.015,80.502,24.943,78.695,23.946C77.017,23.019,75.32,22.133,73.617,21.258C79.094,22.56,84.58,23.822,90.039,25.197C93.308,26.021,94.642,21.227,91.454,20.175C90.08,19.722,88.718,19.235,87.349,18.768C87.774,18.724,88.199,18.68,88.624,18.627C89.015,18.702,89.408,18.761,89.799,18.837C90.587,18.992,91.209,18.67,91.615,18.18C92.083,18.082,92.397,17.853,92.645,17.579C93.782,17.683,94.918,17.763,96.056,17.879C99.59,18.242,100.534,12.199,96.972,11.669C93.818,11.2,90.651,10.873,87.479,10.645C86.487,10.001,85.497,9.354,84.448,8.827C83.105,8.151,81.748,7.566,80.377,7.007C86.868,6.279,93.357,5.539,99.856,4.877C100.87,4.774,100.904,3.171,99.885,3.279C97.775,3.502,95.661,3.687,93.55,3.9C93.723,2.846,93.128,1.653,91.702,1.519C87.843,1.156,83.973,0.736,80.099,0.363C84.989,-0.363,89.883,-1.055,94.784,-1.701C98.799,-2.231,97.217,-8.248,93.284,-7.783C84.807,-6.78,76.346,-5.648,67.901,-4.404C68.61,-4.579,69.321,-4.729,70.03,-4.918C73.67,-5.89,77.29,-6.898,80.885,-8.025C84.689,-9.217,88.597,-10.926,92.512,-11.645C92.663,-11.673,92.601,-11.924,92.454,-11.878C89.733,-11.027,86.753,-10.654,83.834,-10.29C86.988,-11.128,90.166,-11.87,93.398,-12.395C97.524,-13.067,95.938,-19.361,91.845,-18.695C89.246,-18.273,86.683,-17.706,84.137,-17.076C84.133,-17.451,84.062,-17.826,83.917,-18.174C86.63,-18.963,89.355,-19.716,92.102,-20.387C96.118,-21.369,94.582,-27.555,90.567,-26.613C88.193,-26.055,85.844,-25.405,83.494,-24.758C84.701,-25.363,85.908,-25.97,87.093,-26.613C90.239,-28.319,93.077,-30.522,96.218,-32.21C96.349,-32.28,96.265,-32.516,96.118,-32.461C92.824,-31.224,89.322,-30.571,85.991,-29.403C85.848,-29.353,85.707,-29.296,85.565,-29.246C86.978,-30.114,88.415,-30.927,89.899,-31.53C90.024,-31.581,89.94,-31.789,89.813,-31.751C86.285,-30.693,82.408,-30.45,78.789,-29.732C78.227,-29.62,77.685,-29.484,77.137,-29.357C81.874,-31.61,86.622,-33.838,91.428,-35.96C95.091,-37.577,92.019,-42.876,88.403,-41.357ZM-86.097,17.174C-84.418,16.228,-82.663,15.505,-80.859,14.921C-82.604,15.676,-84.347,16.431,-86.097,17.174Z" /></g></g></g></g></g><g id="i66"><g transform="translate(1072,632)"><g transform="rotate(0)"><animateTransform repeatCount="indefinite" type="rotate" attributeName="transform" dur="2s" begin="0s" calcMode="spline" values="0; 20; 0; 0; 20; 0; 0" keyTimes="0; 0.1; 0.26; 0.5; 0.66; 0.94; 1" keySplines="0.333 0 0.667 1; 0.333 0 0.667 1; 0.333 0 0.667 1; 0.333 0 0.667 1; 0.333 0 0.667 1; 0 0 1 1" fill="freeze" /><g transform="scale(1,1) translate(-1072,-632)"><g id="i3" transform="matrix(1,0,0,1,1199.503,526.042)"><path fill="#402f2d" d="M-122.886,115.72C-122.886,115.72,-126.922,113.49,-126.922,113.49C-133.422,109.897,-135.519,101.614,-131.622,95.292C-101.217,45.973,-49.49,-8.027,-11.711,-39.412C29.411,-73.575,86.172,-106.318,126.321,-119.037C126.321,-119.037,135.52,-89.995,135.52,-89.995C99.301,-78.52,45.568,-47.392,7.758,-15.981C-29.21,14.73,-78.172,66.726,-105.693,111.297C-109.295,117.13,-116.886,119.037,-122.886,115.72Z" /></g><g id="i4" transform="matrix(1,0,0,1,1350.881,398.858)"><path fill="#402f2d" fill-rule="evenodd" d="M102.484,12.637C99.91,12.251,97.334,11.859,94.757,11.472C97.016,11.266,99.276,11.062,101.535,10.852C105.171,10.515,105.555,4.837,101.745,5.026C100.691,5.078,99.632,5.142,98.578,5.198C95.236,4.295,91.916,3.29,88.477,2.722C88.422,2.713,88.367,2.71,88.313,2.701C89.506,2.605,90.7,2.509,91.894,2.414C95.968,2.089,100.224,1.205,104.292,1.166C104.452,1.165,104.462,0.913,104.301,0.916C100.253,1.003,96.042,0.25,91.979,0.05C90.938,-0.001,89.898,-0.052,88.857,-0.104C91.378,-0.485,93.899,-0.866,96.419,-1.247C98.867,-1.617,98.494,-5.884,95.985,-5.641C88.209,-4.888,80.434,-4.135,72.658,-3.382C71.712,-3.291,70.765,-3.201,69.818,-3.111C70.232,-3.224,70.646,-3.344,71.061,-3.456C79.642,-5.781,88.322,-7.621,97.093,-9.068C101.567,-9.805,100.235,-16.037,96.2,-16.315C99.13,-17.215,102.067,-18.092,104.988,-19.013C108.971,-20.268,107.574,-26.567,103.472,-25.399C91.833,-22.087,80.129,-19.053,68.395,-16.096C66.69,-15.666,64.983,-15.25,63.277,-14.829C74.498,-19.16,85.616,-23.801,96.966,-27.784C98.928,-28.473,100.364,-30.259,99.836,-32.441C99.375,-34.352,97.184,-35.957,95.179,-35.313C88.735,-33.243,82.225,-31.148,75.751,-28.919C81.433,-31.727,87.092,-34.591,92.751,-37.471C94.859,-38.545,93.209,-41.688,91.11,-40.814C92.195,-42.201,90.575,-44.545,88.613,-43.679C84.799,-41.994,80.97,-40.264,77.154,-38.485C76.764,-38.798,76.3,-39.001,75.803,-39.107C80.335,-41.97,84.825,-44.914,89.249,-47.985C92.178,-50.017,89.608,-54.984,86.585,-52.944C86.124,-52.633,85.644,-52.348,85.183,-52.039C85.116,-54.134,83.11,-56.106,80.732,-54.751C74.755,-51.343,68.825,-47.857,62.95,-44.279C67.712,-48.451,72.726,-52.272,78.437,-55.232C81.187,-56.657,78.934,-60.839,76.162,-59.466C69.33,-56.079,63.177,-51.462,57.259,-46.635C57.259,-46.635,67.117,-57.23,67.117,-57.23C67.746,-57.905,68.006,-58.664,68.023,-59.403C69.033,-60.123,70.043,-60.846,71.055,-61.561C73.838,-63.53,71.377,-68.295,68.503,-66.313C66.671,-65.049,64.828,-63.797,62.983,-62.548C62.454,-62.802,61.818,-62.832,61.137,-62.413C57.453,-60.147,54.147,-57.437,51.022,-54.513C50.697,-54.296,50.372,-54.078,50.047,-53.86C54.781,-59.883,59.727,-65.764,65.335,-70.971C68.321,-73.744,64.189,-78.025,61.076,-75.548C57.322,-72.56,53.896,-69.28,50.646,-65.83C52.227,-69.564,53.378,-73.569,55.332,-77.076C55.41,-77.216,55.199,-77.352,55.121,-77.211C53.328,-73.984,50.651,-71.17,48.336,-68.236C50.666,-73.642,52.976,-79.052,55.34,-84.423C57.001,-88.197,50.49,-91.261,48.734,-87.492C45.829,-81.256,42.851,-75.03,39.898,-68.79C40.439,-70.599,40.96,-72.415,41.503,-74.224C42.867,-78.769,43.142,-83.676,44.663,-88.133C44.723,-88.31,44.46,-88.386,44.39,-88.22C43.369,-85.793,41.735,-83.63,40.484,-81.32C40.324,-81.023,40.191,-80.71,40.038,-80.409C40.072,-80.572,40.106,-80.734,40.14,-80.897C40.951,-84.781,35.103,-86.72,34.176,-82.773C33.47,-79.768,32.764,-76.763,32.059,-73.759C32.571,-80.116,33.183,-86.456,34.226,-92.722C34.646,-95.241,30.357,-95.978,29.775,-93.488C29.403,-91.897,29.13,-90.288,28.835,-88.682C27.157,-90.339,23.538,-90.259,23.031,-87.466C22.48,-84.443,21.936,-81.417,21.381,-78.393C21.237,-82.538,20.584,-86.947,21.436,-90.932C21.469,-91.087,21.239,-91.165,21.198,-91.007C20.865,-89.721,20.462,-88.477,20.047,-87.242C20.515,-90.605,20.969,-93.972,21.533,-97.305C21.854,-99.2,18.658,-99.735,18.195,-97.88C17.975,-96.997,17.784,-96.114,17.573,-95.232C17.644,-96.217,17.698,-97.204,17.77,-98.189C18.131,-103.113,10.521,-103.363,10.117,-98.464C9.172,-86.977,8.302,-75.483,7.514,-63.984C7.5,-65.351,7.492,-66.715,7.507,-68.07C7.606,-77.032,7.876,-85.991,8.3,-94.943C8.447,-98.042,3.73,-98.192,3.498,-95.116C2.821,-86.178,2.297,-77.226,1.947,-68.269C1.913,-67.383,1.869,-66.488,1.827,-65.592C1.703,-73.787,1.992,-81.981,2.695,-90.148C3.067,-94.477,-3.571,-94.662,-4.02,-90.391C-4.609,-84.798,-4.989,-79.188,-5.196,-73.57C-5.38,-78.963,-5.291,-84.372,-5.165,-89.748C-5.057,-94.32,-12.091,-94.586,-12.271,-90.005C-12.397,-86.788,-12.481,-83.571,-12.527,-80.354C-12.733,-81.646,-12.933,-82.939,-13.144,-84.231C-13.803,-88.262,-14.973,-92.2,-15.744,-96.214C-15.962,-97.345,-17.546,-96.889,-17.44,-95.81C-17.036,-91.689,-17.038,-87.537,-16.517,-83.43C-16.299,-81.714,-16.071,-79.999,-15.847,-78.284C-16.38,-81.001,-16.886,-83.724,-17.326,-86.453C-17.689,-88.706,-21.511,-88.374,-21.372,-86.053C-21.171,-82.729,-20.874,-79.422,-20.519,-76.123C-21.192,-80.358,-21.71,-84.619,-21.99,-88.902C-22.247,-92.837,-28.301,-93.211,-28.237,-89.127C-28.179,-85.439,-27.941,-81.758,-27.611,-78.085C-27.997,-78.971,-28.362,-79.867,-28.799,-80.729C-29.491,-82.089,-30.177,-83.468,-30.977,-84.768C-31.886,-86.243,-33.147,-87.618,-33.812,-89.216C-33.881,-89.383,-34.152,-89.246,-34.064,-89.081C-33.272,-87.593,-33.061,-85.755,-32.634,-84.138C-32.245,-82.668,-31.771,-81.221,-31.361,-79.756C-30.505,-76.7,-29.518,-73.684,-28.703,-70.617C-28.37,-69.364,-28.059,-68.102,-27.733,-66.846C-29.578,-71.468,-31.194,-76.179,-32.531,-80.987C-33.764,-85.424,-40.71,-83.824,-39.527,-79.326C-37.962,-73.374,-36.009,-67.524,-33.721,-61.81C-34.472,-62.998,-35.219,-64.189,-35.996,-65.362C-36.973,-66.837,-38.037,-68.289,-38.872,-69.852C-39.608,-71.232,-40.807,-73.619,-40.507,-75.258C-40.485,-75.377,-40.61,-75.474,-40.712,-75.388C-41.367,-74.831,-41.828,-74.424,-42.145,-73.904C-42.615,-74.558,-43.05,-75.238,-43.55,-75.876C-45.049,-77.789,-47.091,-79.268,-48.495,-81.245C-48.599,-81.39,-48.839,-81.276,-48.748,-81.109C-47.678,-79.151,-47.308,-76.868,-46.416,-74.83C-45.639,-73.053,-44.748,-71.33,-43.833,-69.622C-43.652,-69.284,-43.474,-68.946,-43.294,-68.607C-45.41,-71.476,-47.521,-74.348,-49.658,-77.201C-50.81,-78.739,-53.382,-78.593,-54.682,-77.383C-56.232,-75.941,-55.991,-73.92,-54.863,-72.359C-52.51,-69.101,-50.197,-65.814,-47.861,-62.545C-48.627,-63.239,-49.417,-63.9,-50.195,-64.579C-53.975,-68.209,-57.668,-71.938,-61.182,-75.871C-64.092,-79.127,-69.012,-74.529,-66.137,-71.259C-64.456,-69.347,-62.736,-67.453,-60.994,-65.569C-64.587,-66.722,-67.556,-61.19,-63.986,-58.554C-62.279,-57.294,-60.572,-56.032,-58.866,-54.773C-65.786,-56.9,-72.865,-58.761,-78.93,-62.417C-79.776,-62.927,-80.864,-61.752,-80.077,-61.036C-77.496,-58.691,-74.671,-56.798,-71.688,-55.185C-72.296,-53.86,-72.05,-52.448,-71.203,-51.352C-74.814,-53.081,-78.416,-54.83,-81.997,-56.617C-84.016,-57.624,-86.472,-57.366,-87.767,-55.324C-88.922,-53.503,-88.457,-50.651,-86.474,-49.554C-81.13,-46.601,-75.723,-43.785,-70.258,-41.076C-74.205,-42.172,-78.217,-43.002,-82.364,-43.287C-82.437,-43.292,-82.499,-43.278,-82.571,-43.281C-83.256,-43.747,-84.1,-44.058,-85.141,-44.096C-90.955,-44.305,-91.757,-36.116,-87.023,-34.48C-88.772,-33.704,-88.991,-31.095,-87.363,-30.31C-91.034,-30.855,-94.707,-31.399,-98.368,-31.988C-102.25,-32.614,-103.421,-25.946,-99.55,-25.121C-92.493,-23.616,-85.419,-22.304,-78.305,-21.185C-82.05,-21.143,-85.795,-21.06,-89.545,-20.893C-92.294,-20.771,-92.529,-16.606,-89.701,-16.559C-87.024,-16.514,-84.346,-16.466,-81.668,-16.419C-82.622,-16.294,-83.58,-16.191,-84.529,-16.047C-86.678,-15.724,-85.872,-12.501,-83.753,-12.778C-75.627,-13.839,-67.528,-13.456,-59.404,-12.56C-74.553,-12.668,-89.709,-12.399,-104.849,-12.027C-108.687,-11.933,-108.971,-6.121,-105.066,-6.013C-95.603,-5.752,-86.137,-5.49,-76.669,-5.292C-85.261,-3.07,-93.745,-0.373,-102.055,2.367C-106.25,3.75,-104.766,10.458,-100.449,9.135C-92.922,6.827,-85.32,4.782,-77.673,2.915C-77.401,3.117,-77.089,3.264,-76.751,3.367C-76.943,3.411,-77.137,3.454,-77.329,3.499C-86.079,5.558,-94.566,8.168,-102.989,11.309C-106.272,12.533,-105.316,17.674,-101.689,16.784C-94.231,14.955,-86.731,13.234,-79.226,11.587C-78.837,11.907,-78.384,12.156,-77.863,12.29C-85.329,14.686,-92.699,17.399,-99.96,20.362C-101.885,21.147,-100.655,24.402,-98.66,23.784C-96.925,23.246,-95.184,22.73,-93.446,22.2C-94.549,25.069,-93.195,28.995,-89.2,29.138C-87.795,29.189,-86.7,28.73,-85.886,28.009C-85.493,27.961,-85.094,27.877,-84.683,27.703C-75.388,23.781,-65.98,20.148,-56.468,16.794C-57.801,17.495,-59.134,18.194,-60.46,18.909C-66.36,21.134,-72.112,23.832,-77.756,26.531C-82.535,28.815,-87.155,31.352,-91.719,34.037C-96.658,36.942,-100.73,41.018,-105.548,44.055C-105.682,44.14,-105.572,44.355,-105.43,44.275C-102.841,42.823,-100.012,41.763,-97.172,40.739C-98.003,42.922,-95.524,46.017,-92.599,44.826C-88.986,43.355,-85.342,41.98,-81.684,40.643C-81.633,40.768,-81.596,40.894,-81.529,41.019C-80.65,42.653,-78.273,43.556,-76.608,42.5C-73.387,40.458,-70.078,38.567,-66.701,36.807C-66.577,37.219,-66.365,37.604,-66.042,37.924C-72.627,40.883,-79.157,43.941,-85.671,47.094C-87.044,47.758,-86.186,50.193,-84.701,49.648C-80.539,48.121,-76.391,46.587,-72.257,45.018C-74.427,46.259,-76.614,47.47,-78.78,48.721C-80.504,49.717,-80.861,51.404,-80.373,52.822C-82.982,54.002,-85.589,55.183,-88.197,56.362C-91.344,57.785,-88.798,62.491,-85.66,61.085C-76.536,56.999,-67.412,52.912,-58.288,48.825C-58.441,48.984,-58.601,49.135,-58.753,49.294C-58.898,49.445,-59.008,49.604,-59.12,49.762C-66.153,53.771,-73.182,57.785,-80.212,61.797C-84.133,64.034,-80.874,70.171,-76.883,67.992C-68.413,63.368,-59.936,58.756,-51.473,54.12C-49.64,53.116,-47.795,52.121,-45.952,51.119C-48.537,52.929,-51.14,54.716,-53.72,56.533C-60.061,60.997,-66.52,65.291,-73.08,69.426C-75.291,70.819,-73.436,74.392,-71.139,73.04C-67.652,70.988,-64.192,68.89,-60.76,66.748C-63.982,70.065,-67.239,73.353,-70.491,76.639C-72.881,79.055,-69.537,82.576,-66.924,80.472C-61.329,75.965,-56.153,71.08,-51.459,65.722C-53.79,70.327,-55.997,74.986,-58.097,79.649C-59.112,81.901,-55.257,83.711,-54.144,81.487C-51.214,75.628,-48.041,69.916,-44.769,64.266C-46.317,67.666,-47.874,71.062,-49.428,74.461C-50.911,77.704,-45.408,80.263,-43.735,77.107C-43.22,76.133,-42.737,75.147,-42.229,74.171C-43.357,77.552,-44.453,80.942,-45.476,84.352C-46.286,87.052,-42.158,88.351,-41.301,85.666C-38.287,76.223,-34.823,66.967,-30.781,57.914C-30.074,56.331,-29.331,54.767,-28.589,53.202C-28.668,53.822,-28.74,54.442,-28.817,55.062C-29.811,57.611,-30.805,60.161,-31.716,62.741C-34.463,70.519,-36.542,78.528,-38.378,86.566C-39.163,90.003,-34.092,91.702,-33.085,88.232C-32.535,86.338,-31.9,84.473,-31.306,82.594C-31.377,83.898,-31.456,85.203,-31.478,86.504C-31.514,88.568,-31.134,90.665,-31.358,92.716C-31.378,92.903,-31.102,92.902,-31.072,92.727C-30.707,90.58,-29.7,88.571,-29.228,86.446C-28.815,84.586,-28.384,82.721,-28.043,80.847C-27.404,77.337,-26.923,73.791,-26.401,70.263C-26.222,69.052,-26.088,67.842,-25.942,66.632C-25.769,66.144,-25.605,65.652,-25.432,65.165C-25.113,64.267,-24.745,63.388,-24.417,62.494C-25.382,67.555,-26.261,72.636,-26.972,77.735C-27.111,78.735,-26.531,79.671,-25.713,80.242C-26.352,82.726,-26.983,85.213,-27.638,87.69C-28.464,90.818,-23.867,92.29,-22.829,89.203C-21.066,83.956,-19.379,78.647,-17.797,73.3C-18.832,78.428,-19.87,83.557,-20.89,88.689C-21.432,91.417,-20.379,94.26,-17.519,95.158C-15.117,95.912,-11.555,94.542,-11.05,91.785C-9.604,83.906,-8.158,76.028,-6.765,68.139C-6.557,66.96,-6.348,65.781,-6.14,64.602C-6.46,67.087,-6.766,69.574,-7.096,72.055C-8.264,80.832,-8.832,89.784,-11.832,98.185C-13.147,101.867,-7.686,103.362,-6.166,99.968C-2.403,91.562,-1.042,82.411,0.229,73.363C0.727,69.821,1.244,66.278,1.734,62.733C1.897,62.741,2.057,62.757,2.22,62.763C2.166,63.31,2.117,63.861,2.058,64.405C1.106,73.2,0.466,82.032,-0.406,90.837C-0.833,95.138,5.467,95.107,6.153,91.073C6.787,87.337,7.436,83.597,8.059,79.852C8.031,82.14,8.014,84.425,8.104,86.714C8.221,89.666,8.814,92.505,9.07,95.436C9.166,96.527,10.601,96.588,10.769,95.497C11.215,92.586,11.984,89.805,12.309,86.866C12.47,85.416,12.585,83.963,12.682,82.509C13.066,85.501,13.494,88.487,14.011,91.458C14.311,93.192,15.528,93.985,16.852,94.055C16.858,94.444,16.877,94.832,16.882,95.221C16.924,98.436,21.832,98.655,21.905,95.401C22.008,90.696,21.984,86,21.812,81.311C22.174,85.727,22.544,90.144,22.968,94.56C23.349,98.523,29.413,99.031,29.371,94.789C29.336,91.313,29.301,87.845,29.243,84.379C30.455,88.333,31.829,92.241,33.407,96.112C34.686,99.248,39.996,97.243,38.986,93.993C37.71,89.889,36.579,85.716,35.581,81.51C36.702,83.861,37.839,86.204,38.909,88.581C40.001,91.004,44.259,89.458,43.328,86.903C43.004,86.013,42.688,85.119,42.369,84.227C42.491,84.358,42.594,84.501,42.72,84.63C45.039,87.003,48.807,83.511,46.496,81.117C43.479,77.992,41.681,74.143,40.045,70.2C43.827,76.949,47.863,83.488,52.219,89.911C54.426,93.167,59.676,90.579,57.726,86.952C55.852,83.466,54.033,79.947,52.181,76.445C53.852,77.882,55.528,79.31,57.212,80.721C59.692,82.8,63.473,79.502,60.989,77.206C57.672,74.139,54.383,71.037,51.103,67.927C51.312,68.098,51.52,68.27,51.728,68.442C53.672,70.042,56.018,71.525,57.685,73.415C57.792,73.537,57.985,73.355,57.868,73.245C57.433,72.836,57.027,72.383,56.637,71.909C57.136,72.379,57.633,72.852,58.135,73.318C59.948,75.003,62.18,76.266,63.891,78.055C63.986,78.155,64.169,78.036,64.092,77.911C62.886,75.949,62.284,73.636,61.267,71.572C60.31,69.631,59.281,67.691,58.206,65.814C57.209,64.069,56.173,62.349,55.125,60.638C59.32,64.788,63.542,68.908,67.681,73.114C70.159,75.633,73.966,72.067,71.685,69.389C70.702,68.234,69.747,67.057,68.775,65.893C69.181,66.085,69.586,66.277,69.995,66.461C70.304,66.741,70.624,67.008,70.932,67.29C71.553,67.858,72.285,67.908,72.916,67.691C73.388,67.859,73.795,67.823,74.166,67.713C75.127,68.426,76.1,69.117,77.055,69.842C80.022,72.092,84.161,67.195,81.26,64.779C78.692,62.641,76.034,60.624,73.319,58.691C72.781,57.574,72.248,56.455,71.596,55.411C70.761,54.075,69.866,52.811,68.943,51.564C75.151,54.449,81.364,57.321,87.543,60.27C88.508,60.731,89.412,59.315,88.44,58.856C86.429,57.906,84.436,56.92,82.429,55.961C83.159,55.11,83.276,53.718,82.072,52.821C78.815,50.394,75.58,47.909,72.314,45.464C77.087,47.478,81.846,49.525,86.586,51.617C90.47,53.331,92.332,47.083,88.557,45.356C80.422,41.634,72.23,38.037,63.991,34.549C64.722,34.779,65.44,35.032,66.177,35.248C69.966,36.362,73.756,37.432,77.59,38.383C81.645,39.388,86.075,39.988,89.971,41.477C90.122,41.534,90.203,41.276,90.047,41.237C87.147,40.516,84.275,39.225,81.464,37.961C84.744,38.928,87.994,39.996,91.174,41.287C95.234,42.935,97.243,36.436,93.216,34.801C90.658,33.763,88.055,32.875,85.432,32.051C85.633,31.713,85.774,31.338,85.834,30.947C88.694,31.719,91.543,32.531,94.368,33.427C98.498,34.735,100.495,28.36,96.386,27.016C93.957,26.22,91.499,25.523,89.043,24.821C90.454,24.938,91.865,25.052,93.276,25.123C97.022,25.309,100.764,24.885,104.495,25.085C104.651,25.094,104.704,24.836,104.543,24.805C100.92,24.118,97.428,22.794,93.81,22.024C93.654,21.991,93.498,21.966,93.342,21.934C95.081,21.926,96.811,21.981,98.469,22.249C98.608,22.272,98.645,22.04,98.51,22.005C94.776,21.03,91.172,19.135,87.54,17.806C86.976,17.6,86.418,17.427,85.857,17.242C91.326,17.806,96.791,18.398,102.25,19.117C106.411,19.665,106.548,13.248,102.484,12.637ZM-85.643,-30.049C-83.625,-29.981,-81.66,-29.671,-79.726,-29.211C-81.7,-29.486,-83.672,-29.76,-85.643,-30.049Z" /></g></g></g></g></g></svg>