<svg xmlns="http://www.w3.org/2000/svg" width="430" height="430" fill="none" viewBox="0 0 430 430"><path fill="#4bb3fd" fill-rule="evenodd" d="M348.206 215 250.342 90.446l39.316-30.891L411.793 215 289.658 370.446l-39.316-30.891z" clip-rule="evenodd"/><path fill="#4bb3fd" d="M250.342 90.446 348.206 215l-97.864 124.555 20.555 16.15L381.451 215 270.897 74.295z" opacity=".5" style="mix-blend-mode:multiply"/><path fill="#4bb3fd" fill-rule="evenodd" d="m81.794 215 97.864-124.554-39.316-30.891L18.206 215l122.136 155.446 39.316-30.891z" clip-rule="evenodd"/><path fill="#4bb3fd" d="M159.102 355.705 48.548 215 159.102 74.295l-18.76-14.74L18.206 215l122.136 155.446z" opacity=".5" style="mix-blend-mode:multiply"/><circle cx="150" cy="215" r="22.5" fill="#4bb3fd"/><circle cx="215" cy="215" r="22.5" fill="#4bb3fd"/><circle cx="280" cy="215" r="22.5" fill="#4bb3fd"/><path fill="#4bb3fd" d="M170.107 225.107A22.4 22.4 0 0 1 160 227.5c-12.426 0-22.5-10.074-22.5-22.5a22.4 22.4 0 0 1 2.393-10.107C132.542 198.595 127.5 206.208 127.5 215c0 12.426 10.074 22.5 22.5 22.5 8.792 0 16.405-5.042 20.107-12.393m65 0A22.4 22.4 0 0 1 225 227.5c-12.426 0-22.5-10.074-22.5-22.5a22.4 22.4 0 0 1 2.393-10.107C197.542 198.595 192.5 206.208 192.5 215c0 12.426 10.074 22.5 22.5 22.5 8.792 0 16.405-5.042 20.107-12.393m65 0A22.4 22.4 0 0 1 290 227.5c-12.426 0-22.5-10.074-22.5-22.5a22.4 22.4 0 0 1 2.393-10.107C262.542 198.595 257.5 206.208 257.5 215c0 12.426 10.074 22.5 22.5 22.5 8.792 0 16.405-5.042 20.107-12.393" opacity=".5" style="mix-blend-mode:multiply"/><path stroke="#121331" stroke-linejoin="round" stroke-width="3.5" d="M348.206 215 250.342 90.446l39.316-30.891L411.793 215 289.658 370.446l-39.316-30.891zm-266.412 0 97.864-124.554-39.316-30.891L18.206 215l122.136 155.446 39.316-30.891z" clip-rule="evenodd"/><circle cx="150" cy="215" r="22.5" stroke="#121331" stroke-linejoin="round" stroke-width="3.5"/><circle cx="215" cy="215" r="22.5" stroke="#121331" stroke-linejoin="round" stroke-width="3.5"/><circle cx="280" cy="215" r="22.5" stroke="#121331" stroke-linejoin="round" stroke-width="3.5"/></svg>