<svg fill="none" height="100%" width="100%" viewBox="0 0 512 512" xmlns:xlink="http://www.w3.org/1999/xlink" xmlns="http://www.w3.org/2000/svg"><g id="i0"><g transform="translate(257,58)"><g transform="scale(0,0)"><animateTransform repeatCount="indefinite" type="scale" attributeName="transform" dur="3s" begin="0s" calcMode="spline" values="0 0; 0 0; 1.1 1.1; 0.75 0.75; 1 1; 1 1" keyTimes="0; 0.267422; 0.400756; 0.500756; 0.60076; 1" keySplines="0 0 1 1; 0.333 0 0.667 1; 0.333 0 0.667 1; 0.333 0 0.667 1; 0 0 1 1" fill="freeze" /><g transform="translate(-26,199)"><g id="i1"><path fill="#86abb0" d="M-55.468,-156.749C-55.468,-156.749,-86.328,-156.749,-86.328,-156.749C-86.328,-156.749,-94.207,-165.942,-120.471,-165.285C-146.735,-164.628,-151.988,-156.749,-151.988,-156.749C-151.988,-156.749,-177.924,-139.35,-183.833,-117.682C-183.833,-117.682,-215.678,-22.146,-216.335,52.707C-216.992,127.56,-188.102,138.065,-173,140.035C-157.898,142.005,-130.977,139.379,-104.713,73.062C-104.713,73.062,-93.551,34.322,-93.551,34.322C-93.551,34.322,-91.581,11.341,-67.943,25.786C-44.305,40.231,-23.294,17.907,-23.294,17.907C-23.294,17.907,65.347,17.907,65.347,17.907C65.347,17.907,94.894,36.292,121.815,21.847C121.815,21.847,132.321,8.058,142.17,54.677C142.17,54.677,172.374,150.541,218.993,140.692C265.612,130.843,260.359,50.737,260.359,50.737C260.359,50.737,254.121,-71.719,228.513,-115.055C228.513,-115.055,203.891,-160.032,187.476,-162.002C187.476,-162.002,152.019,-168.568,138.23,-162.659C138.23,-162.659,130.351,-156.093,130.351,-156.093C130.351,-156.093,-55.468,-156.749,-55.468,-156.749Z" /></g></g></g></g></g><g opacity="0" id="i2"><g transform="translate(257,58)"><g transform="scale(0,0)"><animateTransform repeatCount="indefinite" type="scale" attributeName="transform" dur="3s" begin="0s" calcMode="spline" values="0 0; 0 0; 1.1 1.1; 0.75 0.75; 1 1; 1 1" keyTimes="0; 0.0158; 0.149133; 0.249133; 0.349132; 1" keySplines="0 0 1 1; 0.333 0 0.667 1; 0.333 0 0.667 1; 0.333 0 0.667 1; 0 0 1 1" fill="freeze" /><g transform="translate(-22,199)"><g id="i1"><path fill="#00deff" d="M-55.468,-156.749C-55.468,-156.749,-86.328,-156.749,-86.328,-156.749C-86.328,-156.749,-94.207,-165.942,-120.471,-165.285C-146.735,-164.628,-151.988,-156.749,-151.988,-156.749C-151.988,-156.749,-177.924,-139.35,-183.833,-117.682C-183.833,-117.682,-215.678,-22.146,-216.335,52.707C-216.992,127.56,-188.102,138.065,-173,140.035C-157.898,142.005,-130.977,139.379,-104.713,73.062C-104.713,73.062,-93.551,34.322,-93.551,34.322C-93.551,34.322,-91.581,11.341,-67.943,25.786C-44.305,40.231,-23.294,17.907,-23.294,17.907C-23.294,17.907,65.347,17.907,65.347,17.907C65.347,17.907,94.894,36.292,121.815,21.847C121.815,21.847,132.321,8.058,142.17,54.677C142.17,54.677,172.374,150.541,218.993,140.692C265.612,130.843,260.359,50.737,260.359,50.737C260.359,50.737,254.121,-71.719,228.513,-115.055C228.513,-115.055,203.891,-160.032,187.476,-162.002C187.476,-162.002,152.019,-168.568,138.23,-162.659C138.23,-162.659,130.351,-156.093,130.351,-156.093C130.351,-156.093,-55.468,-156.749,-55.468,-156.749Z" /></g></g></g></g></g><g id="i3"><g transform="translate(257,58)"><g transform="scale(0,0)"><animateTransform repeatCount="indefinite" type="scale" attributeName="transform" dur="3s" begin="0s" calcMode="spline" values="0 0; 0 0; 1.1 1.1; 0.75 0.75; 1 1; 1 1" keyTimes="0; 0.117078; 0.250411; 0.350411; 0.450412; 1" keySplines="0 0 1 1; 0.333 0 0.667 1; 0.333 0 0.667 1; 0.333 0 0.667 1; 0 0 1 1" fill="freeze" /><g transform="translate(-22,199)"><g id="i1"><path fill="#00deff" d="M-55.468,-156.749C-55.468,-156.749,-86.328,-156.749,-86.328,-156.749C-86.328,-156.749,-94.207,-165.942,-120.471,-165.285C-146.735,-164.628,-151.988,-156.749,-151.988,-156.749C-151.988,-156.749,-177.924,-139.35,-183.833,-117.682C-183.833,-117.682,-215.678,-22.146,-216.335,52.707C-216.992,127.56,-188.102,138.065,-173,140.035C-157.898,142.005,-130.977,139.379,-104.713,73.062C-104.713,73.062,-93.551,34.322,-93.551,34.322C-93.551,34.322,-91.581,11.341,-67.943,25.786C-44.305,40.231,-23.294,17.907,-23.294,17.907C-23.294,17.907,65.347,17.907,65.347,17.907C65.347,17.907,94.894,36.292,121.815,21.847C121.815,21.847,132.321,8.058,142.17,54.677C142.17,54.677,172.374,150.541,218.993,140.692C265.612,130.843,260.359,50.737,260.359,50.737C260.359,50.737,254.121,-71.719,228.513,-115.055C228.513,-115.055,203.891,-160.032,187.476,-162.002C187.476,-162.002,152.019,-168.568,138.23,-162.659C138.23,-162.659,130.351,-156.093,130.351,-156.093C130.351,-156.093,-55.468,-156.749,-55.468,-156.749Z" /></g></g></g></g></g><g id="i4"><g transform="translate(257,58)"><g transform="scale(0,0)"><animateTransform repeatCount="indefinite" type="scale" attributeName="transform" dur="3s" begin="0s" calcMode="spline" values="0 0; 0 0; 1.1 1.1; 0.75 0.75; 1 1; 1 1" keyTimes="0; 0.040578; 0.173911; 0.273911; 0.373915; 1" keySplines="0 0 1 1; 0.333 0 0.667 1; 0.333 0 0.667 1; 0.333 0 0.667 1; 0 0 1 1" fill="freeze" /><g transform="translate(-20,199)"><g id="i1"><path fill="#71a0a7" d="M-55.468,-156.749C-55.468,-156.749,-86.328,-156.749,-86.328,-156.749C-86.328,-156.749,-94.207,-165.942,-120.471,-165.285C-146.735,-164.628,-151.988,-156.749,-151.988,-156.749C-151.988,-156.749,-177.924,-139.35,-183.833,-117.682C-183.833,-117.682,-215.678,-22.146,-216.335,52.707C-216.992,127.56,-188.102,138.065,-173,140.035C-157.898,142.005,-130.977,139.379,-104.713,73.062C-104.713,73.062,-93.551,34.322,-93.551,34.322C-93.551,34.322,-91.581,11.341,-67.943,25.786C-44.305,40.231,-23.294,17.907,-23.294,17.907C-23.294,17.907,65.347,17.907,65.347,17.907C65.347,17.907,94.894,36.292,121.815,21.847C121.815,21.847,132.321,8.058,142.17,54.677C142.17,54.677,172.374,150.541,218.993,140.692C265.612,130.843,260.359,50.737,260.359,50.737C260.359,50.737,254.121,-71.719,228.513,-115.055C228.513,-115.055,203.891,-160.032,187.476,-162.002C187.476,-162.002,152.019,-168.568,138.23,-162.659C138.23,-162.659,130.351,-156.093,130.351,-156.093C130.351,-156.093,-55.468,-156.749,-55.468,-156.749Z" /></g></g></g></g></g><g opacity="0.97" id="i5"><g transform="translate(257,58)"><g transform="scale(0,0)"><animateTransform repeatCount="indefinite" type="scale" attributeName="transform" dur="3s" begin="0s" calcMode="spline" values="0 0; 0 0; 1.1 1.1; 0.75 0.75; 1 1; 1 1" keyTimes="0; 0.262389; 0.395722; 0.495723; 0.595725; 1" keySplines="0 0 1 1; 0.333 0 0.667 1; 0.333 0 0.667 1; 0.333 0 0.667 1; 0 0 1 1" fill="freeze" /><g transform="translate(-22,199)"><g id="i1"><path fill="#77e8ec" d="M-55.468,-156.749C-55.468,-156.749,-86.328,-156.749,-86.328,-156.749C-86.328,-156.749,-94.207,-165.942,-120.471,-165.285C-146.735,-164.628,-151.988,-156.749,-151.988,-156.749C-151.988,-156.749,-177.924,-139.35,-183.833,-117.682C-183.833,-117.682,-215.678,-22.146,-216.335,52.707C-216.992,127.56,-188.102,138.065,-173,140.035C-157.898,142.005,-130.977,139.379,-104.713,73.062C-104.713,73.062,-93.551,34.322,-93.551,34.322C-93.551,34.322,-91.581,11.341,-67.943,25.786C-44.305,40.231,-23.294,17.907,-23.294,17.907C-23.294,17.907,65.347,17.907,65.347,17.907C65.347,17.907,94.894,36.292,121.815,21.847C121.815,21.847,132.321,8.058,142.17,54.677C142.17,54.677,172.374,150.541,218.993,140.692C265.612,130.843,260.359,50.737,260.359,50.737C260.359,50.737,254.121,-71.719,228.513,-115.055C228.513,-115.055,203.891,-160.032,187.476,-162.002C187.476,-162.002,152.019,-168.568,138.23,-162.659C138.23,-162.659,130.351,-156.093,130.351,-156.093C130.351,-156.093,-55.468,-156.749,-55.468,-156.749Z" /></g></g></g></g></g><g opacity="0.97" id="i6"><g transform="translate(257,58)"><g transform="scale(0,0)"><animateTransform repeatCount="indefinite" type="scale" attributeName="transform" dur="3s" begin="0s" calcMode="spline" values="0 0; 0 0; 1.1 1.1; 0.75 0.75; 1 1; 1 1" keyTimes="0; 0.016022; 0.149356; 0.249356; 0.34936; 1" keySplines="0 0 1 1; 0.333 0 0.667 1; 0.333 0 0.667 1; 0.333 0 0.667 1; 0 0 1 1" fill="freeze" /><g transform="translate(-22,199)"><g id="i1"><path fill="#ffbe0b" d="M-55.468,-156.749C-55.468,-156.749,-86.328,-156.749,-86.328,-156.749C-86.328,-156.749,-94.207,-165.942,-120.471,-165.285C-146.735,-164.628,-151.988,-156.749,-151.988,-156.749C-151.988,-156.749,-177.924,-139.35,-183.833,-117.682C-183.833,-117.682,-215.678,-22.146,-216.335,52.707C-216.992,127.56,-188.102,138.065,-173,140.035C-157.898,142.005,-130.977,139.379,-104.713,73.062C-104.713,73.062,-93.551,34.322,-93.551,34.322C-93.551,34.322,-91.581,11.341,-67.943,25.786C-44.305,40.231,-23.294,17.907,-23.294,17.907C-23.294,17.907,65.347,17.907,65.347,17.907C65.347,17.907,94.894,36.292,121.815,21.847C121.815,21.847,132.321,8.058,142.17,54.677C142.17,54.677,172.374,150.541,218.993,140.692C265.612,130.843,260.359,50.737,260.359,50.737C260.359,50.737,254.121,-71.719,228.513,-115.055C228.513,-115.055,203.891,-160.032,187.476,-162.002C187.476,-162.002,152.019,-168.568,138.23,-162.659C138.23,-162.659,130.351,-156.093,130.351,-156.093C130.351,-156.093,-55.468,-156.749,-55.468,-156.749Z" /></g></g></g></g></g><g id="i7"><g transform="translate(257,58)"><g transform="scale(0,0)"><animateTransform repeatCount="indefinite" type="scale" attributeName="transform" dur="3s" begin="0s" calcMode="spline" values="0 0; 0 0; 1.1 1.1; 0.75 0.75; 1 1; 1 1" keyTimes="0; 0.124411; 0.257744; 0.357744; 0.457747; 1" keySplines="0 0 1 1; 0.333 0 0.667 1; 0.333 0 0.667 1; 0.333 0 0.667 1; 0 0 1 1" fill="freeze" /><g transform="translate(-18,199)"><g id="i1"><path fill="#3a86ff" d="M-150.018,-156.093C-150.018,-156.093,-150.018,-163.316,-150.018,-163.316C-150.018,-163.316,-118.501,-181.044,-92.894,-163.316C-92.894,-163.316,-92.894,-156.75,-92.894,-156.75C-92.894,-156.75,-150.018,-156.093,-150.018,-156.093Z" /></g></g></g></g></g><g id="i8"><g transform="translate(257,58)"><g transform="scale(0,0)"><animateTransform repeatCount="indefinite" type="scale" attributeName="transform" dur="3s" begin="0s" calcMode="spline" values="0 0; 0 0; 1.1 1.1; 0.75 0.75; 1 1; 1 1" keyTimes="0; 0.269978; 0.403311; 0.503311; 0.603309; 1" keySplines="0 0 1 1; 0.333 0 0.667 1; 0.333 0 0.667 1; 0.333 0 0.667 1; 0 0 1 1" fill="freeze" /><g transform="translate(-29.5,199)"><g id="i1"><path fill="#3a86ff" d="M136.917,-156.093C136.917,-156.093,136.917,-163.316,136.917,-163.316C136.917,-163.316,168.435,-181.044,194.042,-163.316C194.042,-163.316,194.042,-156.75,194.042,-156.75C194.042,-156.75,136.917,-156.093,136.917,-156.093Z" /></g></g></g></g></g><g id="i9"><g transform="translate(257,58)"><g transform="scale(0,0)"><animateTransform repeatCount="indefinite" type="scale" attributeName="transform" dur="3s" begin="0s" calcMode="spline" values="0 0; 0 0; 1.1 1.1; 0.75 0.75; 1 1; 1 1" keyTimes="0; 0.066667; 0.2; 0.3; 0.4; 1" keySplines="0 0 1 1; 0.333 0 0.667 1; 0.333 0 0.667 1; 0.333 0 0.667 1; 0 0 1 1" fill="freeze" /><g transform="translate(-22,199)"><g id="i1" transform="matrix(1,0,0,1,-126.537,-91.902)"><ellipse ry="57.124" rx="57.124" cy="0" cx="0" fill="#3a86ff" /></g></g></g></g></g><g id="i10"><g transform="translate(257,59)"><g transform="scale(0,0)"><animateTransform repeatCount="indefinite" type="scale" attributeName="transform" dur="3s" begin="0s" calcMode="spline" values="0 0; 0 0; 1.1 1.1; 0.75 0.75; 1 1; 1 1" keyTimes="0; 0.129989; 0.263322; 0.363322; 0.463325; 1" keySplines="0 0 1 1; 0.333 0 0.667 1; 0.333 0 0.667 1; 0.333 0 0.667 1; 0 0 1 1" fill="freeze" /><g transform="translate(-22,198)"><g id="i1" transform="matrix(1,0,0,1,171.561,-91.902)"><ellipse ry="57.124" rx="57.124" cy="0" cx="0" fill="#3a86ff" /></g></g></g></g></g><g id="i11"><g transform="translate(107.973,159.477)"><g transform="scale(0,0)"><animateTransform repeatCount="indefinite" type="scale" attributeName="transform" dur="3s" begin="0s" calcMode="spline" values="0 0; 0 0; 1.1 1.1; 0.75 0.75; 1 1; 1 1" keyTimes="0; 0.454644; 0.587978; 0.687978; 0.787977; 1" keySplines="0 0 1 1; 0.333 0 0.667 1; 0.333 0 0.667 1; 0.333 0 0.667 1; 0 0 1 1" fill="freeze" /><g transform="translate(127.027,97.523)"><g id="i1"><path fill="#e6e6e6" d="M-117.083,-105.14C-117.083,-105.14,-124.7,-98.404,-124.7,-98.404C-126.034,-97.229,-128.034,-97.229,-129.368,-98.404C-129.368,-98.404,-136.998,-105.14,-136.998,-105.14C-137.753,-105.805,-138.188,-106.761,-138.193,-107.767C-138.193,-107.767,-138.193,-126.303,-138.193,-126.303C-138.189,-128.251,-136.608,-129.829,-134.66,-129.829C-134.66,-129.829,-119.394,-129.829,-119.394,-129.829C-117.447,-129.833,-115.866,-128.256,-115.862,-126.309C-115.862,-126.309,-115.862,-107.78,-115.862,-107.78C-115.87,-106.765,-116.315,-105.803,-117.083,-105.14Z" /></g></g></g></g></g><g id="i12"><g transform="translate(107.973,169.718)"><g transform="scale(0,0)"><animateTransform repeatCount="indefinite" type="scale" attributeName="transform" dur="3s" begin="0s" calcMode="spline" values="0 0; 0 0; 1.1 1.1; 0.75 0.75; 1 1; 1 1" keyTimes="0; 0.355556; 0.488889; 0.588889; 0.688889; 1" keySplines="0 0 1 1; 0.333 0 0.667 1; 0.333 0 0.667 1; 0.333 0 0.667 1; 0 0 1 1" fill="freeze" /><g transform="translate(127.027,87.282)"><g id="i1"><path fill="#e6e6e6" d="M-117.083,-79.671C-117.083,-79.671,-124.7,-86.401,-124.7,-86.401C-126.034,-87.576,-128.034,-87.576,-129.368,-86.401C-129.368,-86.401,-136.998,-79.664,-136.998,-79.664C-137.753,-78.999,-138.188,-78.044,-138.193,-77.038C-138.193,-77.038,-138.193,-58.522,-138.193,-58.522C-138.197,-56.575,-136.621,-54.993,-134.674,-54.989C-134.674,-54.989,-119.394,-54.989,-119.394,-54.989C-117.447,-54.985,-115.866,-56.561,-115.862,-58.508C-115.862,-58.508,-115.862,-77.031,-115.862,-77.031C-115.87,-78.046,-116.315,-79.008,-117.083,-79.671Z" /></g></g></g></g></g><g id="i13"><g transform="translate(102.849,164.608)"><g transform="scale(0,0)"><animateTransform repeatCount="indefinite" type="scale" attributeName="transform" dur="3s" begin="0s" calcMode="spline" values="0 0; 0 0; 1.1 1.1; 0.75 0.75; 1 1; 1 1" keyTimes="0; 0.371667; 0.505; 0.605; 0.705002; 1" keySplines="0 0 1 1; 0.333 0 0.667 1; 0.333 0 0.667 1; 0.333 0 0.667 1; 0 0 1 1" fill="freeze" /><g transform="translate(132.151,92.392)"><g id="i1"><path fill="#e6e6e6" d="M-139.769,-82.435C-139.769,-82.435,-133.032,-90.065,-133.032,-90.065C-131.857,-91.399,-131.857,-93.399,-133.032,-94.733C-133.032,-94.733,-139.769,-102.363,-139.769,-102.363C-140.434,-103.117,-141.389,-103.552,-142.395,-103.558C-142.395,-103.558,-160.911,-103.558,-160.911,-103.558C-162.859,-103.554,-164.437,-101.973,-164.437,-100.025C-164.437,-100.025,-164.437,-84.759,-164.437,-84.759C-164.441,-82.812,-162.865,-81.231,-160.918,-81.227C-160.918,-81.227,-142.389,-81.227,-142.389,-81.227C-141.383,-81.238,-140.43,-81.677,-139.769,-82.435Z" /></g></g></g></g></g><g id="i14"><g transform="translate(113.094,164.601)"><g transform="scale(0,0)"><animateTransform repeatCount="indefinite" type="scale" attributeName="transform" dur="3s" begin="0s" calcMode="spline" values="0 0; 0 0; 1.1 1.1; 0.75 0.75; 1 1; 1 1" keyTimes="0; 0.403367; 0.5367; 0.6367; 0.736697; 1" keySplines="0 0 1 1; 0.333 0 0.667 1; 0.333 0 0.667 1; 0.333 0 0.667 1; 0 0 1 1" fill="freeze" /><g transform="translate(121.906,92.399)"><g id="i1"><path fill="#e6e6e6" d="M-114.299,-82.435C-114.299,-82.435,-121.023,-90.071,-121.023,-90.071C-122.201,-91.404,-122.201,-93.407,-121.023,-94.74C-121.023,-94.74,-114.286,-102.37,-114.286,-102.37C-113.621,-103.125,-112.666,-103.56,-111.66,-103.565C-111.66,-103.565,-93.143,-103.565,-93.143,-103.565C-91.196,-103.569,-89.615,-101.992,-89.611,-100.045C-89.611,-100.045,-89.611,-84.766,-89.611,-84.766C-89.607,-82.819,-91.183,-81.237,-93.13,-81.233C-93.13,-81.233,-111.653,-81.233,-111.653,-81.233C-112.667,-81.235,-113.631,-81.673,-114.299,-82.435Z" /></g></g></g></g></g><g id="i15"><g transform="translate(257,58)"><g transform="scale(0,0)"><animateTransform repeatCount="indefinite" type="scale" attributeName="transform" dur="3s" begin="0s" calcMode="spline" values="0 0; 0 0; 1.1 1.1; 0.75 0.75; 1 1; 1 1" keyTimes="0; 0.232911; 0.366244; 0.444444; 0.511111; 1" keySplines="0 0 1 1; 0.333 0 0.667 1; 0.333 0 0.667 1; 0.333 0 0.667 1; 0 0 1 1" fill="freeze" /><g transform="translate(-22,199)"><g id="i1" transform="matrix(1,0,0,1,-49.058,-29.525)"><ellipse ry="41.366" rx="41.366" cy="0" cx="0" fill="#3a86ff" /></g></g></g></g></g><g id="i16"><g transform="translate(257,58)"><g transform="scale(0,0)"><animateTransform repeatCount="indefinite" type="scale" attributeName="transform" dur="3s" begin="0s" calcMode="spline" values="0 0; 0 0; 1.1 1.1; 0.75 0.75; 1 1; 1 1" keyTimes="0; 0.155556; 0.288889; 0.388889; 0.488889; 1" keySplines="0 0 1 1; 0.333 0 0.667 1; 0.333 0 0.667 1; 0.333 0 0.667 1; 0 0 1 1" fill="freeze" /><g transform="translate(-22,199)"><g id="i1" transform="matrix(1,0,0,1,94.081,-29.525)"><ellipse ry="41.366" rx="41.366" cy="0" cx="0" fill="#3a86ff" /></g></g></g></g></g><g id="i17"><g transform="translate(185.942,227.475)"><g transform="scale(0,0)"><animateTransform repeatCount="indefinite" type="scale" attributeName="transform" dur="3s" begin="0s" calcMode="spline" values="0 0; 0 0; 1.1 1.1; 0.75 0.75; 1 1; 1 1" keyTimes="0; 0.474056; 0.607389; 0.707389; 0.807389; 1" keySplines="0 0 1 1; 0.333 0 0.667 1; 0.333 0 0.667 1; 0.333 0 0.667 1; 0 0 1 1" fill="freeze" /><g transform="translate(49.058,29.525)"><g id="i1" transform="matrix(1,0,0,1,-49.058,-29.525)"><ellipse ry="27.578" rx="27.578" cy="0" cx="0" fill="#e6e6e6" /></g></g></g></g></g><g id="i18"><g transform="translate(185.442,226.975)"><g transform="scale(0,0)"><animateTransform repeatCount="indefinite" type="scale" attributeName="transform" dur="3s" begin="0s" calcMode="spline" values="0 0; 0 0; 1.1 1.1; 0.75 0.75; 1 1; 1 1" keyTimes="0; 0.488889; 0.622222; 0.722222; 0.822222; 1" keySplines="0 0 1 1; 0.333 0 0.667 1; 0.333 0 0.667 1; 0.333 0 0.667 1; 0 0 1 1" fill="freeze" /><g transform="translate(49.558,30.025)"><g id="i19"><path fill="#fb5607" d="M-49.558,-10.984C-60.074,-10.984,-68.6,-19.509,-68.6,-30.025C-68.6,-40.541,-60.074,-49.067,-49.558,-49.067C-39.042,-49.067,-30.517,-40.541,-30.517,-30.025C-30.517,-30.025,-30.517,-30.025,-30.517,-30.025C-30.529,-19.514,-39.047,-10.996,-49.558,-10.984Z" /></g><g id="i1"><path fill="#fb5607" d="M-49.558,-47.753C-59.349,-47.753,-67.286,-39.816,-67.286,-30.025C-67.286,-20.234,-59.349,-12.297,-49.558,-12.297C-39.767,-12.297,-31.83,-20.234,-31.83,-30.025C-31.83,-30.025,-31.83,-30.025,-31.83,-30.025C-31.841,-39.811,-39.772,-47.742,-49.558,-47.753Z" /></g></g></g></g></g><g id="i20"><g transform="translate(329.081,227.475)"><g transform="scale(0,0)"><animateTransform repeatCount="indefinite" type="scale" attributeName="transform" dur="3s" begin="0s" calcMode="spline" values="0 0; 0 0; 1.1 1.1; 0.75 0.75; 1 1; 1 1" keyTimes="0; 0.45; 0.583333; 0.683333; 0.783333; 1" keySplines="0 0 1 1; 0.333 0 0.667 1; 0.333 0 0.667 1; 0.333 0 0.667 1; 0 0 1 1" fill="freeze" /><g transform="translate(-94.081,29.525)"><g id="i1" transform="matrix(1,0,0,1,94.081,-29.525)"><ellipse ry="27.578" rx="27.578" cy="0" cx="0" fill="#e6e6e6" /></g></g></g></g></g><g id="i21"><g transform="translate(328.581,226.975)"><g transform="scale(0,0)"><animateTransform repeatCount="indefinite" type="scale" attributeName="transform" dur="3s" begin="0s" calcMode="spline" values="0 0; 0 0; 1.1 1.1; 0.75 0.75; 1 1; 1 1" keyTimes="0; 0.507389; 0.640722; 0.740722; 0.840723; 1" keySplines="0 0 1 1; 0.333 0 0.667 1; 0.333 0 0.667 1; 0.333 0 0.667 1; 0 0 1 1" fill="freeze" /><g transform="translate(-93.581,30.025)"><g id="i19"><path fill="#fb5607" d="M93.581,-10.984C83.065,-10.984,74.54,-19.509,74.54,-30.025C74.54,-40.541,83.065,-49.067,93.581,-49.067C104.097,-49.067,112.623,-40.541,112.623,-30.025C112.611,-19.514,104.092,-10.996,93.581,-10.984Z" /></g><g id="i1"><path fill="#fb5607" d="M93.581,-47.753C83.79,-47.753,75.853,-39.816,75.853,-30.025C75.853,-20.234,83.79,-12.297,93.581,-12.297C103.372,-12.297,111.31,-20.234,111.31,-30.025C111.31,-30.025,111.31,-30.025,111.31,-30.025C111.299,-39.811,103.367,-47.742,93.581,-47.753Z" /></g></g></g></g></g><g id="i22"><g transform="translate(257,58)"><g transform="scale(0,0)"><animateTransform repeatCount="indefinite" type="scale" attributeName="transform" dur="3s" begin="0s" calcMode="spline" values="0 0; 0 0; 1.1 1.1; 0.75 0.75; 1 1; 1 1" keyTimes="0; 0.0878; 0.221133; 0.321133; 0.421137; 1" keySplines="0 0 1 1; 0.333 0 0.667 1; 0.333 0 0.667 1; 0.333 0 0.667 1; 0 0 1 1" fill="freeze" /><g transform="translate(-22,199)"><g id="i1" transform="matrix(1,0,0,1,23.825,-24.929)"><ellipse ry="11.819" rx="11.819" cy="0" cx="0" fill="#ff006e" /></g></g></g></g></g><g id="i23"><g transform="translate(240.762,192.622)"><g transform="scale(0,0)"><animateTransform repeatCount="indefinite" type="scale" attributeName="transform" dur="3s" begin="0s" calcMode="spline" values="0 0; 0 0; 1.1 1.1; 0.7 0.7; 1 1; 1 1" keyTimes="0; 0.541889; 0.653; 0.753; 0.852995; 1" keySplines="0 0 1 1; 0.333 0 0.667 1; 0.333 0 0.667 1; 0.333 0 0.667 1; 0 0 1 1" fill="freeze" /><g transform="translate(-5.762,64.378)"><g id="i1" transform="matrix(1,0,0,1,5.762,-64.378)"><ellipse ry="2.58" rx="2.58" cy="0" cx="0" fill="#827c7f" /></g></g></g></g></g><g id="i24"><g transform="translate(250.427,192.622)"><g transform="scale(0,0)"><animateTransform repeatCount="indefinite" type="scale" attributeName="transform" dur="3s" begin="0s" calcMode="spline" values="0 0; 0 0; 1.1 1.1; 0.7 0.7; 1 1; 1 1" keyTimes="0; 0.570633; 0.681744; 0.781744; 0.881749; 1" keySplines="0 0 1 1; 0.333 0 0.667 1; 0.333 0 0.667 1; 0.333 0 0.667 1; 0 0 1 1" fill="freeze" /><g transform="translate(-15.427,64.378)"><g id="i1" transform="matrix(1,0,0,1,15.427,-64.378)"><ellipse ry="2.58" rx="2.58" cy="0" cx="0" fill="#827c7f" /></g></g></g></g></g><g id="i25"><g transform="translate(249.14,204.868)"><g transform="scale(0,0)"><animateTransform repeatCount="indefinite" type="scale" attributeName="transform" dur="3s" begin="0s" calcMode="spline" values="0 0; 0 0; 1.1 1.1; 0.7 0.7; 1 1; 1 1" keyTimes="0; 0.533333; 0.644444; 0.744444; 0.844434; 1" keySplines="0 0 1 1; 0.333 0 0.667 1; 0.333 0 0.667 1; 0.333 0 0.667 1; 0 0 1 1" fill="freeze" /><g transform="translate(-14.14,52.132)"><g id="i1" transform="matrix(1,0,0,1,14.14,-52.132)"><ellipse ry="2.58" rx="2.58" cy="0" cx="0" fill="#827c7f" /></g></g></g></g></g><g id="i26"><g transform="translate(258.168,205.15)"><g transform="scale(0,0)"><animateTransform repeatCount="indefinite" type="scale" attributeName="transform" dur="3s" begin="0s" calcMode="spline" values="0 0; 0 0; 1.1 1.1; 0.7 0.7; 1 1; 1 1" keyTimes="0; 0.662133; 0.773244; 0.873244; 0.973242; 1" keySplines="0 0 1 1; 0.333 0 0.667 1; 0.333 0 0.667 1; 0.333 0 0.667 1; 0 0 1 1" fill="freeze" /><g transform="translate(-23.168,51.85)"><g id="i1" transform="matrix(1,0,0,1,23.168,-51.85)"><ellipse ry="2.627" rx="2.627" cy="0" cx="0" fill="#827c7f" /></g></g></g></g></g><g id="i27"><g transform="translate(267.183,204.868)"><g transform="scale(0,0)"><animateTransform repeatCount="indefinite" type="scale" attributeName="transform" dur="3s" begin="0s" calcMode="spline" values="0 0; 0 0; 1.1 1.1; 0.7 0.7; 1 1; 1 1" keyTimes="0; 0.664044; 0.775155; 0.875155; 0.975152; 1" keySplines="0 0 1 1; 0.333 0 0.667 1; 0.333 0 0.667 1; 0.333 0 0.667 1; 0 0 1 1" fill="freeze" /><g transform="translate(-32.183,52.132)"><g id="i1" transform="matrix(1,0,0,1,32.183,-52.132)"><ellipse ry="2.58" rx="2.58" cy="0" cx="0" fill="#827c7f" /></g></g></g></g></g><g id="i28"><g transform="translate(245.273,199.07)"><g transform="scale(0,0)"><animateTransform repeatCount="indefinite" type="scale" attributeName="transform" dur="3s" begin="0s" calcMode="spline" values="0 0; 0 0; 1.1 1.1; 0.7 0.7; 1 1; 1 1" keyTimes="0; 0.6247; 0.735811; 0.835811; 0.935807; 1" keySplines="0 0 1 1; 0.333 0 0.667 1; 0.333 0 0.667 1; 0.333 0 0.667 1; 0 0 1 1" fill="freeze" /><g transform="translate(-10.273,57.93)"><g id="i1" transform="matrix(1,0,0,1,10.273,-57.93)"><ellipse ry="2.58" rx="2.58" cy="0" cx="0" fill="#827c7f" /></g></g></g></g></g><g id="i29"><g transform="translate(253.572,199.241)"><g transform="scale(0,0)"><animateTransform repeatCount="indefinite" type="scale" attributeName="transform" dur="3s" begin="0s" calcMode="spline" values="0 0; 0 0; 1.1 1.1; 0.7 0.7; 1 1; 1 1" keyTimes="0; 0.572211; 0.683322; 0.783322; 0.883322; 1" keySplines="0 0 1 1; 0.333 0 0.667 1; 0.333 0 0.667 1; 0.333 0 0.667 1; 0 0 1 1" fill="freeze" /><g transform="translate(-18.572,57.759)"><g id="i1" transform="matrix(1,0,0,1,18.572,-57.759)"><ellipse ry="2.627" rx="2.627" cy="0" cx="0" fill="#827c7f" /></g></g></g></g></g><g id="i30"><g transform="translate(262.108,199.241)"><g transform="scale(0,0)"><animateTransform repeatCount="indefinite" type="scale" attributeName="transform" dur="3s" begin="0s" calcMode="spline" values="0 0; 0 0; 1.1 1.1; 0.7 0.7; 1 1; 1 1" keyTimes="0; 0.608933; 0.720045; 0.820044; 0.920041; 1" keySplines="0 0 1 1; 0.333 0 0.667 1; 0.333 0 0.667 1; 0.333 0 0.667 1; 0 0 1 1" fill="freeze" /><g transform="translate(-27.108,57.759)"><g id="i1" transform="matrix(1,0,0,1,27.108,-57.759)"><ellipse ry="2.627" rx="2.627" cy="0" cx="0" fill="#827c7f" /></g></g></g></g></g><g id="i31"><g transform="translate(271.051,199.07)"><g transform="scale(0,0)"><animateTransform repeatCount="indefinite" type="scale" attributeName="transform" dur="3s" begin="0s" calcMode="spline" values="0 0; 0 0; 1.1 1.1; 0.7 0.7; 1 1; 1 1" keyTimes="0; 0.529422; 0.640533; 0.740534; 0.840538; 1" keySplines="0 0 1 1; 0.333 0 0.667 1; 0.333 0 0.667 1; 0.333 0 0.667 1; 0 0 1 1" fill="freeze" /><g transform="translate(-36.051,57.93)"><g id="i1" transform="matrix(1,0,0,1,36.051,-57.93)"><ellipse ry="2.58" rx="2.58" cy="0" cx="0" fill="#827c7f" /></g></g></g></g></g><g id="i32"><g transform="translate(258.168,192.675)"><g transform="scale(0,0)"><animateTransform repeatCount="indefinite" type="scale" attributeName="transform" dur="3s" begin="0s" calcMode="spline" values="0 0; 0 0; 1.1 1.1; 0.7 0.7; 1 1; 1 1" keyTimes="0; 0.495744; 0.606855; 0.706856; 0.806858; 1" keySplines="0 0 1 1; 0.333 0 0.667 1; 0.333 0 0.667 1; 0.333 0 0.667 1; 0 0 1 1" fill="freeze" /><g transform="translate(-23.168,64.325)"><g id="i1" transform="matrix(1,0,0,1,23.168,-64.325)"><ellipse ry="2.627" rx="2.627" cy="0" cx="0" fill="#827c7f" /></g></g></g></g></g><g id="i33"><g transform="translate(267.361,192.675)"><g transform="scale(0,0)"><animateTransform repeatCount="indefinite" type="scale" attributeName="transform" dur="3s" begin="0s" calcMode="spline" values="0 0; 0 0; 1.1 1.1; 0.7 0.7; 1 1; 1 1" keyTimes="0; 0.484611; 0.595722; 0.695722; 0.795714; 1" keySplines="0 0 1 1; 0.333 0 0.667 1; 0.333 0 0.667 1; 0.333 0 0.667 1; 0 0 1 1" fill="freeze" /><g transform="translate(-32.361,64.325)"><g id="i1" transform="matrix(1,0,0,1,32.361,-64.325)"><ellipse ry="2.627" rx="2.627" cy="0" cx="0" fill="#827c7f" /></g></g></g></g></g><g id="i34"><g transform="translate(274.918,192.622)"><g transform="scale(0,0)"><animateTransform repeatCount="indefinite" type="scale" attributeName="transform" dur="3s" begin="0s" calcMode="spline" values="0 0; 0 0; 1.1 1.1; 0.7 0.7; 1 1; 1 1" keyTimes="0; 0.515967; 0.627078; 0.727078; 0.827072; 1" keySplines="0 0 1 1; 0.333 0 0.667 1; 0.333 0 0.667 1; 0.333 0 0.667 1; 0 0 1 1" fill="freeze" /><g transform="translate(-39.918,64.378)"><g id="i1" transform="matrix(1,0,0,1,39.918,-64.378)"><ellipse ry="2.58" rx="2.58" cy="0" cx="0" fill="#827c7f" /></g></g></g></g></g><g id="i35"><g transform="translate(257,58)"><g transform="scale(0,0)"><animateTransform repeatCount="indefinite" type="scale" attributeName="transform" dur="3s" begin="0s" calcMode="spline" values="0 0; 0 0; 1.1 1.1; 0.75 0.75; 1 1; 1 1" keyTimes="0; 0.077778; 0.211111; 0.311111; 0.411111; 1" keySplines="0 0 1 1; 0.333 0 0.667 1; 0.333 0 0.667 1; 0.333 0 0.667 1; 0 0 1 1" fill="freeze" /><g transform="translate(-22,199)"><g id="i1"><path fill="#ff006e" d="M-74.838,-151.153C-77.367,-151.15,-79.416,-149.101,-79.419,-146.572C-79.419,-146.572,-79.419,-132.783,-79.419,-132.783C-79.416,-130.254,-77.367,-128.205,-74.838,-128.202C-74.838,-128.202,-71.554,-128.202,-71.554,-128.202C-69.025,-128.205,-66.976,-130.254,-66.973,-132.783C-66.973,-132.783,-66.973,-146.572,-66.973,-146.572C-66.976,-149.101,-69.025,-151.15,-71.554,-151.153C-71.554,-151.153,-74.838,-151.153,-74.838,-151.153Z" /></g></g></g></g></g><g id="i36"><g transform="translate(257,58)"><g transform="scale(0,0)"><animateTransform repeatCount="indefinite" type="scale" attributeName="transform" dur="3s" begin="0s" calcMode="spline" values="0 0; 0 0; 1.1 1.1; 0.75 0.75; 1 1; 1 1" keyTimes="0; 0.072222; 0.205556; 0.305556; 0.405556; 1" keySplines="0 0 1 1; 0.333 0 0.667 1; 0.333 0 0.667 1; 0.333 0 0.667 1; 0 0 1 1" fill="freeze" /><g transform="translate(-22,199)"><g id="i1"><path fill="#ff006e" d="M116.891,-151.153C114.362,-151.15,112.312,-149.101,112.309,-146.572C112.309,-146.572,112.309,-132.783,112.309,-132.783C112.312,-130.254,114.362,-128.205,116.891,-128.202C116.891,-128.202,120.174,-128.202,120.174,-128.202C122.703,-128.205,124.752,-130.254,124.755,-132.783C124.755,-132.783,124.755,-146.572,124.755,-146.572C124.752,-149.101,122.703,-151.15,120.174,-151.153C120.174,-151.153,116.891,-151.153,116.891,-151.153Z" /></g></g></g></g></g><g id="i37"><g transform="translate(257,58)"><g transform="scale(0,0)"><animateTransform repeatCount="indefinite" type="scale" attributeName="transform" dur="3s" begin="0s" calcMode="spline" values="0 0; 0 0; 1.1 1.1; 0.75 0.75; 1 1; 1 1" keyTimes="0; 0.099267; 0.2326; 0.3326; 0.432595; 1" keySplines="0 0 1 1; 0.333 0 0.667 1; 0.333 0 0.667 1; 0.333 0 0.667 1; 0 0 1 1" fill="freeze" /><g transform="translate(-22,199)"><g id="i1" transform="matrix(1,0,0,1,172.217,-126.702)"><ellipse ry="15.758" rx="15.758" cy="0" cx="0" fill="#ffffff" /></g></g></g></g></g><g id="i38"><g transform="translate(257,58)"><g transform="scale(0,0)"><animateTransform repeatCount="indefinite" type="scale" attributeName="transform" dur="3s" begin="0s" calcMode="spline" values="0 0; 0 0; 1.1 1.1; 0.75 0.75; 1 1; 1 1" keyTimes="0; 0.130311; 0.263644; 0.363644; 0.463639; 1" keySplines="0 0 1 1; 0.333 0 0.667 1; 0.333 0 0.667 1; 0.333 0 0.667 1; 0 0 1 1" fill="freeze" /><g transform="translate(-22,199)"><g id="i1" transform="matrix(1,0,0,1,138.73,-93.216)"><ellipse ry="15.758" rx="15.758" cy="0" cx="0" fill="#e6e6e6" /></g></g></g></g></g><g id="i39"><g transform="translate(257,58)"><g transform="scale(0,0)"><animateTransform repeatCount="indefinite" type="scale" attributeName="transform" dur="3s" begin="0s" calcMode="spline" values="0 0; 0 0; 1.1 1.1; 0.75 0.75; 1 1; 1 1" keyTimes="0; 0.166667; 0.3; 0.4; 0.5; 1" keySplines="0 0 1 1; 0.333 0 0.667 1; 0.333 0 0.667 1; 0.333 0 0.667 1; 0 0 1 1" fill="freeze" /><g transform="translate(-22,199)"><g id="i1" transform="matrix(1,0,0,1,207.017,-95.185)"><ellipse ry="15.758" rx="15.758" cy="0" cx="0" fill="#e6e6e6" /></g></g></g></g></g><g id="i40"><g transform="translate(257,58)"><g transform="scale(0,0)"><animateTransform repeatCount="indefinite" type="scale" attributeName="transform" dur="3s" begin="0s" calcMode="spline" values="0 0; 0 0; 1.1 1.1; 0.75 0.75; 1 1; 1 1" keyTimes="0; 0.082944; 0.216278; 0.316278; 0.416276; 1" keySplines="0 0 1 1; 0.333 0 0.667 1; 0.333 0 0.667 1; 0.333 0 0.667 1; 0 0 1 1" fill="freeze" /><g transform="translate(-22,199)"><g id="i1" transform="matrix(1,0,0,1,174.844,-60.385)"><ellipse ry="15.758" rx="15.758" cy="0" cx="0" fill="#e6e6e6" /></g></g></g></g></g><g opacity="0.87" id="i41"><g transform="translate(257,59)"><g transform="scale(0,0)"><animateTransform repeatCount="indefinite" type="scale" attributeName="transform" dur="3s" begin="0s" calcMode="spline" values="0 0; 0 0; 1.1 1.1; 0.75 0.75; 1 1; 1 1" keyTimes="0; 0.003933; 0.137267; 0.237267; 0.337261; 1" keySplines="0 0 1 1; 0.333 0 0.667 1; 0.333 0 0.667 1; 0.333 0 0.667 1; 0 0 1 1" fill="freeze" /><g transform="translate(-22,198)"><g id="i1"><path fill="#1cc9fb" d="M-45.126,-160.346C-52.458,-160.338,-58.399,-154.396,-58.407,-147.064C-58.407,-147.064,-58.407,-88.299,-58.407,-88.299C-58.399,-80.967,-52.458,-75.026,-45.126,-75.018C-45.126,-75.018,89.805,-75.018,89.805,-75.018C97.137,-75.026,103.079,-80.967,103.087,-88.299C103.087,-88.299,103.087,-147.064,103.087,-147.064C103.079,-154.396,97.137,-160.338,89.805,-160.346C89.805,-160.346,-45.126,-160.346,-45.126,-160.346Z" /></g></g></g></g></g><g id="i42"><g transform="translate(257,58)"><g transform="scale(0,0)"><animateTransform repeatCount="indefinite" type="scale" attributeName="transform" dur="3s" begin="0s" calcMode="spline" values="0 0; 0 0; 1.1 1.1; 0.75 0.75; 1 1; 1 1" keyTimes="0; 0.075667; 0.209; 0.309; 0.408995; 1" keySplines="0 0 1 1; 0.333 0 0.667 1; 0.333 0 0.667 1; 0.333 0 0.667 1; 0 0 1 1" fill="freeze" /><g transform="translate(-22,199)"><g id="i43"><animate repeatCount="indefinite" attributeName="opacity" dur="3s" begin="0s" fill="freeze" values="1; 1; 0.7; 1; 0.5; 1; 0.6; 1" keyTimes="0; 0.368444; 0.479556; 0.590667; 0.701778; 0.812889; 0.924; 1" keySplines="0 0 1 1; 0 0 1 1; 0 0 1 1; 0 0 1 1; 0 0 1 1; 0 0 1 1; 0 0 1 1" calcMode="spline" /><g transform="translate(-46.25,-115.25) scale(0.31,0.31) translate(-11.75,-114.25)"><g id="i44" transform="matrix(1,0,0,1,10.25,34.25)"><path fill="#5a5a5a" d="M0,-7.75C-4.28,-7.75,-7.75,-4.28,-7.75,0C-7.75,4.28,-4.28,7.75,0,7.75C4.28,7.75,7.75,4.28,7.75,0C7.75,-4.28,4.28,-7.75,0,-7.75Z" /></g><g id="i45" transform="matrix(1,0,0,1,11,75.5)"><path fill="#5a5a5a" d="M0,-7C-3.866,-7,-7,-3.866,-7,0C-7,3.866,-3.866,7,0,7C3.866,7,7,3.866,7,0C7,-3.866,3.866,-7,0,-7Z" /></g><g id="i46" transform="matrix(1,0,0,1,11,109)"><path fill="#5a5a5a" d="M0,-7C-3.866,-7,-7,-3.866,-7,0C-7,3.866,-3.866,7,0,7C3.866,7,7,3.866,7,0C7,-3.866,3.866,-7,0,-7Z" /></g><g id="i47" transform="matrix(1,0,0,1,11,146)"><path fill="#5a5a5a" d="M0,-7C-3.866,-7,-7,-3.866,-7,0C-7,3.866,-3.866,7,0,7C3.866,7,7,3.866,7,0C7,-3.866,3.866,-7,0,-7Z" /></g><g id="i48" transform="matrix(0.667,0,0,0.667,13,194)"><path fill="#5a5a5a" d="M0,-12C-6.627,-12,-12,-6.627,-12,0C-12,6.627,-6.627,12,0,12C6.627,12,12,6.627,12,0C12,-6.627,6.627,-12,0,-12Z" /></g></g></g></g></g></g></g><g id="i42"><g transform="translate(257,58)"><g transform="scale(0,0)"><animateTransform repeatCount="indefinite" type="scale" attributeName="transform" dur="3s" begin="0s" calcMode="spline" values="0 0; 0 0; 1.1 1.1; 0.75 0.75; 1 1; 1 1" keyTimes="0; 0.075667; 0.209; 0.309; 0.408995; 1" keySplines="0 0 1 1; 0.333 0 0.667 1; 0.333 0 0.667 1; 0.333 0 0.667 1; 0 0 1 1" fill="freeze" /><g transform="translate(-22,199)"><g id="i49"><animate repeatCount="indefinite" attributeName="opacity" dur="3s" begin="0s" fill="freeze" values="1; 1; 0.7; 1; 0.5; 1; 0.6; 1; 1" keyTimes="0; 0.309744; 0.420856; 0.531966; 0.643078; 0.754189; 0.8653; 0.965299; 1" keySplines="0 0 1 1; 0 0 1 1; 0 0 1 1; 0 0 1 1; 0 0 1 1; 0 0 1 1; 0 0 1 1; 0 0 1 1" calcMode="spline" /><g transform="translate(-6.25,-115.25) scale(0.31,0.31) translate(-11.75,-114.25)"><g id="i44" transform="matrix(1,0,0,1,10.25,34.25)"><path fill="#5a5a5a" d="M0,-7.75C-4.28,-7.75,-7.75,-4.28,-7.75,0C-7.75,4.28,-4.28,7.75,0,7.75C4.28,7.75,7.75,4.28,7.75,0C7.75,-4.28,4.28,-7.75,0,-7.75Z" /></g><g id="i45" transform="matrix(1,0,0,1,11,75.5)"><path fill="#5a5a5a" d="M0,-7C-3.866,-7,-7,-3.866,-7,0C-7,3.866,-3.866,7,0,7C3.866,7,7,3.866,7,0C7,-3.866,3.866,-7,0,-7Z" /></g><g id="i46" transform="matrix(1,0,0,1,11,109)"><path fill="#5a5a5a" d="M0,-7C-3.866,-7,-7,-3.866,-7,0C-7,3.866,-3.866,7,0,7C3.866,7,7,3.866,7,0C7,-3.866,3.866,-7,0,-7Z" /></g><g id="i47" transform="matrix(1,0,0,1,11,146)"><path fill="#5a5a5a" d="M0,-7C-3.866,-7,-7,-3.866,-7,0C-7,3.866,-3.866,7,0,7C3.866,7,7,3.866,7,0C7,-3.866,3.866,-7,0,-7Z" /></g><g id="i48" transform="matrix(0.667,0,0,0.667,13,194)"><path fill="#5a5a5a" d="M0,-12C-6.627,-12,-12,-6.627,-12,0C-12,6.627,-6.627,12,0,12C6.627,12,12,6.627,12,0C12,-6.627,6.627,-12,0,-12Z" /></g></g></g></g></g></g></g><g id="i42"><g transform="translate(257,58)"><g transform="scale(0,0)"><animateTransform repeatCount="indefinite" type="scale" attributeName="transform" dur="3s" begin="0s" calcMode="spline" values="0 0; 0 0; 1.1 1.1; 0.75 0.75; 1 1; 1 1" keyTimes="0; 0.075667; 0.209; 0.309; 0.408995; 1" keySplines="0 0 1 1; 0.333 0 0.667 1; 0.333 0 0.667 1; 0.333 0 0.667 1; 0 0 1 1" fill="freeze" /><g transform="translate(-22,199)"><g id="i50"><animate repeatCount="indefinite" attributeName="opacity" dur="3s" begin="0s" fill="freeze" values="1; 1; 0.7; 1; 0.5; 1; 0.6; 1; 1" keyTimes="0; 0.3049; 0.416011; 0.527122; 0.638233; 0.749344; 0.860456; 0.96046; 1" keySplines="0 0 1 1; 0 0 1 1; 0 0 1 1; 0 0 1 1; 0 0 1 1; 0 0 1 1; 0 0 1 1; 0 0 1 1" calcMode="spline" /><g transform="translate(13.75,-115.25) scale(0.31,0.31) translate(-11.75,-114.25)"><g id="i44" transform="matrix(1,0,0,1,10.25,34.25)"><path fill="#5a5a5a" d="M0,-7.75C-4.28,-7.75,-7.75,-4.28,-7.75,0C-7.75,4.28,-4.28,7.75,0,7.75C4.28,7.75,7.75,4.28,7.75,0C7.75,-4.28,4.28,-7.75,0,-7.75Z" /></g><g id="i45" transform="matrix(1,0,0,1,11,75.5)"><path fill="#5a5a5a" d="M0,-7C-3.866,-7,-7,-3.866,-7,0C-7,3.866,-3.866,7,0,7C3.866,7,7,3.866,7,0C7,-3.866,3.866,-7,0,-7Z" /></g><g id="i46" transform="matrix(1,0,0,1,11,109)"><path fill="#5a5a5a" d="M0,-7C-3.866,-7,-7,-3.866,-7,0C-7,3.866,-3.866,7,0,7C3.866,7,7,3.866,7,0C7,-3.866,3.866,-7,0,-7Z" /></g><g id="i47" transform="matrix(1,0,0,1,11,146)"><path fill="#5a5a5a" d="M0,-7C-3.866,-7,-7,-3.866,-7,0C-7,3.866,-3.866,7,0,7C3.866,7,7,3.866,7,0C7,-3.866,3.866,-7,0,-7Z" /></g><g id="i48" transform="matrix(0.667,0,0,0.667,13,194)"><path fill="#5a5a5a" d="M0,-12C-6.627,-12,-12,-6.627,-12,0C-12,6.627,-6.627,12,0,12C6.627,12,12,6.627,12,0C12,-6.627,6.627,-12,0,-12Z" /></g></g></g></g></g></g></g><g id="i42"><g transform="translate(257,58)"><g transform="scale(0,0)"><animateTransform repeatCount="indefinite" type="scale" attributeName="transform" dur="3s" begin="0s" calcMode="spline" values="0 0; 0 0; 1.1 1.1; 0.75 0.75; 1 1; 1 1" keyTimes="0; 0.075667; 0.209; 0.309; 0.408995; 1" keySplines="0 0 1 1; 0.333 0 0.667 1; 0.333 0 0.667 1; 0.333 0 0.667 1; 0 0 1 1" fill="freeze" /><g transform="translate(-22,199)"><g id="i51"><animate repeatCount="indefinite" attributeName="opacity" dur="3s" begin="0s" fill="freeze" values="1; 1; 0.7; 1; 0.5; 1; 0.6; 1; 1" keyTimes="0; 0.326356; 0.437466; 0.548578; 0.659689; 0.7708; 0.881911; 0.981912; 1" keySplines="0 0 1 1; 0 0 1 1; 0 0 1 1; 0 0 1 1; 0 0 1 1; 0 0 1 1; 0 0 1 1; 0 0 1 1" calcMode="spline" /><g transform="translate(33.75,-115.25) scale(0.31,0.31) translate(-11.75,-114.25)"><g id="i44" transform="matrix(1,0,0,1,10.25,34.25)"><path fill="#5a5a5a" d="M0,-7.75C-4.28,-7.75,-7.75,-4.28,-7.75,0C-7.75,4.28,-4.28,7.75,0,7.75C4.28,7.75,7.75,4.28,7.75,0C7.75,-4.28,4.28,-7.75,0,-7.75Z" /></g><g id="i45" transform="matrix(1,0,0,1,11,75.5)"><path fill="#5a5a5a" d="M0,-7C-3.866,-7,-7,-3.866,-7,0C-7,3.866,-3.866,7,0,7C3.866,7,7,3.866,7,0C7,-3.866,3.866,-7,0,-7Z" /></g><g id="i46" transform="matrix(1,0,0,1,11,109)"><path fill="#5a5a5a" d="M0,-7C-3.866,-7,-7,-3.866,-7,0C-7,3.866,-3.866,7,0,7C3.866,7,7,3.866,7,0C7,-3.866,3.866,-7,0,-7Z" /></g><g id="i47" transform="matrix(1,0,0,1,11,146)"><path fill="#5a5a5a" d="M0,-7C-3.866,-7,-7,-3.866,-7,0C-7,3.866,-3.866,7,0,7C3.866,7,7,3.866,7,0C7,-3.866,3.866,-7,0,-7Z" /></g><g id="i48" transform="matrix(0.667,0,0,0.667,13,194)"><path fill="#5a5a5a" d="M0,-12C-6.627,-12,-12,-6.627,-12,0C-12,6.627,-6.627,12,0,12C6.627,12,12,6.627,12,0C12,-6.627,6.627,-12,0,-12Z" /></g></g></g></g></g></g></g><g id="i42"><g transform="translate(257,58)"><g transform="scale(0,0)"><animateTransform repeatCount="indefinite" type="scale" attributeName="transform" dur="3s" begin="0s" calcMode="spline" values="0 0; 0 0; 1.1 1.1; 0.75 0.75; 1 1; 1 1" keyTimes="0; 0.075667; 0.209; 0.309; 0.408995; 1" keySplines="0 0 1 1; 0.333 0 0.667 1; 0.333 0 0.667 1; 0.333 0 0.667 1; 0 0 1 1" fill="freeze" /><g transform="translate(-22,199)"><g id="i52"><animate repeatCount="indefinite" attributeName="opacity" dur="3s" begin="0s" fill="freeze" values="1; 1; 0.7; 1; 0.5; 1; 0.6; 1" keyTimes="0; 0.3519; 0.463011; 0.574122; 0.685233; 0.796344; 0.907455; 1" keySplines="0 0 1 1; 0 0 1 1; 0 0 1 1; 0 0 1 1; 0 0 1 1; 0 0 1 1; 0 0 1 1" calcMode="spline" /><g transform="translate(53.75,-115.25) scale(0.31,0.31) translate(-11.75,-114.25)"><g id="i44" transform="matrix(1,0,0,1,10.25,34.25)"><path fill="#5a5a5a" d="M0,-7.75C-4.28,-7.75,-7.75,-4.28,-7.75,0C-7.75,4.28,-4.28,7.75,0,7.75C4.28,7.75,7.75,4.28,7.75,0C7.75,-4.28,4.28,-7.75,0,-7.75Z" /></g><g id="i45" transform="matrix(1,0,0,1,11,75.5)"><path fill="#5a5a5a" d="M0,-7C-3.866,-7,-7,-3.866,-7,0C-7,3.866,-3.866,7,0,7C3.866,7,7,3.866,7,0C7,-3.866,3.866,-7,0,-7Z" /></g><g id="i46" transform="matrix(1,0,0,1,11,109)"><path fill="#5a5a5a" d="M0,-7C-3.866,-7,-7,-3.866,-7,0C-7,3.866,-3.866,7,0,7C3.866,7,7,3.866,7,0C7,-3.866,3.866,-7,0,-7Z" /></g><g id="i47" transform="matrix(1,0,0,1,11,146)"><path fill="#5a5a5a" d="M0,-7C-3.866,-7,-7,-3.866,-7,0C-7,3.866,-3.866,7,0,7C3.866,7,7,3.866,7,0C7,-3.866,3.866,-7,0,-7Z" /></g><g id="i48" transform="matrix(0.667,0,0,0.667,13,194)"><path fill="#5a5a5a" d="M0,-12C-6.627,-12,-12,-6.627,-12,0C-12,6.627,-6.627,12,0,12C6.627,12,12,6.627,12,0C12,-6.627,6.627,-12,0,-12Z" /></g></g></g></g></g></g></g><g id="i42"><g transform="translate(257,58)"><g transform="scale(0,0)"><animateTransform repeatCount="indefinite" type="scale" attributeName="transform" dur="3s" begin="0s" calcMode="spline" values="0 0; 0 0; 1.1 1.1; 0.75 0.75; 1 1; 1 1" keyTimes="0; 0.075667; 0.209; 0.309; 0.408995; 1" keySplines="0 0 1 1; 0.333 0 0.667 1; 0.333 0 0.667 1; 0.333 0 0.667 1; 0 0 1 1" fill="freeze" /><g transform="translate(-22,199)"><g id="i53"><animate repeatCount="indefinite" attributeName="opacity" dur="3s" begin="0s" fill="freeze" values="1; 1; 0.7; 1; 0.5; 1; 0.6; 1; 1" keyTimes="0; 0.292633; 0.403745; 0.514856; 0.625966; 0.737078; 0.848189; 0.948188; 1" keySplines="0 0 1 1; 0 0 1 1; 0 0 1 1; 0 0 1 1; 0 0 1 1; 0 0 1 1; 0 0 1 1; 0 0 1 1" calcMode="spline" /><g transform="translate(73.75,-115.25) scale(0.31,0.31) translate(-11.75,-114.25)"><g id="i44" transform="matrix(1,0,0,1,10.25,34.25)"><path fill="#5a5a5a" d="M0,-7.75C-4.28,-7.75,-7.75,-4.28,-7.75,0C-7.75,4.28,-4.28,7.75,0,7.75C4.28,7.75,7.75,4.28,7.75,0C7.75,-4.28,4.28,-7.75,0,-7.75Z" /></g><g id="i45" transform="matrix(1,0,0,1,11,75.5)"><path fill="#5a5a5a" d="M0,-7C-3.866,-7,-7,-3.866,-7,0C-7,3.866,-3.866,7,0,7C3.866,7,7,3.866,7,0C7,-3.866,3.866,-7,0,-7Z" /></g><g id="i46" transform="matrix(1,0,0,1,11,109)"><path fill="#5a5a5a" d="M0,-7C-3.866,-7,-7,-3.866,-7,0C-7,3.866,-3.866,7,0,7C3.866,7,7,3.866,7,0C7,-3.866,3.866,-7,0,-7Z" /></g><g id="i47" transform="matrix(1,0,0,1,11,146)"><path fill="#5a5a5a" d="M0,-7C-3.866,-7,-7,-3.866,-7,0C-7,3.866,-3.866,7,0,7C3.866,7,7,3.866,7,0C7,-3.866,3.866,-7,0,-7Z" /></g><g id="i48" transform="matrix(0.667,0,0,0.667,13,194)"><path fill="#5a5a5a" d="M0,-12C-6.627,-12,-12,-6.627,-12,0C-12,6.627,-6.627,12,0,12C6.627,12,12,6.627,12,0C12,-6.627,6.627,-12,0,-12Z" /></g></g></g></g></g></g></g><g id="i42"><g transform="translate(257,58)"><g transform="scale(0,0)"><animateTransform repeatCount="indefinite" type="scale" attributeName="transform" dur="3s" begin="0s" calcMode="spline" values="0 0; 0 0; 1.1 1.1; 0.75 0.75; 1 1; 1 1" keyTimes="0; 0.075667; 0.209; 0.309; 0.408995; 1" keySplines="0 0 1 1; 0.333 0 0.667 1; 0.333 0 0.667 1; 0.333 0 0.667 1; 0 0 1 1" fill="freeze" /><g transform="translate(-22,199)"><g id="i54"><animate repeatCount="indefinite" attributeName="opacity" dur="3s" begin="0s" fill="freeze" values="1; 1; 0.7; 1; 0.5; 1; 0.6; 1; 1" keyTimes="0; 0.307611; 0.418722; 0.529834; 0.640944; 0.752056; 0.863167; 0.963162; 1" keySplines="0 0 1 1; 0 0 1 1; 0 0 1 1; 0 0 1 1; 0 0 1 1; 0 0 1 1; 0 0 1 1; 0 0 1 1" calcMode="spline" /><g transform="translate(93.75,-115.25) scale(0.31,0.31) translate(-11.75,-114.25)"><g id="i44" transform="matrix(1,0,0,1,10.25,34.25)"><path fill="#5a5a5a" d="M0,-7.75C-4.28,-7.75,-7.75,-4.28,-7.75,0C-7.75,4.28,-4.28,7.75,0,7.75C4.28,7.75,7.75,4.28,7.75,0C7.75,-4.28,4.28,-7.75,0,-7.75Z" /></g><g id="i45" transform="matrix(1,0,0,1,11,75.5)"><path fill="#5a5a5a" d="M0,-7C-3.866,-7,-7,-3.866,-7,0C-7,3.866,-3.866,7,0,7C3.866,7,7,3.866,7,0C7,-3.866,3.866,-7,0,-7Z" /></g><g id="i46" transform="matrix(1,0,0,1,11,109)"><path fill="#5a5a5a" d="M0,-7C-3.866,-7,-7,-3.866,-7,0C-7,3.866,-3.866,7,0,7C3.866,7,7,3.866,7,0C7,-3.866,3.866,-7,0,-7Z" /></g><g id="i47" transform="matrix(1,0,0,1,11,146)"><path fill="#5a5a5a" d="M0,-7C-3.866,-7,-7,-3.866,-7,0C-7,3.866,-3.866,7,0,7C3.866,7,7,3.866,7,0C7,-3.866,3.866,-7,0,-7Z" /></g><g id="i48" transform="matrix(0.667,0,0,0.667,13,194)"><path fill="#5a5a5a" d="M0,-12C-6.627,-12,-12,-6.627,-12,0C-12,6.627,-6.627,12,0,12C6.627,12,12,6.627,12,0C12,-6.627,6.627,-12,0,-12Z" /></g></g></g></g></g></g></g><g id="i42"><g transform="translate(257,58)"><g transform="scale(0,0)"><animateTransform repeatCount="indefinite" type="scale" attributeName="transform" dur="3s" begin="0s" calcMode="spline" values="0 0; 0 0; 1.1 1.1; 0.75 0.75; 1 1; 1 1" keyTimes="0; 0.075667; 0.209; 0.309; 0.408995; 1" keySplines="0 0 1 1; 0.333 0 0.667 1; 0.333 0 0.667 1; 0.333 0 0.667 1; 0 0 1 1" fill="freeze" /><g transform="translate(-22,199)"><g id="i55"><animate repeatCount="indefinite" attributeName="opacity" dur="3s" begin="0s" fill="freeze" values="1; 1; 0.7; 1; 0.5; 1; 0.6; 1; 1" keyTimes="0; 0.3135; 0.424611; 0.535722; 0.646833; 0.757945; 0.869056; 0.969054; 1" keySplines="0 0 1 1; 0 0 1 1; 0 0 1 1; 0 0 1 1; 0 0 1 1; 0 0 1 1; 0 0 1 1; 0 0 1 1" calcMode="spline" /><g transform="translate(-26.25,-115.25) scale(0.31,0.31) translate(-11.75,-114.25)"><g id="i44" transform="matrix(1,0,0,1,10.25,34.25)"><path fill="#5a5a5a" d="M0,-7.75C-4.28,-7.75,-7.75,-4.28,-7.75,0C-7.75,4.28,-4.28,7.75,0,7.75C4.28,7.75,7.75,4.28,7.75,0C7.75,-4.28,4.28,-7.75,0,-7.75Z" /></g><g id="i45" transform="matrix(1,0,0,1,11,75.5)"><path fill="#5a5a5a" d="M0,-7C-3.866,-7,-7,-3.866,-7,0C-7,3.866,-3.866,7,0,7C3.866,7,7,3.866,7,0C7,-3.866,3.866,-7,0,-7Z" /></g><g id="i46" transform="matrix(1,0,0,1,11,109)"><path fill="#5a5a5a" d="M0,-7C-3.866,-7,-7,-3.866,-7,0C-7,3.866,-3.866,7,0,7C3.866,7,7,3.866,7,0C7,-3.866,3.866,-7,0,-7Z" /></g><g id="i47" transform="matrix(1,0,0,1,11,146)"><path fill="#5a5a5a" d="M0,-7C-3.866,-7,-7,-3.866,-7,0C-7,3.866,-3.866,7,0,7C3.866,7,7,3.866,7,0C7,-3.866,3.866,-7,0,-7Z" /></g><g id="i48" transform="matrix(0.667,0,0,0.667,13,194)"><path fill="#5a5a5a" d="M0,-12C-6.627,-12,-12,-6.627,-12,0C-12,6.627,-6.627,12,0,12C6.627,12,12,6.627,12,0C12,-6.627,6.627,-12,0,-12Z" /></g></g></g></g></g></g></g><g opacity="0.87" id="i42"><g transform="translate(257,58)"><g transform="scale(0,0)"><animateTransform repeatCount="indefinite" type="scale" attributeName="transform" dur="3s" begin="0s" calcMode="spline" values="0 0; 0 0; 1.1 1.1; 0.75 0.75; 1 1; 1 1" keyTimes="0; 0.075667; 0.209; 0.309; 0.408995; 1" keySplines="0 0 1 1; 0.333 0 0.667 1; 0.333 0 0.667 1; 0.333 0 0.667 1; 0 0 1 1" fill="freeze" /><g transform="translate(-22,199)"><g id="i1"><path fill="#00deff" d="M-45.126,-160.346C-52.458,-160.338,-58.399,-154.396,-58.407,-147.064C-58.407,-147.064,-58.407,-88.299,-58.407,-88.299C-58.399,-80.967,-52.458,-75.026,-45.126,-75.018C-45.126,-75.018,89.805,-75.018,89.805,-75.018C97.137,-75.026,103.079,-80.967,103.087,-88.299C103.087,-88.299,103.087,-147.064,103.087,-147.064C103.079,-154.396,97.137,-160.338,89.805,-160.346C89.805,-160.346,-45.126,-160.346,-45.126,-160.346Z" /></g></g></g></g></g><g opacity="0" id="i56"><animate repeatCount="indefinite" attributeName="opacity" dur="3s" begin="0s" fill="freeze" values="0; 0; 1; 0; 1; 0.5; 1; 1" keyTimes="0; 0.55546; 0.555555; 0.655556; 0.755566; 0.855566; 0.955556; 1" keySplines="0 0 1 1; 0 0 1 1; 0.333 0 0.667 1; 0.333 0 0.667 1; 0.333 0 0.667 1; 0.333 0 0.667 1; 0 0 1 1" calcMode="spline" /><g transform="translate(183.639,151) scale(1,1) translate(0,0)"><g id="i57"><path fill="#ffffff" d="M128.626,-19.195C128.626,-19.195,125.726,-19.195,125.726,-19.195C125.726,-19.195,132.344,-7.159,132.344,-7.159C132.344,-7.159,132.344,0,132.344,0C132.344,0,134.875,0,134.875,0C134.875,0,134.875,-7.159,134.875,-7.159C134.875,-7.159,141.494,-19.195,141.494,-19.195C141.494,-19.195,138.62,-19.195,138.62,-19.195C138.62,-19.195,133.61,-9.558,133.61,-9.558C133.61,-9.558,128.626,-19.195,128.626,-19.195Z" /></g><g id="i58"><path fill="#ffffff" d="M117.961,-16.071C117.961,-16.071,121.23,-7.093,121.23,-7.093C121.23,-7.093,114.705,-7.093,114.705,-7.093C114.705,-7.093,117.961,-16.071,117.961,-16.071ZM123.814,0C123.814,0,126.412,0,126.412,0C126.412,0,119.068,-19.195,119.068,-19.195C119.068,-19.195,116.854,-19.195,116.854,-19.195C116.854,-19.195,109.523,0,109.523,0C109.523,0,112.134,0,112.134,0C112.134,0,113.94,-5.023,113.94,-5.023C113.94,-5.023,121.982,-5.023,121.982,-5.023C121.982,-5.023,123.814,0,123.814,0Z" /></g><g id="i59"><path fill="#ffffff" d="M99.148,-19.195C99.148,-19.195,96.604,-19.195,96.604,-19.195C96.604,-19.195,96.604,0,96.604,0C96.604,0,108.245,0,108.245,0C108.245,0,108.245,-2.07,108.245,-2.07C108.245,-2.07,99.148,-2.07,99.148,-2.07C99.148,-2.07,99.148,-19.195,99.148,-19.195Z" /></g><g id="i60"><path fill="#ffffff" d="M82.102,-17.125C82.102,-17.125,86.795,-17.125,86.795,-17.125C88.052,-17.099,89.04,-16.743,89.761,-16.056C90.482,-15.369,90.842,-14.454,90.842,-13.309C90.842,-12.103,90.482,-11.18,89.761,-10.542C89.04,-9.904,88.003,-9.584,86.65,-9.584C86.65,-9.584,82.102,-9.584,82.102,-9.584C82.102,-9.584,82.102,-17.125,82.102,-17.125ZM86.624,-7.515C88.795,-7.515,90.462,-8.018,91.627,-9.024C92.791,-10.03,93.374,-11.466,93.374,-13.329C93.374,-15.096,92.778,-16.515,91.587,-17.587C90.396,-18.659,88.751,-19.195,86.65,-19.195C86.65,-19.195,79.57,-19.195,79.57,-19.195C79.57,-19.195,79.57,0,79.57,0C79.57,0,82.102,0,82.102,0C82.102,0,82.102,-7.515,82.102,-7.515C82.102,-7.515,86.624,-7.515,86.624,-7.515Z" /></g><g id="i61"><path fill="#ffffff" d="M66.11,-7.033C66.769,-6.519,67.099,-5.792,67.099,-4.852C67.099,-3.911,66.743,-3.169,66.031,-2.624C65.319,-2.079,64.295,-1.806,62.959,-1.806C61.526,-1.806,60.382,-2.143,59.525,-2.815C58.668,-3.487,58.239,-4.403,58.239,-5.563C58.239,-5.563,55.695,-5.563,55.695,-5.563C55.695,-4.447,56.004,-3.45,56.624,-2.571C57.244,-1.692,58.125,-0.999,59.268,-0.494C60.41,0.011,61.641,0.264,62.959,0.264C64.989,0.264,66.611,-0.204,67.824,-1.14C69.037,-2.076,69.643,-3.322,69.643,-4.878C69.643,-5.854,69.425,-6.701,68.99,-7.422C68.555,-8.143,67.888,-8.773,66.987,-9.314C66.086,-9.855,64.837,-10.35,63.242,-10.799C61.647,-11.248,60.518,-11.742,59.854,-12.284C59.19,-12.825,58.859,-13.488,58.859,-14.272C58.859,-15.249,59.208,-16.014,59.907,-16.564C60.606,-17.114,61.579,-17.389,62.827,-17.389C64.172,-17.389,65.214,-17.056,65.952,-16.39C66.69,-15.724,67.059,-14.809,67.059,-13.645C67.059,-13.645,69.604,-13.645,69.604,-13.645C69.604,-14.708,69.32,-15.689,68.753,-16.585C68.186,-17.481,67.387,-18.184,66.354,-18.694C65.321,-19.204,64.145,-19.459,62.827,-19.459C60.893,-19.459,59.322,-18.965,58.114,-17.976C56.905,-16.987,56.301,-15.737,56.301,-14.225C56.301,-12.889,56.795,-11.767,57.784,-10.857C58.773,-9.947,60.353,-9.18,62.524,-8.556C64.255,-8.055,65.451,-7.547,66.11,-7.033Z" /></g><g id="i62"><path fill="#ffffff" d="M52.906,-15.906C53.332,-16.78,53.55,-17.657,53.559,-18.536C53.559,-18.536,53.559,-20.25,53.559,-20.25C53.559,-20.25,51.146,-20.25,51.146,-20.25C51.146,-20.25,51.146,-18.352,51.146,-18.352C51.12,-17.086,50.698,-15.881,49.881,-14.739C49.881,-14.739,51.265,-13.79,51.265,-13.79C51.933,-14.326,52.48,-15.031,52.906,-15.906Z" /></g><g id="i63"><path fill="#ffffff" d="M48.628,-19.195C48.628,-19.195,33.784,-19.195,33.784,-19.195C33.784,-19.195,33.784,-17.125,33.784,-17.125C33.784,-17.125,39.94,-17.125,39.94,-17.125C39.94,-17.125,39.94,0,39.94,0C39.94,0,42.458,0,42.458,0C42.458,0,42.458,-17.125,42.458,-17.125C42.458,-17.125,48.628,-17.125,48.628,-17.125C48.628,-17.125,48.628,-19.195,48.628,-19.195Z" /></g><g id="i64"><path fill="#ffffff" d="M30.606,-10.942C30.606,-10.942,22.288,-10.942,22.288,-10.942C22.288,-10.942,22.288,-17.125,22.288,-17.125C22.288,-17.125,31.819,-17.125,31.819,-17.125C31.819,-17.125,31.819,-19.195,31.819,-19.195C31.819,-19.195,19.756,-19.195,19.756,-19.195C19.756,-19.195,19.756,0,19.756,0C19.756,0,31.951,0,31.951,0C31.951,0,31.951,-2.07,31.951,-2.07C31.951,-2.07,22.288,-2.07,22.288,-2.07C22.288,-2.07,22.288,-8.873,22.288,-8.873C22.288,-8.873,30.606,-8.873,30.606,-8.873C30.606,-8.873,30.606,-10.942,30.606,-10.942Z" /></g><g id="i59"><path fill="#ffffff" d="M7.772,-19.195C7.772,-19.195,5.228,-19.195,5.228,-19.195C5.228,-19.195,5.228,0,5.228,0C5.228,0,16.869,0,16.869,0C16.869,0,16.869,-2.07,16.869,-2.07C16.869,-2.07,7.772,-2.07,7.772,-2.07C7.772,-2.07,7.772,-19.195,7.772,-19.195Z" /></g></g></g><g opacity="0.07" id="i65"><g transform="translate(257,59)"><g transform="scale(0,0)"><animateTransform repeatCount="indefinite" type="scale" attributeName="transform" dur="3s" begin="0s" calcMode="spline" values="0 0; 0 0; 1.1 1.1; 0.75 0.75; 1 1; 1 1" keyTimes="0; 0.051633; 0.184967; 0.284966; 0.384972; 1" keySplines="0 0 1 1; 0.333 0 0.667 1; 0.333 0 0.667 1; 0.333 0 0.667 1; 0 0 1 1" fill="freeze" /><g transform="translate(-22,198)"><g id="i1"><path fill="#0766e8" d="M-45.126,-160.346C-52.458,-160.338,-58.399,-154.396,-58.407,-147.064C-58.407,-147.064,-58.407,-88.299,-58.407,-88.299C-58.399,-80.967,-52.458,-75.026,-45.126,-75.018C-45.126,-75.018,89.805,-75.018,89.805,-75.018C97.137,-75.026,103.079,-80.967,103.087,-88.299C103.087,-88.299,103.087,-147.064,103.087,-147.064C103.079,-154.396,97.137,-160.338,89.805,-160.346C89.805,-160.346,-45.126,-160.346,-45.126,-160.346Z" /></g></g></g></g></g><g id="i66"><g transform="translate(409.18,196.115)"><g transform="scale(0,0)"><animateTransform repeatCount="indefinite" type="scale" attributeName="transform" dur="3s" begin="0s" calcMode="spline" values="0 0; 0 0; 1.1 1.1; 0.75 0.75; 1 1; 1 1" keyTimes="0; 0.5; 0.633333; 0.733333; 0.833333; 1" keySplines="0 0 1 1; 0.333 0 0.667 1; 0.333 0 0.667 1; 0.333 0 0.667 1; 0 0 1 1" fill="freeze" /><g transform="translate(-174.18,60.885)"><g id="i1"><path fill="#93afd8" d="M166.329,-67.808C166.329,-67.808,167.257,-68.737,167.257,-68.737C167.257,-68.737,182.031,-53.963,182.031,-53.963C182.031,-53.963,181.102,-53.034,181.102,-53.034C181.102,-53.034,166.329,-67.808,166.329,-67.808Z" /></g></g></g></g></g><g id="i67"><g transform="translate(409.344,195.95)"><g transform="scale(0,0)"><animateTransform repeatCount="indefinite" type="scale" attributeName="transform" dur="3s" begin="0s" calcMode="spline" values="0 0; 0 0; 1.1 1.1; 0.75 0.75; 1 1; 1 1" keyTimes="0; 0.470367; 0.6037; 0.7037; 0.8037; 1" keySplines="0 0 1 1; 0.333 0 0.667 1; 0.333 0 0.667 1; 0.333 0 0.667 1; 0 0 1 1" fill="freeze" /><g transform="translate(-174.344,61.05)"><g id="i1"><path fill="#93afd8" d="M166.34,-54.301C166.34,-54.301,181.44,-68.748,181.44,-68.748C181.44,-68.748,182.348,-67.799,182.348,-67.799C182.348,-67.799,167.248,-53.352,167.248,-53.352C167.248,-53.352,166.34,-54.301,166.34,-54.301Z" /></g></g></g></g></g><g id="i68"><g transform="translate(442.25,162)"><g transform="scale(0,0)"><animateTransform repeatCount="indefinite" type="scale" attributeName="transform" dur="3s" begin="0s" calcMode="spline" values="0 0; 0 0; 1.1 1.1; 0.75 0.75; 1 1; 1 1" keyTimes="0; 0.522222; 0.655556; 0.755556; 0.855556; 1" keySplines="0 0 1 1; 0.333 0 0.667 1; 0.333 0 0.667 1; 0.333 0 0.667 1; 0 0 1 1" fill="freeze" /><g transform="translate(-189.25,94)"><g id="i44" transform="matrix(1,0,0,1,190.75,-91.75)"><path stroke-width="2" stroke="#e48e9a" d="M-1.5,-12.5C-7.161,-12.5,-11.75,-7.911,-11.75,-2.25C-11.75,3.411,-7.161,8,-1.5,8C4.161,8,8.75,3.411,8.75,-2.25C8.75,-7.911,4.161,-12.5,-1.5,-12.5Z" /></g></g></g></g></g><g id="i69"><g transform="translate(407.75,128.25)"><g transform="scale(0,0)"><animateTransform repeatCount="indefinite" type="scale" attributeName="transform" dur="3s" begin="0s" calcMode="spline" values="0 0; 0 0; 1.1 1.1; 0.75 0.75; 1 1; 1 1" keyTimes="0; 0.435567; 0.5689; 0.6689; 0.768902; 1" keySplines="0 0 1 1; 0.333 0 0.667 1; 0.333 0 0.667 1; 0.333 0 0.667 1; 0 0 1 1" fill="freeze" /><g transform="translate(-154.75,126.25)"><g id="i70"><path stroke-width="2" stroke="#4bb8c0" d="M154.5,-135.5C154.5,-135.5,144.5,-117,144.5,-117C144.5,-117,165,-117.5,165,-117.5C165,-117.5,154.5,-135.5,154.5,-135.5Z" /></g></g></g></g></g><g id="i71"><g transform="translate(373.75,164)"><g transform="scale(0,0)"><animateTransform repeatCount="indefinite" type="scale" attributeName="transform" dur="3s" begin="0s" calcMode="spline" values="0 0; 0 0; 1.1 1.1; 0.75 0.75; 1 1; 1 1" keyTimes="0; 0.488889; 0.622222; 0.722222; 0.822222; 1" keySplines="0 0 1 1; 0.333 0 0.667 1; 0.333 0 0.667 1; 0.333 0 0.667 1; 0 0 1 1" fill="freeze" /><g transform="translate(-120.75,92)"><g id="i72" transform="matrix(1,0,0,1,119.75,-92)"><path stroke-width="2" stroke="#cba7c9" d="M10.75,-8C10.75,-8,-8.75,-8,-8.75,-8C-8.75,-8,-8.75,8,-8.75,8C-8.75,8,10.75,8,10.75,8C10.75,8,10.75,-8,10.75,-8Z" /></g></g></g></g></g></svg>