<svg fill="none" height="100%" width="100%" viewBox="0 0 150 150" xmlns:xlink="http://www.w3.org/1999/xlink" xmlns="http://www.w3.org/2000/svg"><g transform="matrix(1,0,0,1,75,74.012)" id="i0"><g id="i1"><path fill="#f44336" d="M-0.003,-39.012C-22.09,-39.012,-40,-21.104,-40,0.99C-40,18.661,-28.54,33.653,-12.644,38.943C-10.644,39.31,-9.913,38.075,-9.913,37.015C-9.913,36.065,-9.948,33.55,-9.967,30.212C-21.094,32.629,-23.442,24.85,-23.442,24.85C-25.261,20.229,-27.883,18.999,-27.883,18.999C-31.515,16.517,-27.608,16.568,-27.608,16.568C-23.594,16.851,-21.481,20.69,-21.481,20.69C-17.913,26.803,-12.119,25.037,-9.84,24.013C-9.477,21.428,-8.444,19.666,-7.301,18.666C-16.183,17.657,-25.521,14.225,-25.521,-1.103C-25.521,-5.47,-23.963,-9.041,-21.404,-11.837C-21.815,-12.849,-23.187,-16.916,-21.011,-22.423C-21.011,-22.423,-17.653,-23.498,-10.012,-18.322C-6.821,-19.209,-3.4,-19.654,0.002,-19.669C3.399,-19.654,6.821,-19.209,10.016,-18.322C17.653,-23.498,21.005,-22.423,21.005,-22.423C23.187,-16.916,21.814,-12.849,21.403,-11.837C23.967,-9.041,25.515,-5.47,25.515,-1.103C25.515,14.263,16.163,17.645,7.252,18.635C8.688,19.87,9.967,22.311,9.967,26.042C9.967,31.389,9.918,35.703,9.918,37.015C9.918,38.085,10.639,39.33,12.669,38.939C28.55,33.639,40,18.656,40,0.99C40,-21.104,22.089,-39.012,-0.003,-39.012Z" /></g></g><g id="i2"><animate repeatCount="indefinite" attributeName="opacity" dur="2s" begin="0s" fill="freeze" values="1; 1; 0; 0" keyTimes="0; 0.416667; 0.479167; 1" keySplines="0 0 1 1; 0 0 1 1; 0 0 1 1" calcMode="spline" /><g transform="translate(75,75) scale(1,1) translate(-5.25,-2.75)"><g id="i3" transform="matrix(1,0,0,1,5.25,2.75)"><ellipse stroke-dashoffset="-79.167" stroke-dasharray="0 100" pathLength="100" ry="55" rx="55" cy="0" cx="0" stroke-linecap="round" stroke-width="4" stroke="#f44336"><animate repeatCount="indefinite" attributeName="stroke-width" dur="2s" begin="0s" fill="freeze" values="4; 6; 4; 4" keyTimes="0; 0.229167; 0.625; 1" keySplines="0.25 0 0.75 1; 0.25 0 0.75 1; 0 0 1 1" calcMode="spline" /><animate repeatCount="indefinite" fill="freeze" begin="0s" dur="2s" calcMode="spline" keySplines="0.5 0 0.5 1; 0.5 0 0.5 1; 0.5 0 0.5 1; 0 0 1 1" keyTimes="0; 0.25; 0.5; 0.625; 1" values="0 100; 20 80; 0 100; 0 100; 0 100" attributeName="stroke-dasharray" /><animate repeatCount="indefinite" fill="freeze" begin="0s" dur="2s" calcMode="spline" keySplines="0.5 0 0.5 1; 0.5 0 0.5 1; 0.5 0 0.5 1; 0 0 1 1" keyTimes="0; 0.25; 0.5; 0.625; 1" values="-79.167; -15.201; -88.309; -95.833; -95.833" attributeName="stroke-dashoffset" /></ellipse></g></g></g></svg>