<svg fill="none" height="100%" width="100%" viewBox="0 0 100 70" xmlns:xlink="http://www.w3.org/1999/xlink" xmlns="http://www.w3.org/2000/svg"><g id="i0"><g transform="translate(29.398,28.986)"><g transform="rotate(0)"><animateTransform repeatCount="indefinite" type="rotate" attributeName="transform" dur="2.017s" begin="0s" calcMode="spline" values="0; 180; 180" keyTimes="0; 0.247934; 1" keySplines="0.333 0 0.667 1; 0 0 1 1" fill="freeze" /><g transform="scale(1,-1)"><animateTransform repeatCount="indefinite" type="scale" attributeName="transform" dur="2.017s" begin="0s" calcMode="spline" values="1 -1; 0 0; 1 -1; 1 -1" keyTimes="0; 0.495868; 0.743802; 1" keySplines="0.333 0 0.667 1; 0.333 0 0.667 1; 0 0 1 1" fill="freeze" /><g transform="translate(0,0)"><g id="i1" transform="matrix(1.02,0,0,1.02,0,0)"><path fill="#ffe300" d="M0,-15.363C-1.66,-4.443,-1.19,-1.213,-12.81,-0.003C-1.37,1.497,-1.2,4.857,0,15.367C1.59,4.797,1.28,1.627,12.81,-0.003C1.2,-1.203,1.59,-4.453,0,-15.363Z" /></g></g></g></g></g></g><g id="i2"><g transform="translate(63.705,33.116)"><g transform="rotate(0)"><animateTransform repeatCount="indefinite" type="rotate" attributeName="transform" dur="2.017s" begin="0s" calcMode="spline" values="0; 180; 180" keyTimes="0; 0.247934; 1" keySplines="0.333 0 0.667 1; 0 0 1 1" fill="freeze" /><g transform="scale(1,-1)"><animateTransform repeatCount="indefinite" type="scale" attributeName="transform" dur="2.017s" begin="0s" calcMode="spline" values="1 -1; 0 0; 1 -1; 1 -1" keyTimes="0; 0.495868; 0.743802; 1" keySplines="0.333 0 0.667 1; 0.333 0 0.667 1; 0 0 1 1" fill="freeze" /><g transform="translate(0,0)"><g id="i1" transform="matrix(1.02,0,0,1.02,0,0)"><path fill="#ffe300" d="M-0.019,-23.804C-2.539,-6.874,-1.799,-1.894,-19.569,-0.004C-2.099,2.326,-1.869,7.536,-0.019,23.806C2.431,7.366,1.961,2.546,19.571,-0.004C1.801,-1.864,2.401,-6.874,-0.019,-23.804Z" /></g></g></g></g></g></g><g id="i3"><g transform="translate(44.94,49.235)"><g transform="rotate(0)"><animateTransform repeatCount="indefinite" type="rotate" attributeName="transform" dur="2.017s" begin="0s" calcMode="spline" values="0; 180; 180" keyTimes="0; 0.247934; 1" keySplines="0.333 0 0.667 1; 0 0 1 1" fill="freeze" /><g transform="scale(1,-1)"><animateTransform repeatCount="indefinite" type="scale" attributeName="transform" dur="2.017s" begin="0s" calcMode="spline" values="1 -1; 0 0; 1 -1; 1 -1" keyTimes="0; 0.495868; 0.743802; 1" keySplines="0.333 0 0.667 1; 0.333 0 0.667 1; 0 0 1 1" fill="freeze" /><g transform="translate(0,0)"><g id="i1" transform="matrix(1.02,0,0,1.02,0,0)"><path fill="#ffe300" d="M-0.004,-8.399C-0.934,-2.419,-0.654,-0.659,-7.114,0.011C-0.754,0.821,-0.674,2.671,-0.004,8.401C0.876,2.621,0.706,0.901,7.116,0.011C0.656,-0.659,0.876,-2.429,-0.004,-8.399Z" /></g></g></g></g></g></g></svg>