<svg fill="none" height="100%" width="100%" viewBox="0 0 300 400" xmlns:xlink="http://www.w3.org/1999/xlink" xmlns="http://www.w3.org/2000/svg"><g visibility="hidden" id="i0"><animate repeatCount="indefinite" begin="0s" calcMode="discrete" dur="4.071s" values="hidden; visible; visible" keyTimes="0; 0.31102; 1" attributeName="visibility" /><g transform="translate(149.518,287.462)"><g transform="scale(0.1,0.1)"><animateTransform repeatCount="indefinite" type="scale" attributeName="transform" dur="4.071s" begin="0s" calcMode="spline" values="0.1 0.1; 0.1 0.1; 1.15 1.15; 1 1; 1 1" keyTimes="0; 0.532787; 0.680328; 0.745901; 1" keySplines="0 0 1 1; 0.333 0 0.667 1; 0.333 0 0.667 1; 0 0 1 1" fill="freeze" /><g transform="translate(-65.518,-114.962)"><g id="i1" transform="matrix(1,0,0,1,65.93,58.507)"><path fill="#bcfa7b" d="M41.592,58.257C56.296,46.212,65.68,27.915,65.68,7.424C65.68,-28.85,36.274,-58.257,-0.001,-58.257C-36.275,-58.257,-65.68,-28.85,-65.68,7.424C-65.68,27.915,-56.296,46.212,-41.592,58.257C-29.151,58.05,-15.006,57.933,-0.001,57.933C15.004,57.933,29.152,58.05,41.592,58.257Z" /></g></g></g></g></g><g visibility="hidden" id="i2"><animate repeatCount="indefinite" begin="0s" calcMode="discrete" dur="4.071s" values="hidden; visible; visible" keyTimes="0; 0.31102; 1" attributeName="visibility" /><animate repeatCount="indefinite" attributeName="opacity" dur="4.071s" begin="0s" fill="freeze" values="1; 1; 0; 0" keyTimes="0; 0.737705; 0.803279; 1" keySplines="0 0 1 1; 0 0 1 1; 0 0 1 1" calcMode="spline" /><g transform="translate(150,233)"><g transform="scale(1,1)"><animateTransform repeatCount="indefinite" type="scale" attributeName="transform" dur="4.071s" begin="0s" calcMode="spline" values="1 1; 1 1; 0 0; 1 1; 1 1" keyTimes="0; 0.032787; 0.614754; 0.786885; 1" keySplines="0 0 1 1; 0.167 0.167 0.667 1; 0.167 0.167 0.667 1; 0 0 1 1" fill="freeze" /><g transform="translate(-80,-48)"><g id="i3" transform="matrix(1,0,0,1,8.986,92.339)"><path fill="#6d4c41" d="M-0.988,0.988C-1.534,0.442,-1.534,-0.442,-0.988,-0.988C-0.442,-1.534,0.442,-1.534,0.988,-0.988C1.534,-0.442,1.534,0.442,0.988,0.988C0.442,1.534,-0.442,1.534,-0.988,0.988Z" /></g><g id="i4" transform="matrix(1,0,0,1,156.622,94.007)"><path fill="#6d4c41" d="M1.613,-0.001C1.613,0.89,0.89,1.613,0,1.613C-0.891,1.613,-1.613,0.89,-1.613,-0.001C-1.613,-0.891,-0.891,-1.613,0,-1.613C0.89,-1.613,1.613,-0.891,1.613,-0.001Z" /></g><g id="i5" transform="matrix(1,0,0,1,157.952,37.896)"><path fill="#6d4c41" d="M1.258,-0.478C1.522,0.216,1.173,0.994,0.478,1.258C-0.217,1.522,-0.994,1.173,-1.258,0.479C-1.522,-0.216,-1.173,-0.994,-0.478,-1.258C0.216,-1.522,0.993,-1.173,1.258,-0.478Z" /></g><g id="i6" transform="matrix(1,0,0,1,150.06,23.755)"><path fill="#6d4c41" d="M2.294,2.295C2.606,1.984,2.409,1.246,1.859,0.409C1.696,0.16,1.696,-0.16,1.859,-0.409C2.409,-1.246,2.606,-1.984,2.294,-2.295C1.983,-2.606,1.245,-2.41,0.408,-1.86C0.159,-1.697,-0.161,-1.697,-0.41,-1.86C-1.246,-2.41,-1.984,-2.606,-2.296,-2.295C-2.606,-1.984,-2.41,-1.246,-1.86,-0.409C-1.697,-0.16,-1.697,0.16,-1.86,0.409C-2.41,1.246,-2.606,1.984,-2.296,2.295C-1.984,2.606,-1.246,2.41,-0.41,1.86C-0.161,1.697,0.159,1.697,0.408,1.86C1.245,2.41,1.983,2.606,2.294,2.295Z" /></g><g id="i7" transform="matrix(1,0,0,1,2.89,80.594)"><path fill="#6d4c41" d="M0,2.64C0.357,2.64,0.669,2.102,0.834,1.305C0.883,1.068,1.068,0.884,1.305,0.835C2.102,0.669,2.64,0.357,2.64,0C2.64,-0.358,2.102,-0.67,1.305,-0.835C1.068,-0.884,0.883,-1.068,0.834,-1.305C0.669,-2.103,0.357,-2.64,0,-2.64C-0.358,-2.64,-0.669,-2.103,-0.835,-1.305C-0.884,-1.068,-1.068,-0.884,-1.305,-0.835C-2.103,-0.67,-2.64,-0.358,-2.64,0C-2.64,0.357,-2.103,0.669,-1.305,0.835C-1.068,0.884,-0.884,1.068,-0.835,1.305C-0.669,2.102,-0.358,2.64,0,2.64Z" /></g><g id="i8" transform="matrix(1,0,0,1,24.783,2.68)"><path fill="#6d4c41" d="M-1.787,1.163C-2.43,0.176,-2.15,-1.145,-1.163,-1.788C-0.176,-2.43,1.146,-2.151,1.788,-1.164C2.43,-0.176,2.151,1.144,1.164,1.787C0.177,2.43,-1.144,2.15,-1.787,1.163Z" /></g><g id="i1" transform="matrix(1,0,0,1,14.454,13.591)"><path fill="#6d4c41" d="M-1.364,-0.289C-1.205,-1.042,-0.465,-1.523,0.288,-1.364C1.042,-1.205,1.523,-0.465,1.364,0.288C1.204,1.041,0.465,1.523,-0.288,1.363C-1.042,1.204,-1.523,0.464,-1.364,-0.289Z" /></g></g></g></g></g><g opacity="0" id="i9"><animate repeatCount="indefinite" attributeName="opacity" dur="4.071s" begin="0s" fill="freeze" values="0; 0; 1; 1" keyTimes="0; 0.311475; 0.368852; 1" keySplines="0 0 1 1; 0.333 0 0.667 1; 0 0 1 1" calcMode="spline" /><g transform="translate(160,117.5)"><animateTransform repeatCount="indefinite" type="translate" attributeName="transform" dur="4.071s" begin="0s" calcMode="spline" values="160 117.5; 160 117.5; 160 241.5; 160 241.5" keyTimes="0; 0.352459; 0.5; 1" keySplines="0 0 1 1; 0.333 0 0.667 1; 0 0 1 1" fill="freeze" /><g transform="scale(1,1) translate(-29.5,-41.5)"><g id="i10" transform="matrix(1,0,0,1,29.325,41.068)"><path fill="#2ecc71" d="M-6.59,40.061C-7.422,40.061,-8.167,39.503,-8.4,38.705C-8.4,38.705,-27.939,-28.02,-27.939,-28.02C-28.231,-29.018,-27.656,-30.067,-26.658,-30.36C-26.658,-30.36,6.211,-39.984,6.211,-39.984C6.384,-40.035,6.562,-40.061,6.741,-40.061C7.573,-40.061,8.317,-39.503,8.551,-38.705C8.551,-38.705,28.089,28.02,28.089,28.02C28.23,28.503,28.176,29.013,27.933,29.455C27.692,29.897,27.293,30.218,26.809,30.36C26.809,30.36,-6.06,39.985,-6.06,39.985C-6.233,40.036,-6.411,40.061,-6.59,40.061Z" /></g><g id="i11" transform="matrix(1,0,0,1,29.4,41.068)"><path fill="#6d4c41" fill-rule="evenodd" d="M6.666,-39.303C7.154,-39.303,7.604,-38.984,7.749,-38.491C7.749,-38.491,27.287,28.233,27.287,28.233C27.462,28.831,27.119,29.458,26.521,29.633C26.521,29.633,-6.348,39.258,-6.348,39.258C-6.454,39.289,-6.561,39.303,-6.666,39.303C-7.154,39.303,-7.604,38.984,-7.749,38.491C-7.749,38.491,-27.287,-28.232,-27.287,-28.232C-27.462,-28.83,-27.119,-29.458,-26.521,-29.633C-26.521,-29.633,6.349,-39.258,6.349,-39.258C6.454,-39.289,6.562,-39.303,6.666,-39.303ZM6.666,-40.819C6.415,-40.819,6.165,-40.782,5.923,-40.711C5.923,-40.711,-26.946,-31.087,-26.946,-31.087C-28.345,-30.677,-29.15,-29.205,-28.741,-27.806C-28.741,-27.806,-9.202,38.918,-9.202,38.918C-9.039,39.477,-8.704,39.956,-8.236,40.302C-7.784,40.635,-7.226,40.819,-6.666,40.819C-6.415,40.819,-6.165,40.782,-5.922,40.711C-5.922,40.711,26.947,31.086,26.947,31.086C28.346,30.677,29.15,29.205,28.741,27.806C28.741,27.806,9.203,-38.918,9.203,-38.918C9.039,-39.477,8.705,-39.955,8.236,-40.301C7.784,-40.634,7.227,-40.819,6.666,-40.819Z" /></g><g id="i12" transform="matrix(1,0,0,1,29.401,36.16)"><path fill="#ffffff" d="M27.286,33.141C27.286,33.141,7.748,-33.584,7.748,-33.584C7.572,-34.182,6.945,-34.525,6.348,-34.349C6.348,-34.349,-26.522,-24.725,-26.522,-24.725C-27.039,-24.573,-27.363,-24.085,-27.329,-23.568C-27.237,-23.63,-27.138,-23.682,-27.027,-23.714C-27.027,-23.714,5.843,-33.339,5.843,-33.339C6.44,-33.514,7.067,-33.172,7.243,-32.573C7.243,-32.573,26.781,34.151,26.781,34.151C26.805,34.232,26.817,34.314,26.822,34.395C27.224,34.129,27.429,33.628,27.286,33.141Z" /></g><g id="i13" transform="matrix(1,0,0,1,29.375,41.068)"><path fill="#fafafa" d="M-4.762,35.475C-4.867,35.475,-4.972,35.45,-5.066,35.398C-5.213,35.318,-5.322,35.183,-5.368,35.022C-5.368,35.022,-23.407,-26.581,-23.407,-26.581C-23.505,-26.916,-23.313,-27.266,-22.979,-27.363C-22.979,-27.363,4.635,-35.449,4.635,-35.449C4.693,-35.466,4.754,-35.475,4.813,-35.475C4.918,-35.475,5.022,-35.448,5.115,-35.397C5.262,-35.317,5.372,-35.182,5.419,-35.021C5.419,-35.021,23.456,26.581,23.456,26.581C23.504,26.742,23.485,26.915,23.404,27.062C23.324,27.208,23.189,27.318,23.029,27.365C23.029,27.365,-4.585,35.451,-4.585,35.451C-4.643,35.468,-4.702,35.475,-4.762,35.475Z" /></g><g id="i14" transform="matrix(1,0,0,1,29.4,41.068)"><path fill="#6d4c41" fill-rule="evenodd" d="M4.788,-34.844C4.788,-34.844,22.827,26.758,22.827,26.758C22.827,26.758,-4.787,34.844,-4.787,34.844C-4.787,34.844,-22.826,-26.758,-22.826,-26.758C-22.826,-26.758,4.788,-34.844,4.788,-34.844ZM4.789,-36.107C4.671,-36.107,4.552,-36.09,4.434,-36.056C4.434,-36.056,-23.18,-27.97,-23.18,-27.97C-23.502,-27.876,-23.773,-27.658,-23.933,-27.364C-24.094,-27.07,-24.131,-26.725,-24.037,-26.403C-24.037,-26.403,-5.999,35.199,-5.999,35.199C-5.837,35.749,-5.334,36.107,-4.788,36.107C-4.67,36.107,-4.551,36.09,-4.432,36.056C-4.432,36.056,23.181,27.97,23.181,27.97C23.502,27.876,23.774,27.658,23.934,27.364C24.095,27.07,24.132,26.725,24.039,26.404C24.039,26.404,5.999,-35.199,5.999,-35.199C5.838,-35.75,5.335,-36.107,4.789,-36.107Z" /></g><g id="i15" transform="matrix(1,0,0,1,48.061,65.124)"><path fill="#2ecc71" d="M-2.986,4.796C-2.986,4.796,4.165,2.702,4.165,2.702C4.165,2.702,1.969,-4.796,1.969,-4.796C-1.951,-3.446,-4.164,0.775,-2.986,4.796Z" /></g><g id="i16" transform="matrix(1,0,0,1,46.26,64.695)"><path fill="#6d4c41" d="M-1.185,5.225C-2.363,1.204,-0.15,-3.017,3.77,-4.367C3.77,-4.367,3.416,-5.581,3.416,-5.581C-1.173,-4.033,-3.77,0.892,-2.397,5.581C-2.397,5.581,-1.185,5.225,-1.185,5.225Z" /></g><g id="i17" transform="matrix(1,0,0,1,27.09,72.052)"><path fill="#2ecc71" d="M0.921,-2.898C-0.246,-3.537,-1.529,-3.861,-2.824,-3.861C-3.441,-3.861,-4.061,-3.786,-4.674,-3.637C-4.674,-3.637,-2.478,3.861,-2.478,3.861C-2.478,3.861,4.674,1.767,4.674,1.767C4.087,-0.239,2.754,-1.896,0.921,-2.898Z" /></g><g id="i18" transform="matrix(1,0,0,1,27.518,70.232)"><path fill="#6d4c41" d="M1.098,-2.186C-0.922,-3.291,-3.235,-3.586,-5.457,-3.031C-5.457,-3.031,-5.101,-1.817,-5.101,-1.817C-4.489,-1.966,-3.868,-2.041,-3.251,-2.041C-1.956,-2.041,-0.675,-1.717,0.493,-1.078C2.326,-0.076,3.659,1.581,4.246,3.586C4.246,3.586,5.457,3.232,5.457,3.232C4.775,0.903,3.227,-1.021,1.098,-2.186Z" /></g><g id="i3" transform="matrix(1,0,0,1,31.71,10.204)"><path fill="#2ecc71" d="M-0.921,2.779C0.804,3.722,2.777,3.98,4.674,3.519C4.674,3.519,2.478,-3.98,2.478,-3.98C2.478,-3.98,-4.674,-1.886,-4.674,-1.886C-4.087,0.119,-2.754,1.776,-0.921,2.779Z" /></g><g id="i4" transform="matrix(1,0,0,1,31.282,11.764)"><path fill="#6d4c41" d="M-5.457,-3.091C-4.775,-0.762,-3.227,1.162,-1.098,2.326C0.258,3.068,1.746,3.446,3.249,3.446C3.986,3.445,4.727,3.354,5.457,3.172C5.457,3.172,5.102,1.959,5.102,1.959C3.205,2.42,1.232,2.162,-0.492,1.219C-2.325,0.216,-3.658,-1.441,-4.246,-3.446C-4.246,-3.446,-5.457,-3.091,-5.457,-3.091Z" /></g><g id="i5" transform="matrix(1,0,0,1,10.739,17.013)"><path fill="#2ecc71" d="M2.987,-4.797C2.987,-4.797,2.987,-4.797,2.987,-4.797C2.987,-4.797,-4.164,-2.702,-4.164,-2.702C-4.164,-2.702,-1.969,4.797,-1.969,4.797C1.952,3.446,4.164,-0.777,2.987,-4.797Z" /></g><g id="i6" transform="matrix(1,0,0,1,12.54,17.441)"><path fill="#6d4c41" d="M2.397,-5.58C2.397,-5.58,2.397,-5.58,2.397,-5.58C2.397,-5.58,1.186,-5.225,1.186,-5.225C2.363,-1.205,0.15,3.017,-3.77,4.368C-3.77,4.368,-3.415,5.58,-3.415,5.58C1.173,4.033,3.77,-0.892,2.397,-5.58Z" /></g><g id="i7" transform="matrix(1,0,0,1,28.837,40.399)"><path fill="#2ecc71" d="M0.363,9.179C-1.58,9.179,-3.516,8.54,-5.088,7.381C-6.712,6.181,-7.872,4.521,-8.441,2.579C-9.863,-2.278,-7.069,-7.385,-2.212,-8.807C-1.369,-9.054,-0.5,-9.179,0.371,-9.179C2.314,-9.179,4.25,-8.541,5.821,-7.381C7.446,-6.182,8.606,-4.522,9.174,-2.579C9.863,-0.227,9.595,2.253,8.418,4.404C7.241,6.554,5.299,8.118,2.946,8.807C2.103,9.054,1.234,9.179,0.363,9.179Z" /></g><g id="i8" transform="matrix(1,0,0,1,29.204,40.399)"><path fill="#6d4c41" fill-rule="evenodd" d="M0.004,-8.548C3.701,-8.548,7.11,-6.129,8.202,-2.401C9.528,2.128,6.931,6.876,2.401,8.202C1.6,8.437,0.792,8.549,-0.004,8.549C-3.701,8.549,-7.11,6.13,-8.202,2.402C-9.528,-2.127,-6.931,-6.874,-2.402,-8.201C-1.6,-8.435,-0.791,-8.548,0.004,-8.548ZM0.004,-9.811C-0.927,-9.811,-1.855,-9.676,-2.756,-9.413C-4.027,-9.04,-5.186,-8.431,-6.204,-7.6C-7.186,-6.797,-7.994,-5.824,-8.605,-4.706C-9.216,-3.589,-9.6,-2.384,-9.746,-1.124C-9.897,0.181,-9.785,1.487,-9.413,2.757C-8.805,4.833,-7.566,6.607,-5.829,7.889C-4.995,8.505,-4.073,8.983,-3.09,9.311C-2.091,9.643,-1.053,9.811,-0.004,9.811C0.927,9.811,1.856,9.677,2.756,9.414C4.026,9.042,5.186,8.432,6.204,7.601C7.186,6.798,7.994,5.825,8.605,4.708C9.216,3.59,9.6,2.385,9.746,1.126C9.897,-0.18,9.785,-1.486,9.414,-2.756C8.805,-4.832,7.566,-6.606,5.83,-7.888C4.995,-8.504,4.073,-8.983,3.089,-9.311C2.091,-9.643,1.053,-9.811,0.004,-9.811Z" /></g><g id="i1" transform="matrix(1,0,0,1,29.318,39.905)"><path fill="#6d4c41" d="M-0.471,-2.682C-0.471,-2.682,0.624,-3.07,0.624,-3.07C0.624,-3.07,1.781,0.186,1.781,0.186C2,0.052,2.187,-0.1,2.342,-0.272C2.498,-0.444,2.625,-0.614,2.721,-0.781C2.721,-0.781,1.712,-3.622,1.712,-3.622C1.712,-3.622,2.956,-4.064,2.956,-4.064C2.956,-4.064,5.267,2.448,5.267,2.448C5.267,2.448,4.023,2.889,4.023,2.889C4.023,2.889,3.277,0.788,3.277,0.788C3.19,0.919,3.074,1.07,2.93,1.244C2.786,1.418,2.587,1.583,2.331,1.74C2.331,1.74,2.831,3.146,2.831,3.146C2.831,3.146,1.736,3.534,1.736,3.534C1.736,3.534,1.284,2.262,1.284,2.262C0.965,2.364,0.647,2.393,0.332,2.35C0.016,2.306,-0.286,2.205,-0.575,2.047C-0.865,1.889,-1.127,1.676,-1.361,1.409C-1.595,1.142,-1.781,0.844,-1.919,0.516C-1.919,0.516,-3.843,4.064,-3.843,4.064C-3.843,4.064,-5.267,3.104,-5.267,3.104C-5.267,3.104,-3.305,-0.009,-3.305,-0.009C-3.158,-0.25,-3.024,-0.476,-2.904,-0.686C-2.784,-0.895,-2.68,-1.08,-2.594,-1.244C-2.495,-1.435,-2.406,-1.611,-2.33,-1.771C-2.33,-1.771,-1.211,-1.669,-1.211,-1.669C-1.212,-1.513,-1.202,-1.37,-1.183,-1.238C-1.164,-1.106,-1.123,-0.95,-1.06,-0.772C-0.871,-0.24,-0.615,0.138,-0.29,0.362C0.033,0.587,0.362,0.667,0.695,0.604C0.695,0.604,-0.471,-2.682,-0.471,-2.682Z" /></g></g></g></g><g opacity="0" id="i19"><animate repeatCount="indefinite" attributeName="opacity" dur="4.071s" begin="0s" fill="freeze" values="0; 0; 1; 1" keyTimes="0; 0.237705; 0.295082; 1" keySplines="0 0 1 1; 0.333 0 0.667 1; 0 0 1 1" calcMode="spline" /><g transform="translate(150,138.5)"><animateTransform repeatCount="indefinite" type="translate" attributeName="transform" dur="4.071s" begin="0s" calcMode="spline" values="150 138.5; 150 138.5; 150 241.5; 150 241.5" keyTimes="0; 0.262295; 0.5; 1" keySplines="0 0 1 1; 0.333 0 0.667 1; 0 0 1 1" fill="freeze" /><g transform="scale(1,1) translate(-43.5,-43)"><g id="i10" transform="matrix(1,0,0,1,29.325,41.068)"><path fill="#2ecc71" d="M-6.59,40.061C-7.422,40.061,-8.167,39.503,-8.4,38.705C-8.4,38.705,-27.939,-28.02,-27.939,-28.02C-28.231,-29.018,-27.656,-30.067,-26.658,-30.36C-26.658,-30.36,6.211,-39.984,6.211,-39.984C6.384,-40.035,6.562,-40.061,6.741,-40.061C7.573,-40.061,8.317,-39.503,8.551,-38.705C8.551,-38.705,28.089,28.02,28.089,28.02C28.23,28.503,28.176,29.013,27.933,29.455C27.692,29.897,27.293,30.218,26.809,30.36C26.809,30.36,-6.06,39.985,-6.06,39.985C-6.233,40.036,-6.411,40.061,-6.59,40.061Z" /></g><g id="i11" transform="matrix(1,0,0,1,29.4,41.068)"><path fill="#6d4c41" fill-rule="evenodd" d="M6.666,-39.303C7.154,-39.303,7.604,-38.984,7.749,-38.491C7.749,-38.491,27.287,28.233,27.287,28.233C27.462,28.831,27.119,29.458,26.521,29.633C26.521,29.633,-6.348,39.258,-6.348,39.258C-6.454,39.289,-6.561,39.303,-6.666,39.303C-7.154,39.303,-7.604,38.984,-7.749,38.491C-7.749,38.491,-27.287,-28.232,-27.287,-28.232C-27.462,-28.83,-27.119,-29.458,-26.521,-29.633C-26.521,-29.633,6.349,-39.258,6.349,-39.258C6.454,-39.289,6.562,-39.303,6.666,-39.303ZM6.666,-40.819C6.415,-40.819,6.165,-40.782,5.923,-40.711C5.923,-40.711,-26.946,-31.087,-26.946,-31.087C-28.345,-30.677,-29.15,-29.205,-28.741,-27.806C-28.741,-27.806,-9.202,38.918,-9.202,38.918C-9.039,39.477,-8.704,39.956,-8.236,40.302C-7.784,40.635,-7.226,40.819,-6.666,40.819C-6.415,40.819,-6.165,40.782,-5.922,40.711C-5.922,40.711,26.947,31.086,26.947,31.086C28.346,30.677,29.15,29.205,28.741,27.806C28.741,27.806,9.203,-38.918,9.203,-38.918C9.039,-39.477,8.705,-39.955,8.236,-40.301C7.784,-40.634,7.227,-40.819,6.666,-40.819Z" /></g><g id="i12" transform="matrix(1,0,0,1,29.401,36.16)"><path fill="#ffffff" d="M27.286,33.141C27.286,33.141,7.748,-33.584,7.748,-33.584C7.572,-34.182,6.945,-34.525,6.348,-34.349C6.348,-34.349,-26.522,-24.725,-26.522,-24.725C-27.039,-24.573,-27.363,-24.085,-27.329,-23.568C-27.237,-23.63,-27.138,-23.682,-27.027,-23.714C-27.027,-23.714,5.843,-33.339,5.843,-33.339C6.44,-33.514,7.067,-33.172,7.243,-32.573C7.243,-32.573,26.781,34.151,26.781,34.151C26.805,34.232,26.817,34.314,26.822,34.395C27.224,34.129,27.429,33.628,27.286,33.141Z" /></g><g id="i13" transform="matrix(1,0,0,1,29.375,41.068)"><path fill="#fafafa" d="M-4.762,35.475C-4.867,35.475,-4.972,35.45,-5.066,35.398C-5.213,35.318,-5.322,35.183,-5.368,35.022C-5.368,35.022,-23.407,-26.581,-23.407,-26.581C-23.505,-26.916,-23.313,-27.266,-22.979,-27.363C-22.979,-27.363,4.635,-35.449,4.635,-35.449C4.693,-35.466,4.754,-35.475,4.813,-35.475C4.918,-35.475,5.022,-35.448,5.115,-35.397C5.262,-35.317,5.372,-35.182,5.419,-35.021C5.419,-35.021,23.456,26.581,23.456,26.581C23.504,26.742,23.485,26.915,23.404,27.062C23.324,27.208,23.189,27.318,23.029,27.365C23.029,27.365,-4.585,35.451,-4.585,35.451C-4.643,35.468,-4.702,35.475,-4.762,35.475Z" /></g><g id="i14" transform="matrix(1,0,0,1,29.4,41.068)"><path fill="#6d4c41" fill-rule="evenodd" d="M4.788,-34.844C4.788,-34.844,22.827,26.758,22.827,26.758C22.827,26.758,-4.787,34.844,-4.787,34.844C-4.787,34.844,-22.826,-26.758,-22.826,-26.758C-22.826,-26.758,4.788,-34.844,4.788,-34.844ZM4.789,-36.107C4.671,-36.107,4.552,-36.09,4.434,-36.056C4.434,-36.056,-23.18,-27.97,-23.18,-27.97C-23.502,-27.876,-23.773,-27.658,-23.933,-27.364C-24.094,-27.07,-24.131,-26.725,-24.037,-26.403C-24.037,-26.403,-5.999,35.199,-5.999,35.199C-5.837,35.749,-5.334,36.107,-4.788,36.107C-4.67,36.107,-4.551,36.09,-4.432,36.056C-4.432,36.056,23.181,27.97,23.181,27.97C23.502,27.876,23.774,27.658,23.934,27.364C24.095,27.07,24.132,26.725,24.039,26.404C24.039,26.404,5.999,-35.199,5.999,-35.199C5.838,-35.75,5.335,-36.107,4.789,-36.107Z" /></g><g id="i15" transform="matrix(1,0,0,1,48.061,65.124)"><path fill="#2ecc71" d="M-2.986,4.796C-2.986,4.796,4.165,2.702,4.165,2.702C4.165,2.702,1.969,-4.796,1.969,-4.796C-1.951,-3.446,-4.164,0.775,-2.986,4.796Z" /></g><g id="i16" transform="matrix(1,0,0,1,46.26,64.695)"><path fill="#6d4c41" d="M-1.185,5.225C-2.363,1.204,-0.15,-3.017,3.77,-4.367C3.77,-4.367,3.416,-5.581,3.416,-5.581C-1.173,-4.033,-3.77,0.892,-2.397,5.581C-2.397,5.581,-1.185,5.225,-1.185,5.225Z" /></g><g id="i17" transform="matrix(1,0,0,1,27.09,72.052)"><path fill="#2ecc71" d="M0.921,-2.898C-0.246,-3.537,-1.529,-3.861,-2.824,-3.861C-3.441,-3.861,-4.061,-3.786,-4.674,-3.637C-4.674,-3.637,-2.478,3.861,-2.478,3.861C-2.478,3.861,4.674,1.767,4.674,1.767C4.087,-0.239,2.754,-1.896,0.921,-2.898Z" /></g><g id="i18" transform="matrix(1,0,0,1,27.518,70.232)"><path fill="#6d4c41" d="M1.098,-2.186C-0.922,-3.291,-3.235,-3.586,-5.457,-3.031C-5.457,-3.031,-5.101,-1.817,-5.101,-1.817C-4.489,-1.966,-3.868,-2.041,-3.251,-2.041C-1.956,-2.041,-0.675,-1.717,0.493,-1.078C2.326,-0.076,3.659,1.581,4.246,3.586C4.246,3.586,5.457,3.232,5.457,3.232C4.775,0.903,3.227,-1.021,1.098,-2.186Z" /></g><g id="i3" transform="matrix(1,0,0,1,31.71,10.204)"><path fill="#2ecc71" d="M-0.921,2.779C0.804,3.722,2.777,3.98,4.674,3.519C4.674,3.519,2.478,-3.98,2.478,-3.98C2.478,-3.98,-4.674,-1.886,-4.674,-1.886C-4.087,0.119,-2.754,1.776,-0.921,2.779Z" /></g><g id="i4" transform="matrix(1,0,0,1,31.282,11.764)"><path fill="#6d4c41" d="M-5.457,-3.091C-4.775,-0.762,-3.227,1.162,-1.098,2.326C0.258,3.068,1.746,3.446,3.249,3.446C3.986,3.445,4.727,3.354,5.457,3.172C5.457,3.172,5.102,1.959,5.102,1.959C3.205,2.42,1.232,2.162,-0.492,1.219C-2.325,0.216,-3.658,-1.441,-4.246,-3.446C-4.246,-3.446,-5.457,-3.091,-5.457,-3.091Z" /></g><g id="i5" transform="matrix(1,0,0,1,10.739,17.013)"><path fill="#2ecc71" d="M2.987,-4.797C2.987,-4.797,2.987,-4.797,2.987,-4.797C2.987,-4.797,-4.164,-2.702,-4.164,-2.702C-4.164,-2.702,-1.969,4.797,-1.969,4.797C1.952,3.446,4.164,-0.777,2.987,-4.797Z" /></g><g id="i6" transform="matrix(1,0,0,1,12.54,17.441)"><path fill="#6d4c41" d="M2.397,-5.58C2.397,-5.58,2.397,-5.58,2.397,-5.58C2.397,-5.58,1.186,-5.225,1.186,-5.225C2.363,-1.205,0.15,3.017,-3.77,4.368C-3.77,4.368,-3.415,5.58,-3.415,5.58C1.173,4.033,3.77,-0.892,2.397,-5.58Z" /></g><g id="i7" transform="matrix(1,0,0,1,28.837,40.399)"><path fill="#2ecc71" d="M0.363,9.179C-1.58,9.179,-3.516,8.54,-5.088,7.381C-6.712,6.181,-7.872,4.521,-8.441,2.579C-9.863,-2.278,-7.069,-7.385,-2.212,-8.807C-1.369,-9.054,-0.5,-9.179,0.371,-9.179C2.314,-9.179,4.25,-8.541,5.821,-7.381C7.446,-6.182,8.606,-4.522,9.174,-2.579C9.863,-0.227,9.595,2.253,8.418,4.404C7.241,6.554,5.299,8.118,2.946,8.807C2.103,9.054,1.234,9.179,0.363,9.179Z" /></g><g id="i8" transform="matrix(1,0,0,1,29.204,40.399)"><path fill="#6d4c41" fill-rule="evenodd" d="M0.004,-8.548C3.701,-8.548,7.11,-6.129,8.202,-2.401C9.528,2.128,6.931,6.876,2.401,8.202C1.6,8.437,0.792,8.549,-0.004,8.549C-3.701,8.549,-7.11,6.13,-8.202,2.402C-9.528,-2.127,-6.931,-6.874,-2.402,-8.201C-1.6,-8.435,-0.791,-8.548,0.004,-8.548ZM0.004,-9.811C-0.927,-9.811,-1.855,-9.676,-2.756,-9.413C-4.027,-9.04,-5.186,-8.431,-6.204,-7.6C-7.186,-6.797,-7.994,-5.824,-8.605,-4.706C-9.216,-3.589,-9.6,-2.384,-9.746,-1.124C-9.897,0.181,-9.785,1.487,-9.413,2.757C-8.805,4.833,-7.566,6.607,-5.829,7.889C-4.995,8.505,-4.073,8.983,-3.09,9.311C-2.091,9.643,-1.053,9.811,-0.004,9.811C0.927,9.811,1.856,9.677,2.756,9.414C4.026,9.042,5.186,8.432,6.204,7.601C7.186,6.798,7.994,5.825,8.605,4.708C9.216,3.59,9.6,2.385,9.746,1.126C9.897,-0.18,9.785,-1.486,9.414,-2.756C8.805,-4.832,7.566,-6.606,5.83,-7.888C4.995,-8.504,4.073,-8.983,3.089,-9.311C2.091,-9.643,1.053,-9.811,0.004,-9.811Z" /></g><g id="i1" transform="matrix(1,0,0,1,29.318,39.905)"><path fill="#6d4c41" d="M-0.471,-2.682C-0.471,-2.682,0.624,-3.07,0.624,-3.07C0.624,-3.07,1.781,0.186,1.781,0.186C2,0.052,2.187,-0.1,2.342,-0.272C2.498,-0.444,2.625,-0.614,2.721,-0.781C2.721,-0.781,1.712,-3.622,1.712,-3.622C1.712,-3.622,2.956,-4.064,2.956,-4.064C2.956,-4.064,5.267,2.448,5.267,2.448C5.267,2.448,4.023,2.889,4.023,2.889C4.023,2.889,3.277,0.788,3.277,0.788C3.19,0.919,3.074,1.07,2.93,1.244C2.786,1.418,2.587,1.583,2.331,1.74C2.331,1.74,2.831,3.146,2.831,3.146C2.831,3.146,1.736,3.534,1.736,3.534C1.736,3.534,1.284,2.262,1.284,2.262C0.965,2.364,0.647,2.393,0.332,2.35C0.016,2.306,-0.286,2.205,-0.575,2.047C-0.865,1.889,-1.127,1.676,-1.361,1.409C-1.595,1.142,-1.781,0.844,-1.919,0.516C-1.919,0.516,-3.843,4.064,-3.843,4.064C-3.843,4.064,-5.267,3.104,-5.267,3.104C-5.267,3.104,-3.305,-0.009,-3.305,-0.009C-3.158,-0.25,-3.024,-0.476,-2.904,-0.686C-2.784,-0.895,-2.68,-1.08,-2.594,-1.244C-2.495,-1.435,-2.406,-1.611,-2.33,-1.771C-2.33,-1.771,-1.211,-1.669,-1.211,-1.669C-1.212,-1.513,-1.202,-1.37,-1.183,-1.238C-1.164,-1.106,-1.123,-0.95,-1.06,-0.772C-0.871,-0.24,-0.615,0.138,-0.29,0.362C0.033,0.587,0.362,0.667,0.695,0.604C0.695,0.604,-0.471,-2.682,-0.471,-2.682Z" /></g></g></g></g><g opacity="0" id="i20"><animate repeatCount="indefinite" attributeName="opacity" dur="4.071s" begin="0s" fill="freeze" values="0; 1; 1" keyTimes="0; 0.04918; 1" keySplines="0.333 0 0.667 1; 0 0 1 1" calcMode="spline" /><g transform="translate(242,259)"><animateTransform repeatCount="indefinite" type="translate" attributeName="transform" dur="4.071s" begin="0s" calcMode="spline" values="242 259; 150 259; 150 259" keyTimes="0; 0.122951; 1" keySplines="0.333 0 0.667 1; 0 0 1 1" fill="freeze" /><g transform="scale(1,1) translate(-90.5,-36)"><g id="i21" transform="matrix(1,0,0,1,82.819,66.348)"><path fill="#d3bfba" d="M81.686,0.001C81.686,1.55,45.114,2.805,0,2.805C-45.114,2.805,-81.686,1.55,-81.686,0.001C-81.686,-1.548,-45.114,-2.805,0,-2.805C45.114,-2.805,81.686,-1.548,81.686,0.001Z" /></g><g id="i22"><path fill="#f5f5f5" d="M1.134,65.417C1.134,65.417,164.505,65.417,164.505,65.417" /></g><g id="i23" transform="matrix(1,0,0,1,82.281,33.281)"><path fill="#eb984e" d="M-45.344,32.147C-47.622,32.147,-49.491,30.118,-49.507,27.624C-49.507,27.624,-49.874,-26.955,-49.874,-26.955C-49.882,-28.151,-49.469,-29.284,-48.712,-30.144C-47.929,-31.033,-46.875,-31.526,-45.745,-31.533C-45.745,-31.533,-41.426,-31.561,-41.426,-31.561C-41.405,-31.563,-41.384,-31.563,-41.363,-31.564C-41.363,-31.564,-27.543,-31.654,-27.543,-31.654C-27.533,-31.655,-27.525,-31.656,-27.515,-31.656C-27.464,-31.66,-27.399,-31.665,-27.325,-31.666C-27.325,-31.666,46.384,-32.147,46.384,-32.147C48.085,-32.147,49.479,-30.763,49.49,-29.062C49.49,-29.062,49.876,28.407,49.876,28.407C49.882,29.237,49.563,30.019,48.981,30.609C48.398,31.2,47.62,31.528,46.79,31.533C46.79,31.533,37.813,31.592,37.813,31.592C37.813,31.592,37.813,31.601,37.813,31.601C37.813,31.601,29.335,31.657,29.335,31.657C29.314,31.658,29.292,31.659,29.272,31.659C29.272,31.659,-45.344,32.147,-45.344,32.147Z" /></g><g id="i24" transform="matrix(1,0,0,1,82.178,33.777)"><path fill="#d1813f" d="M48.709,-29.553C48.7,-30.78,47.699,-31.766,46.473,-31.759C46.473,-31.759,35.178,-31.686,35.178,-31.686C36.128,-31.439,36.833,-30.581,36.84,-29.553C36.84,-29.553,37.081,8.467,37.081,8.467C37.124,15.351,32.568,21.433,25.937,23.281C13.906,26.632,-8.579,29.995,-48.471,28.484C-48.471,28.484,-49.104,31.766,-49.104,31.766C-49.104,31.766,39.148,31.766,39.148,31.766C39.148,31.766,39.354,30.202,39.354,30.202C39.354,30.202,46.887,30.154,46.887,30.154C48.114,30.146,49.103,29.144,49.094,27.917C49.094,27.917,48.709,-29.553,48.709,-29.553Z" /></g><g id="i25" transform="matrix(1,0,0,1,81.807,33.284)"><path fill="#f7bd8d" d="M-45.877,28.371C-45.877,28.371,-46.244,-26.206,-46.244,-26.206C-46.257,-28.232,-44.802,-29.884,-42.994,-29.896C-42.994,-29.896,-38.646,-29.924,-38.646,-29.924C-38.634,-29.924,-38.623,-29.926,-38.611,-29.926C-38.611,-29.926,-24.765,-30.017,-24.765,-30.017C-24.701,-30.021,-24.638,-30.028,-24.573,-30.028C-24.573,-30.028,48.53,-30.506,48.53,-30.506C48.12,-30.975,47.516,-31.272,46.843,-31.267C46.843,-31.267,-26.845,-30.786,-26.845,-30.786C-26.91,-30.785,-26.973,-30.778,-27.037,-30.775C-27.037,-30.775,-40.884,-30.684,-40.884,-30.684C-40.896,-30.684,-40.907,-30.682,-40.919,-30.682C-40.919,-30.682,-45.267,-30.653,-45.267,-30.653C-47.075,-30.642,-48.53,-28.99,-48.516,-26.964C-48.516,-26.964,-48.149,27.615,-48.149,27.615C-48.136,29.64,-46.659,31.271,-44.851,31.259C-44.851,31.259,-44.589,31.257,-44.589,31.257C-45.364,30.592,-45.869,29.549,-45.877,28.371Z" /></g><g id="i26" transform="matrix(1,0,0,1,47.345,32.051)"><path fill="#d1813f" d="M-11.144,-7.523C-11.144,-7.523,4.083,-7.628,4.083,-7.628C5.953,-7.628,7.715,-6.902,9.043,-5.585C10.372,-4.266,11.11,-2.509,11.124,-0.637C11.124,-0.637,11.131,0.432,11.131,0.432C11.144,2.313,10.424,4.085,9.103,5.424C7.783,6.764,6.02,7.509,4.139,7.521C4.139,7.521,-11.038,7.628,-11.038,7.628C-11.038,7.628,-11.144,-7.523,-11.144,-7.523Z" /></g><g id="i27" transform="matrix(1,0,0,1,47.343,32.052)"><path fill="#6d4c41" fill-rule="evenodd" d="M4.085,-6.999C7.605,-7,10.469,-4.159,10.494,-0.634C10.494,-0.634,10.502,0.434,10.502,0.434C10.526,3.974,7.676,6.864,4.136,6.889C4.136,6.889,-10.409,6.991,-10.409,6.991C-10.409,6.991,-10.506,-6.898,-10.506,-6.898C-10.506,-6.898,4.039,-6.999,4.039,-6.999C4.039,-6.999,4.085,-6.999,4.085,-6.999ZM4.085,-8.262C4.085,-8.262,4.085,-6.999,4.085,-6.999C4.085,-6.999,4.085,-8.262,4.085,-8.262C4.067,-8.262,4.048,-8.262,4.03,-8.262C4.03,-8.262,-10.515,-8.16,-10.515,-8.16C-10.515,-8.16,-11.778,-8.151,-11.778,-8.151C-11.778,-8.151,-11.769,-6.889,-11.769,-6.889C-11.769,-6.889,-11.672,7,-11.672,7C-11.672,7,-11.663,8.262,-11.663,8.262C-11.663,8.262,-10.4,8.253,-10.4,8.253C-10.4,8.253,4.145,8.152,4.145,8.152C6.194,8.137,8.116,7.326,9.555,5.866C10.994,4.407,11.778,2.475,11.764,0.426C11.764,0.426,11.756,-0.642,11.756,-0.642C11.742,-2.682,10.937,-4.597,9.49,-6.034C8.043,-7.471,6.123,-8.262,4.085,-8.262Z" /></g><g id="i28" transform="matrix(1,0,0,1,43.94,32.067)"><path fill="#dc7633" d="M-11.151,-7.523C-11.151,-7.523,4.076,-7.628,4.076,-7.628C5.947,-7.628,7.708,-6.903,9.036,-5.585C10.365,-4.266,11.103,-2.509,11.117,-0.637C11.117,-0.637,11.124,0.432,11.124,0.432C11.151,4.315,8.015,7.496,4.132,7.523C4.132,7.523,-11.045,7.628,-11.045,7.628C-11.045,7.628,-11.151,-7.523,-11.151,-7.523Z" /></g><g id="i29" transform="matrix(1,0,0,1,43.931,32.07)"><path fill="#6d4c41" fill-rule="evenodd" d="M4.085,-7C7.604,-7,10.469,-4.159,10.494,-0.634C10.494,-0.634,10.501,0.434,10.501,0.434C10.526,3.974,7.676,6.864,4.136,6.889C4.136,6.889,-10.41,6.99,-10.41,6.99C-10.41,6.99,-10.507,-6.898,-10.507,-6.898C-10.507,-6.898,4.039,-6.999,4.039,-6.999C4.054,-7,4.069,-7,4.085,-7ZM4.085,-8.262C4.085,-8.262,4.085,-7,4.085,-7C4.085,-7,4.085,-8.262,4.085,-8.262C4.085,-8.262,4.03,-8.262,4.03,-8.262C4.03,-8.262,-10.516,-8.16,-10.516,-8.16C-10.516,-8.16,-11.778,-8.152,-11.778,-8.152C-11.778,-8.152,-11.769,-6.889,-11.769,-6.889C-11.769,-6.889,-11.672,6.999,-11.672,6.999C-11.672,6.999,-11.664,8.262,-11.664,8.262C-11.664,8.262,-10.401,8.253,-10.401,8.253C-10.401,8.253,4.145,8.152,4.145,8.152C6.194,8.137,8.115,7.325,9.554,5.866C10.993,4.407,11.778,2.474,11.764,0.425C11.764,0.425,11.756,-0.643,11.756,-0.643C11.742,-2.683,10.937,-4.597,9.489,-6.035C8.043,-7.471,6.123,-8.262,4.085,-8.262Z" /></g><g id="i30" transform="matrix(1,0,0,1,43.929,32.053)"><path fill="#f7bd8d" d="M10.496,-0.618C10.471,-4.158,7.581,-7.007,4.041,-6.982C4.041,-6.982,-10.504,-6.882,-10.504,-6.882C-10.504,-6.882,-10.499,-6.124,-10.499,-6.124C-10.499,-6.124,-10.407,7.008,-10.407,7.008C-10.407,7.008,-8.387,6.993,-8.387,6.993C-8.387,6.993,-8.472,-5.076,-8.472,-5.076C-8.476,-5.663,-8.004,-6.142,-7.418,-6.146C-7.418,-6.146,4.041,-6.225,4.041,-6.225C7.581,-6.25,10.472,-3.4,10.496,0.14C10.496,0.14,10.499,0.66,10.499,0.66C10.501,0.591,10.504,0.521,10.503,0.451C10.503,0.451,10.496,-0.618,10.496,-0.618Z" /></g><g id="i31" transform="matrix(1,0,0,1,46.93,32.009)"><path fill="#6d4c41" fill-rule="evenodd" d="M-0.006,-2.2C0.94,-2.2,1.713,-1.223,1.721,-0.012C1.729,1.204,0.966,2.194,0.015,2.201C0.015,2.201,0.005,2.201,0.005,2.201C-0.941,2.201,-1.714,1.224,-1.722,0.012C-1.731,-1.203,-0.966,-2.193,-0.016,-2.2C-0.016,-2.2,-0.006,-2.2,-0.006,-2.2ZM-0.006,-3.463C-0.006,-3.463,-0.006,-3.463,-0.006,-3.463C-0.006,-3.463,-0.025,-3.463,-0.025,-3.463C-0.869,-3.457,-1.672,-3.04,-2.229,-2.318C-2.722,-1.678,-2.99,-0.847,-2.985,0.021C-2.979,0.886,-2.7,1.711,-2.201,2.343C-1.639,3.055,-0.835,3.463,0.005,3.463C0.005,3.463,0.024,3.463,0.024,3.463C0.868,3.457,1.671,3.04,2.227,2.319C2.721,1.679,2.99,0.848,2.983,-0.021C2.977,-0.886,2.699,-1.711,2.2,-2.343C1.638,-3.055,0.834,-3.463,-0.006,-3.463Z" /></g><g id="i32" transform="matrix(1,0,0,1,46.709,31.884)"><path fill="#f7bd8d" d="M-0.996,0.642C-1.005,-0.573,-0.241,-1.564,0.71,-1.57C0.998,-1.572,1.27,-1.483,1.51,-1.324C1.191,-1.787,0.725,-2.079,0.205,-2.075C-0.746,-2.068,-1.51,-1.078,-1.501,0.137C-1.495,0.984,-1.115,1.715,-0.564,2.079C-0.829,1.695,-0.992,1.194,-0.996,0.642Z" /></g><g id="i33" transform="matrix(1,0,0,1,43.848,59.403)"><path fill="#6d4c41" d="M-2.3,-0.596C-2.3,-0.596,2.291,-0.628,2.291,-0.628C2.555,-0.63,2.771,-0.358,2.773,-0.02C2.776,0.318,2.563,0.592,2.299,0.594C2.299,0.594,-2.291,0.628,-2.291,0.628C-2.555,0.63,-2.772,0.357,-2.774,0.02C-2.776,-0.318,-2.564,-0.594,-2.3,-0.596Z" /></g><g id="i34" transform="matrix(1,0,0,1,35.039,59.403)"><path fill="#6d4c41" d="M-2.3,-0.596C-2.3,-0.596,2.291,-0.628,2.291,-0.628C2.555,-0.63,2.771,-0.358,2.773,-0.02C2.776,0.318,2.563,0.592,2.299,0.594C2.299,0.594,-2.291,0.628,-2.291,0.628C-2.555,0.63,-2.772,0.357,-2.774,0.02C-2.776,-0.318,-2.564,-0.594,-2.3,-0.596Z" /></g><g id="i35" transform="matrix(1,0,0,1,52.263,59.344)"><path fill="#6d4c41" d="M-2.299,-0.595C-2.299,-0.595,2.291,-0.627,2.291,-0.627C2.555,-0.629,2.772,-0.357,2.774,-0.019C2.776,0.318,2.564,0.593,2.3,0.595C2.3,0.595,-2.291,0.627,-2.291,0.627C-2.555,0.629,-2.771,0.357,-2.773,0.019C-2.776,-0.318,-2.563,-0.593,-2.299,-0.595Z" /></g><g id="i36" transform="matrix(1,0,0,1,60.68,59.285)"><path fill="#6d4c41" d="M-2.3,-0.596C-2.3,-0.596,2.291,-0.628,2.291,-0.628C2.555,-0.63,2.771,-0.358,2.773,-0.02C2.776,0.318,2.563,0.592,2.299,0.594C2.299,0.594,-2.291,0.628,-2.291,0.628C-2.555,0.63,-2.772,0.357,-2.774,0.02C-2.776,-0.318,-2.564,-0.594,-2.3,-0.596Z" /></g><g id="i37" transform="matrix(1,0,0,1,69.096,59.226)"><path fill="#6d4c41" d="M-2.299,-0.595C-2.299,-0.595,2.291,-0.627,2.291,-0.627C2.555,-0.629,2.772,-0.357,2.774,-0.019C2.776,0.319,2.564,0.593,2.3,0.595C2.3,0.595,-2.291,0.627,-2.291,0.627C-2.555,0.629,-2.771,0.357,-2.773,0.02C-2.776,-0.318,-2.563,-0.593,-2.299,-0.595Z" /></g><g id="i38" transform="matrix(1,0,0,1,77.513,59.167)"><path fill="#6d4c41" d="M-2.3,-0.596C-2.3,-0.596,2.291,-0.628,2.291,-0.628C2.555,-0.63,2.771,-0.358,2.773,-0.02C2.776,0.318,2.563,0.593,2.299,0.594C2.299,0.594,-2.291,0.628,-2.291,0.628C-2.555,0.63,-2.772,0.358,-2.774,0.02C-2.776,-0.318,-2.564,-0.594,-2.3,-0.596Z" /></g><g id="i39" transform="matrix(1,0,0,1,85.928,59.108)"><path fill="#6d4c41" d="M-2.299,-0.595C-2.299,-0.595,2.291,-0.627,2.291,-0.627C2.555,-0.629,2.772,-0.357,2.774,-0.019C2.776,0.319,2.564,0.593,2.3,0.595C2.3,0.595,-2.291,0.628,-2.291,0.628C-2.555,0.629,-2.771,0.357,-2.773,0.02C-2.776,-0.318,-2.563,-0.593,-2.299,-0.595Z" /></g><g id="i40" transform="matrix(1,0,0,1,94.345,59.05)"><path fill="#6d4c41" d="M-2.3,-0.595C-2.3,-0.595,2.291,-0.627,2.291,-0.627C2.555,-0.629,2.771,-0.357,2.773,-0.019C2.776,0.318,2.563,0.593,2.299,0.595C2.299,0.595,-2.291,0.627,-2.291,0.627C-2.555,0.629,-2.772,0.357,-2.774,0.019C-2.776,-0.318,-2.564,-0.594,-2.3,-0.595Z" /></g><g id="i41" transform="matrix(1,0,0,1,102.761,58.991)"><path fill="#6d4c41" d="M-2.299,-0.596C-2.299,-0.596,2.291,-0.628,2.291,-0.628C2.556,-0.63,2.772,-0.358,2.774,-0.02C2.777,0.318,2.564,0.592,2.3,0.594C2.3,0.594,-2.292,0.628,-2.292,0.628C-2.556,0.63,-2.772,0.357,-2.774,0.02C-2.777,-0.318,-2.563,-0.594,-2.299,-0.596Z" /></g><g id="i42" transform="matrix(1,0,0,1,111.653,58.929)"><path fill="#6d4c41" d="M-2.3,-0.595C-2.3,-0.595,2.291,-0.627,2.291,-0.627C2.555,-0.629,2.771,-0.357,2.773,-0.019C2.776,0.319,2.563,0.593,2.3,0.595C2.3,0.595,-2.291,0.628,-2.291,0.628C-2.555,0.629,-2.772,0.357,-2.774,0.02C-2.776,-0.318,-2.564,-0.593,-2.3,-0.595Z" /></g><g id="i10" transform="matrix(1,0,0,1,119.841,58.871)"><path fill="#6d4c41" d="M-2.299,-0.595C-2.299,-0.595,2.292,-0.627,2.292,-0.627C2.555,-0.629,2.771,-0.357,2.774,-0.019C2.776,0.318,2.564,0.593,2.3,0.595C2.3,0.595,-2.29,0.627,-2.29,0.627C-2.555,0.629,-2.771,0.357,-2.774,0.019C-2.776,-0.318,-2.564,-0.593,-2.299,-0.595Z" /></g><g id="i11" transform="matrix(1,0,0,1,128.085,58.814)"><path fill="#6d4c41" d="M-2.299,-0.595C-2.299,-0.595,2.292,-0.627,2.292,-0.627C2.555,-0.629,2.771,-0.357,2.774,-0.019C2.776,0.318,2.564,0.593,2.3,0.595C2.3,0.595,-2.291,0.627,-2.291,0.627C-2.555,0.629,-2.771,0.357,-2.774,0.019C-2.776,-0.318,-2.564,-0.593,-2.299,-0.595Z" /></g><g id="i12" transform="matrix(1,0,0,1,43.291,8.654)"><path fill="#6d4c41" d="M-2.3,-0.595C-2.3,-0.595,2.291,-0.627,2.291,-0.627C2.555,-0.629,2.771,-0.357,2.773,-0.019C2.776,0.319,2.564,0.593,2.3,0.595C2.3,0.595,-2.291,0.628,-2.291,0.628C-2.555,0.629,-2.771,0.357,-2.774,0.02C-2.776,-0.318,-2.564,-0.593,-2.3,-0.595Z" /></g><g id="i13" transform="matrix(1,0,0,1,34.482,8.654)"><path fill="#6d4c41" d="M-2.299,-0.595C-2.299,-0.595,2.291,-0.627,2.291,-0.627C2.555,-0.629,2.772,-0.357,2.774,-0.019C2.776,0.319,2.564,0.593,2.3,0.595C2.3,0.595,-2.291,0.628,-2.291,0.628C-2.555,0.629,-2.771,0.357,-2.773,0.02C-2.776,-0.318,-2.563,-0.593,-2.299,-0.595Z" /></g><g id="i14" transform="matrix(1,0,0,1,51.707,8.596)"><path fill="#6d4c41" d="M-2.3,-0.596C-2.3,-0.596,2.291,-0.627,2.291,-0.627C2.555,-0.629,2.771,-0.357,2.773,-0.019C2.776,0.319,2.563,0.593,2.299,0.594C2.299,0.594,-2.292,0.628,-2.292,0.628C-2.555,0.63,-2.772,0.358,-2.774,0.02C-2.776,-0.318,-2.564,-0.594,-2.3,-0.596Z" /></g><g id="i15" transform="matrix(1,0,0,1,60.123,8.536)"><path fill="#6d4c41" d="M-2.3,-0.595C-2.3,-0.595,2.291,-0.627,2.291,-0.627C2.555,-0.629,2.771,-0.357,2.773,-0.019C2.776,0.319,2.564,0.593,2.3,0.595C2.3,0.595,-2.291,0.628,-2.291,0.628C-2.555,0.629,-2.771,0.357,-2.774,0.02C-2.776,-0.318,-2.564,-0.593,-2.3,-0.595Z" /></g><g id="i16" transform="matrix(1,0,0,1,68.54,8.478)"><path fill="#6d4c41" d="M-2.3,-0.595C-2.3,-0.595,2.291,-0.627,2.291,-0.627C2.555,-0.629,2.771,-0.357,2.773,-0.019C2.776,0.318,2.563,0.593,2.299,0.595C2.299,0.595,-2.292,0.627,-2.292,0.627C-2.555,0.629,-2.772,0.357,-2.774,0.019C-2.776,-0.318,-2.564,-0.594,-2.3,-0.595Z" /></g><g id="i17" transform="matrix(1,0,0,1,76.955,8.419)"><path fill="#6d4c41" d="M-2.299,-0.596C-2.299,-0.596,2.291,-0.627,2.291,-0.627C2.555,-0.629,2.772,-0.357,2.774,-0.019C2.776,0.319,2.564,0.592,2.3,0.594C2.3,0.594,-2.291,0.628,-2.291,0.628C-2.555,0.63,-2.771,0.357,-2.773,0.02C-2.776,-0.318,-2.563,-0.594,-2.299,-0.596Z" /></g><g id="i18" transform="matrix(1,0,0,1,85.372,8.36)"><path fill="#6d4c41" d="M-2.3,-0.595C-2.3,-0.595,2.291,-0.627,2.291,-0.627C2.555,-0.629,2.771,-0.357,2.773,-0.019C2.776,0.318,2.563,0.593,2.299,0.595C2.299,0.595,-2.291,0.627,-2.291,0.627C-2.555,0.629,-2.772,0.357,-2.774,0.019C-2.776,-0.318,-2.564,-0.593,-2.3,-0.595Z" /></g><g id="i3" transform="matrix(1,0,0,1,93.788,8.302)"><path fill="#6d4c41" d="M-2.299,-0.596C-2.299,-0.596,2.291,-0.627,2.291,-0.627C2.555,-0.629,2.772,-0.357,2.774,-0.019C2.776,0.319,2.564,0.592,2.3,0.594C2.3,0.594,-2.291,0.628,-2.291,0.628C-2.555,0.63,-2.771,0.357,-2.773,0.02C-2.776,-0.318,-2.563,-0.594,-2.299,-0.596Z" /></g><g id="i4" transform="matrix(1,0,0,1,102.205,8.243)"><path fill="#6d4c41" d="M-2.3,-0.595C-2.3,-0.595,2.29,-0.627,2.29,-0.627C2.555,-0.629,2.771,-0.357,2.773,-0.019C2.776,0.319,2.564,0.593,2.299,0.595C2.299,0.595,-2.291,0.628,-2.291,0.628C-2.555,0.629,-2.772,0.357,-2.774,0.02C-2.776,-0.318,-2.564,-0.593,-2.3,-0.595Z" /></g><g id="i5" transform="matrix(1,0,0,1,111.096,8.181)"><path fill="#6d4c41" d="M-2.3,-0.595C-2.3,-0.595,2.291,-0.627,2.291,-0.627C2.555,-0.629,2.771,-0.357,2.773,-0.019C2.776,0.318,2.564,0.593,2.3,0.595C2.3,0.595,-2.291,0.627,-2.291,0.627C-2.555,0.629,-2.771,0.357,-2.774,0.019C-2.776,-0.318,-2.564,-0.594,-2.3,-0.595Z" /></g><g id="i6" transform="matrix(1,0,0,1,119.285,8.123)"><path fill="#6d4c41" d="M-2.299,-0.596C-2.299,-0.596,2.292,-0.627,2.292,-0.627C2.555,-0.629,2.771,-0.357,2.774,-0.019C2.776,0.319,2.564,0.593,2.301,0.594C2.301,0.594,-2.29,0.628,-2.29,0.628C-2.555,0.63,-2.771,0.358,-2.773,0.02C-2.776,-0.318,-2.563,-0.594,-2.299,-0.596Z" /></g><g id="i7" transform="matrix(1,0,0,1,127.529,8.066)"><path fill="#6d4c41" d="M-2.299,-0.596C-2.299,-0.596,2.292,-0.627,2.292,-0.627C2.555,-0.629,2.771,-0.357,2.774,-0.019C2.776,0.319,2.564,0.593,2.3,0.594C2.3,0.594,-2.29,0.628,-2.29,0.628C-2.555,0.63,-2.771,0.358,-2.773,0.02C-2.776,-0.318,-2.564,-0.594,-2.299,-0.596Z" /></g><g id="i8" transform="matrix(1,0,0,1,82.819,65.417)"><path fill="#6d4c41" d="M81.686,0.884C81.686,0.884,-81.686,0.884,-81.686,0.884C-82.174,0.884,-82.57,0.488,-82.57,0C-82.57,-0.488,-82.174,-0.884,-81.686,-0.884C-81.686,-0.884,81.686,-0.884,81.686,-0.884C82.174,-0.884,82.57,-0.488,82.57,0C82.57,0.488,82.174,0.884,81.686,0.884Z" /></g><g id="i1" transform="matrix(1,0,0,1,82.281,33.281)"><path fill="#6d4c41" fill-rule="evenodd" d="M46.385,-31.263C47.605,-31.263,48.597,-30.279,48.606,-29.057C48.606,-29.057,48.992,28.413,48.992,28.413C49.001,29.64,48.013,30.641,46.785,30.649C46.785,30.649,36.923,30.714,36.923,30.714C36.923,30.714,36.923,30.723,36.923,30.723C36.923,30.723,29.301,30.773,29.301,30.773C29.289,30.773,29.278,30.775,29.266,30.775C29.266,30.775,-45.324,31.263,-45.324,31.263C-45.324,31.263,-45.344,31.263,-45.344,31.263C-47.143,31.263,-48.609,29.635,-48.622,27.617C-48.622,27.617,-48.99,-26.961,-48.99,-26.961C-49.004,-28.986,-47.548,-30.638,-45.74,-30.65C-45.74,-30.65,-41.391,-30.678,-41.391,-30.678C-41.38,-30.678,-41.368,-30.68,-41.357,-30.68C-41.357,-30.68,-27.51,-30.771,-27.51,-30.771C-27.446,-30.775,-27.383,-30.781,-27.318,-30.782C-27.318,-30.782,46.369,-31.263,46.369,-31.263C46.369,-31.263,46.385,-31.263,46.385,-31.263ZM46.385,-33.031C46.385,-33.031,46.359,-33.031,46.359,-33.031C46.359,-33.031,-27.33,-32.55,-27.33,-32.55C-27.432,-32.549,-27.519,-32.542,-27.577,-32.538C-27.577,-32.538,-41.368,-32.448,-41.368,-32.448C-41.4,-32.448,-41.429,-32.447,-41.454,-32.446C-41.454,-32.446,-45.751,-32.417,-45.751,-32.417C-47.136,-32.408,-48.423,-31.808,-49.374,-30.729C-50.275,-29.705,-50.766,-28.363,-50.757,-26.948C-50.757,-26.948,-50.391,27.629,-50.391,27.629C-50.382,29.038,-49.875,30.369,-48.967,31.379C-48.009,32.444,-46.722,33.031,-45.344,33.031C-45.344,33.031,-45.311,33.031,-45.311,33.031C-45.311,33.031,29.279,32.542,29.279,32.542C29.311,32.542,29.338,32.541,29.363,32.54C29.363,32.54,36.936,32.49,36.936,32.49C36.936,32.49,38.701,32.479,38.701,32.479C38.701,32.479,38.701,32.469,38.701,32.469C38.701,32.469,46.796,32.417,46.796,32.417C47.862,32.41,48.862,31.988,49.611,31.23C50.359,30.471,50.767,29.467,50.76,28.401C50.76,28.401,50.374,-29.069,50.374,-29.069C50.366,-30.129,49.947,-31.125,49.195,-31.872C48.443,-32.619,47.446,-33.031,46.385,-33.031Z" /></g></g></g></g></svg>